<svg xmlns="http://www.w3.org/2000/svg" xmlns:xlink="http://www.w3.org/1999/xlink" width="500" zoomAndPan="magnify" viewBox="0 0 375 374.999991" height="500" preserveAspectRatio="xMidYMid meet" version="1.0"><defs><clipPath id="44245de179"><path d="M 94 40 L 359.152344 40 L 359.152344 335 L 94 335 Z M 94 40 " clip-rule="nonzero"/></clipPath><clipPath id="faa566d26e"><path d="M 93 39.875 L 359.152344 39.875 L 359.152344 335.121094 L 93 335.121094 Z M 93 39.875 " clip-rule="nonzero"/></clipPath><clipPath id="a04b8a6033"><path d="M 15.652344 50 L 247 50 L 247 275 L 15.652344 275 Z M 15.652344 50 " clip-rule="nonzero"/></clipPath><clipPath id="8444462be7"><path d="M 15.652344 50 L 247 50 L 247 276 L 15.652344 276 Z M 15.652344 50 " clip-rule="nonzero"/></clipPath></defs><path stroke-linecap="butt" transform="matrix(0.127812, 0, 0, 0.127812, -10.677481, 4.087588)" fill-opacity="1" fill="#fdbe6b" fill-rule="evenodd" stroke-linejoin="round" d="M 1436.353191 333.54484 C 1394.574426 333.54484 1355.851898 360.531417 1342.435016 403.44099 L 838.247531 2030.215037 C 830.51525 2051.211388 832.715741 2073.338546 839.347776 2092.164969 C 849.280548 2119.793355 872.538514 2144.121005 902.367391 2152.953531 L 2245.767106 2569.885438 C 2255.761002 2573.0028 2265.785461 2574.469794 2275.626545 2574.469794 C 2318.261057 2574.469794 2357.228084 2546.841408 2370.736653 2504.634769 L 2874.924138 877.860722 C 2891.488945 825.904687 2861.629506 770.617352 2809.704032 754.021983 L 1466.304318 338.220884 C 1456.310421 335.011834 1446.2554 333.54484 1436.353191 333.54484 Z M 1436.353191 333.54484 " stroke="#000000" stroke-width="3.438" stroke-opacity="1" stroke-miterlimit="10"/><path stroke-linecap="butt" transform="matrix(0.127812, 0, 0, 0.127812, -10.677481, 4.087588)" fill-opacity="1" fill="#ffffff" fill-rule="evenodd" stroke-linejoin="round" d="M 1466.059819 427.493578 C 1439.195492 427.493578 1414.164908 444.241759 1405.17957 471.197773 L 928.467659 2012.427735 C 918.534887 2045.618473 936.19994 2079.878894 970.521486 2090.942474 L 2228.102054 2481.223991 C 2233.84778 2482.752109 2239.624069 2483.485606 2245.278108 2483.485606 C 2272.417496 2483.485606 2297.478643 2466.615176 2306.616793 2439.231289 L 2785.559756 897.970765 C 2795.492528 864.780026 2775.56586 829.41936 2742.405684 819.456026 L 1484.825116 430.274754 C 1478.590392 428.379887 1472.263981 427.493578 1466.059819 427.493578 Z M 1466.059819 427.493578 " stroke="#000000" stroke-width="3.438" stroke-opacity="1" stroke-miterlimit="10"/><path stroke-linecap="butt" transform="matrix(0.127812, 0, 0, 0.127812, -10.677481, 4.087588)" fill-opacity="1" fill="#f3b0db" fill-rule="evenodd" stroke-linejoin="round" d="M 1582.471901 313.526485 C 1569.97189 313.526485 1558.327626 320.983705 1554.751828 333.514278 L 1493.902141 528.899535 C 1489.50116 544.364097 1499.464494 560.928903 1513.828809 565.329885 C 1516.548861 566.124507 1519.299474 566.491256 1522.019526 566.491256 C 1534.733473 566.491256 1546.499987 558.422789 1549.220038 546.564588 L 1610.069725 350.109647 C 1614.470707 334.645086 1606.738426 318.080279 1591.273865 314.74898 C 1588.339877 313.923796 1585.375327 313.526485 1582.471901 313.526485 Z M 1582.471901 313.526485 " stroke="#000000" stroke-width="3.438" stroke-opacity="1" stroke-miterlimit="10"/><path stroke-linecap="butt" transform="matrix(0.127812, 0, 0, 0.127812, -10.677481, 4.087588)" fill-opacity="1" fill="#f3b0db" fill-rule="evenodd" stroke-linejoin="round" d="M 1771.041749 370.494751 C 1758.266677 370.494751 1746.347351 378.59378 1742.710429 390.451981 L 1681.83018 587.243108 C 1678.498881 602.738231 1686.261724 619.3336 1701.756847 623.734582 C 1704.11015 624.22358 1706.55514 624.498642 1708.939005 624.498642 C 1722.019701 624.498642 1734.336338 616.949735 1737.178639 603.838477 L 1798.058888 408.117033 C 1802.45987 392.652472 1793.596782 376.057103 1779.232466 371.656121 C 1776.512414 370.861499 1773.761801 370.494751 1771.041749 370.494751 Z M 1771.041749 370.494751 " stroke="#000000" stroke-width="3.438" stroke-opacity="1" stroke-miterlimit="10"/><path stroke-linecap="butt" transform="matrix(0.127812, 0, 0, 0.127812, -10.677481, 4.087588)" fill-opacity="1" fill="#f3b0db" fill-rule="evenodd" stroke-linejoin="round" d="M 1959.030912 430.488691 C 1946.286402 430.488691 1934.397639 438.618282 1930.730154 450.415359 L 1869.849905 646.931424 C 1866.518606 662.395985 1874.250887 676.729739 1889.74601 682.230966 C 1892.679998 683.05615 1895.644549 683.453461 1898.547974 683.453461 C 1911.047985 683.453461 1922.508875 676.026804 1925.198364 663.465668 L 1986.048051 466.980166 C 1990.510158 452.646412 1982.747315 436.051043 1967.252191 431.650061 C 1964.53214 430.886002 1961.750964 430.488691 1959.030912 430.488691 Z M 1959.030912 430.488691 " stroke="#000000" stroke-width="3.438" stroke-opacity="1" stroke-miterlimit="10"/><path stroke-linecap="butt" transform="matrix(0.127812, 0, 0, 0.127812, -10.677481, 4.087588)" fill-opacity="1" fill="#f3b0db" fill-rule="evenodd" stroke-linejoin="round" d="M 2148.059196 488.526639 C 2134.917375 488.526639 2122.447926 496.075546 2118.719317 509.186804 L 2057.839068 704.847123 C 2054.538331 720.342247 2062.270612 735.806808 2077.765736 741.338598 C 2080.455224 742.102657 2083.205838 742.469405 2085.895327 742.469405 C 2098.639837 742.469405 2110.436913 734.217564 2113.187527 721.442492 L 2174.037214 525.751611 C 2178.49932 510.28705 2169.636232 493.691681 2155.241354 489.290699 C 2152.857489 488.771138 2150.473623 488.526639 2148.059196 488.526639 Z M 2148.059196 488.526639 " stroke="#000000" stroke-width="3.438" stroke-opacity="1" stroke-miterlimit="10"/><path stroke-linecap="butt" transform="matrix(0.127812, 0, 0, 0.127812, -10.677481, 4.087588)" fill-opacity="1" fill="#f3b0db" fill-rule="evenodd" stroke-linejoin="round" d="M 2335.0398 546.534025 C 2322.264728 546.534025 2310.345402 554.602492 2306.70848 566.460693 L 2245.828231 762.976758 C 2242.496932 777.341074 2250.259775 792.805635 2265.754898 798.337425 C 2268.47495 799.101485 2271.225563 799.468233 2273.945615 799.468233 C 2286.659562 799.468233 2298.426076 791.399766 2301.17669 779.541565 L 2362.056939 583.0255 C 2366.457921 568.630622 2358.72564 552.096377 2343.230517 547.664833 C 2340.510465 546.900774 2337.759852 546.534025 2335.0398 546.534025 Z M 2335.0398 546.534025 " stroke="#000000" stroke-width="3.438" stroke-opacity="1" stroke-miterlimit="10"/><path stroke-linecap="butt" transform="matrix(0.127812, 0, 0, 0.127812, -10.677481, 4.087588)" fill-opacity="1" fill="#f3b0db" fill-rule="evenodd" stroke-linejoin="round" d="M 2524.068084 604.510849 C 2510.926263 604.510849 2498.456815 612.059755 2494.697643 625.140451 L 2433.817393 820.892457 C 2430.486095 836.357019 2438.248938 852.921825 2453.774624 857.383932 C 2456.464113 858.147991 2459.184164 858.51474 2461.873653 858.51474 C 2474.618163 858.51474 2486.415239 850.232336 2489.165853 837.457264 L 2550.046102 641.766383 C 2554.477646 626.271259 2546.745366 609.67589 2531.250242 605.274908 C 2528.835814 604.755348 2526.421387 604.510849 2524.068084 604.510849 Z M 2524.068084 604.510849 " stroke="#000000" stroke-width="3.438" stroke-opacity="1" stroke-miterlimit="10"/><path stroke-linecap="butt" transform="matrix(0.127812, 0, 0, 0.127812, -10.677481, 4.087588)" fill-opacity="1" fill="#f3b0db" fill-rule="evenodd" stroke-linejoin="round" d="M 2711.048689 662.487672 C 2698.304179 662.487672 2686.35429 670.647826 2682.717368 682.506027 L 2621.837119 879.786152 C 2618.536382 895.311838 2626.268663 911.907207 2641.763787 915.238506 C 2644.667212 916.06369 2647.631762 916.461001 2650.535188 916.461001 C 2663.035199 916.461001 2674.465527 909.003782 2677.185578 896.412084 L 2738.035265 699.101397 C 2742.497371 684.737081 2734.734528 668.080587 2719.239405 663.649043 C 2716.519353 662.884983 2713.76874 662.487672 2711.048689 662.487672 Z M 2711.048689 662.487672 " stroke="#000000" stroke-width="3.438" stroke-opacity="1" stroke-miterlimit="10"/><g clip-path="url(#44245de179)"><path fill="#000000" d="M 191.890625 44.304688 C 192.171875 44.304688 192.601562 44.304688 192.878906 44.445312 C 194.859375 45.015625 195.847656 47.132812 195.425781 48.96875 L 194.71875 51.371094 L 193.585938 54.480469 L 187.648438 74.117188 C 187.085938 75.671875 185.671875 76.800781 184.117188 76.800781 C 183.691406 76.800781 183.269531 76.800781 182.984375 76.523438 C 181.007812 76.09375 180.019531 73.976562 180.582031 72 L 186.664062 52.359375 L 187.789062 49.253906 L 188.359375 46.707031 C 188.78125 45.152344 190.191406 44.304688 191.890625 44.304688 Z M 215.917969 51.511719 C 216.203125 51.511719 216.625 51.511719 216.910156 51.65625 C 218.890625 52.21875 219.875 54.335938 219.453125 56.3125 L 218.605469 58.574219 L 217.617188 61.683594 L 211.539062 81.324219 C 211.113281 82.878906 209.703125 84.007812 208.003906 84.007812 C 207.722656 84.007812 207.300781 84.007812 207.015625 83.867188 C 205.035156 83.304688 204.042969 81.179688 204.472656 79.203125 L 210.550781 59.566406 L 211.539062 56.457031 L 212.386719 54.054688 C 212.8125 52.503906 214.222656 51.511719 215.917969 51.511719 Z M 239.949219 58.859375 C 240.230469 58.859375 240.65625 58.859375 240.941406 59.144531 C 242.917969 59.566406 243.90625 61.683594 243.484375 63.664062 L 242.773438 65.925781 L 241.648438 69.171875 L 235.425781 88.8125 C 234.859375 90.367188 233.585938 91.355469 231.890625 91.355469 C 231.609375 91.355469 231.1875 91.355469 230.902344 91.214844 C 228.921875 90.648438 227.933594 88.53125 228.359375 86.691406 L 234.4375 67.054688 L 235.425781 63.800781 L 236.414062 61.546875 C 236.835938 59.992188 238.253906 58.859375 239.949219 58.859375 Z M 263.980469 66.347656 C 264.261719 66.347656 264.6875 66.347656 264.964844 66.488281 C 266.945312 67.054688 267.9375 69.171875 267.511719 71.152344 L 266.804688 73.414062 L 265.671875 76.523438 L 259.457031 96.15625 C 259.03125 97.710938 257.617188 98.84375 255.921875 98.84375 C 255.640625 98.84375 255.214844 98.84375 254.933594 98.703125 C 252.953125 98.136719 251.964844 96.019531 252.390625 94.039062 L 258.464844 74.398438 L 259.457031 71.289062 L 260.445312 69.035156 C 260.867188 67.335938 262.285156 66.347656 263.980469 66.347656 Z M 288.007812 74.117188 C 288.289062 74.117188 288.710938 74.117188 288.996094 74.261719 C 290.976562 74.824219 291.964844 76.945312 291.542969 78.921875 L 290.835938 81.179688 L 289.703125 84.289062 L 283.765625 103.929688 C 283.203125 105.484375 281.789062 106.613281 280.234375 106.613281 C 279.808594 106.613281 279.527344 106.613281 279.101562 106.472656 C 277.121094 105.90625 276.136719 103.785156 276.699219 101.808594 L 282.777344 82.171875 L 283.90625 79.0625 L 284.472656 76.523438 C 284.898438 74.96875 286.308594 74.117188 288.007812 74.117188 Z M 312.035156 81.324219 C 312.320312 81.324219 312.742188 81.324219 313.027344 81.464844 C 315.003906 82.027344 315.992188 84.148438 315.570312 86.128906 L 314.863281 88.390625 L 313.734375 91.636719 L 307.796875 111.132812 C 307.230469 112.828125 305.816406 113.820312 304.261719 113.820312 C 303.839844 113.820312 303.554688 113.820312 303.132812 113.679688 C 301.152344 113.113281 300.160156 110.996094 300.730469 109.015625 L 306.664062 89.515625 L 307.796875 86.269531 L 308.5 84.007812 C 308.929688 82.457031 310.339844 81.324219 312.035156 81.324219 Z M 336.066406 88.953125 C 336.347656 88.953125 336.773438 88.953125 337.054688 89.09375 C 339.035156 89.660156 340.023438 91.777344 339.597656 93.757812 L 338.890625 96.019531 L 337.757812 99.125 L 331.542969 118.761719 C 331.121094 120.316406 329.703125 121.449219 328.007812 121.449219 C 327.726562 121.449219 327.300781 121.449219 327.019531 121.308594 C 325.039062 120.742188 324.050781 118.621094 324.476562 116.644531 L 330.550781 97.003906 L 331.542969 93.894531 L 332.53125 91.355469 C 332.953125 89.800781 334.371094 88.953125 336.066406 88.953125 Z M 172.949219 48.546875 C 173.9375 48.546875 175.070312 48.6875 176.0625 48.96875 L 183.128906 51.085938 L 177.191406 70.726562 C 175.917969 74.398438 178.039062 78.355469 181.714844 79.625 C 182.421875 79.769531 183.128906 79.910156 183.832031 79.910156 C 187.085938 79.910156 189.769531 77.933594 190.621094 74.96875 L 196.835938 55.328125 L 207.441406 58.71875 L 201.363281 78.355469 C 200.792969 80.050781 201.078125 82.027344 201.925781 83.582031 C 202.773438 85.28125 204.1875 86.410156 206.023438 86.976562 C 206.730469 87.113281 207.441406 87.398438 208.144531 87.398438 C 211.257812 87.398438 213.9375 85.421875 214.792969 82.457031 L 220.867188 62.816406 L 231.46875 66.203125 L 225.25 85.703125 C 224.683594 87.539062 224.824219 89.515625 225.8125 91.070312 C 226.664062 92.625 228.074219 93.894531 229.769531 94.464844 C 230.476562 94.601562 231.1875 94.746094 231.890625 94.746094 C 235.144531 94.746094 237.828125 92.769531 238.675781 89.800781 L 244.613281 70.160156 L 255.214844 73.550781 L 249.277344 93.191406 C 248.710938 94.886719 248.855469 96.863281 249.84375 98.417969 C 250.691406 99.972656 252.105469 101.246094 253.800781 101.808594 C 254.507812 101.953125 255.214844 102.089844 255.921875 102.089844 C 259.171875 102.089844 261.859375 100.257812 262.707031 97.148438 L 268.644531 77.648438 L 279.246094 80.902344 L 273.308594 100.539062 C 272.742188 102.375 272.878906 104.214844 273.871094 105.90625 C 274.71875 107.460938 276.136719 108.734375 277.832031 109.15625 C 278.539062 109.441406 279.246094 109.578125 279.949219 109.578125 C 283.203125 109.578125 285.886719 107.601562 286.734375 104.636719 L 292.953125 84.996094 L 303.554688 88.390625 L 297.480469 108.027344 C 296.203125 111.703125 298.328125 115.515625 302.140625 116.785156 C 302.847656 116.929688 303.554688 117.207031 304.261719 117.207031 C 307.375 117.207031 310.054688 115.230469 310.90625 112.265625 L 317.121094 92.625 L 327.726562 96.019531 L 321.648438 115.515625 C 320.65625 119.328125 322.636719 123.140625 326.308594 124.417969 C 327.019531 124.558594 327.726562 124.695312 328.433594 124.695312 C 331.542969 124.695312 334.226562 122.863281 335.078125 119.753906 L 341.152344 100.257812 L 348.222656 102.375 C 353.875 104.070312 356.984375 110.289062 355.289062 115.9375 L 290.835938 323.769531 C 289.84375 326.59375 288.007812 328.996094 285.460938 330.40625 C 283.863281 331.25 282.214844 331.640625 280.550781 331.640625 C 279.414062 331.640625 278.265625 331.457031 277.121094 331.113281 L 105.246094 277.851562 C 101.851562 276.859375 99.308594 274.320312 98.179688 271.066406 C 97.472656 268.664062 97.332031 266.410156 98.039062 264.144531 L 162.488281 56.3125 C 163.902344 51.511719 168.285156 48.546875 172.949219 48.546875 Z M 191.609375 40.066406 C 188.496094 40.066406 185.8125 41.90625 184.964844 45.015625 L 184.257812 47.277344 L 177.191406 45.152344 C 175.796875 44.742188 174.398438 44.546875 173.023438 44.546875 C 166.855469 44.546875 161.179688 48.496094 159.097656 54.621094 L 94.785156 263.296875 C 93.9375 266.265625 93.9375 269.371094 94.929688 272.199219 C 96.625 276.4375 99.875 279.828125 104.253906 281.101562 L 275.992188 334.222656 C 277.40625 334.644531 278.816406 334.929688 280.234375 334.929688 C 282.496094 334.929688 284.753906 334.363281 286.878906 333.375 C 290.265625 331.539062 292.667969 328.574219 293.945312 324.902344 L 358.398438 117.066406 C 359.527344 113.253906 359.101562 109.441406 357.40625 106.046875 C 355.570312 102.660156 352.601562 100.257812 348.929688 98.984375 L 341.859375 96.863281 L 342.570312 94.601562 C 343.695312 90.929688 341.714844 86.976562 337.902344 85.703125 C 337.195312 85.558594 336.488281 85.421875 335.78125 85.421875 C 332.675781 85.421875 329.988281 87.398438 329.140625 90.367188 L 328.433594 92.625 L 317.832031 89.238281 L 318.539062 86.976562 C 319.101562 85.28125 318.824219 83.304688 317.96875 81.75 C 317.121094 80.050781 315.710938 78.921875 313.875 78.355469 C 313.164062 78.214844 312.457031 77.933594 311.753906 77.933594 C 308.644531 77.933594 305.957031 79.910156 305.109375 82.878906 L 304.402344 85.28125 L 293.800781 81.886719 L 294.507812 79.625 C 294.933594 77.792969 294.792969 75.816406 293.945312 74.261719 C 293.097656 72.707031 291.683594 71.433594 289.84375 70.726562 C 289.140625 70.585938 288.429688 70.445312 287.726562 70.445312 C 284.613281 70.445312 281.925781 72.28125 281.078125 75.390625 L 280.371094 77.648438 L 269.773438 74.261719 L 270.480469 72 C 271.46875 68.324219 269.492188 64.371094 265.816406 63.097656 C 265.109375 62.957031 264.402344 62.816406 263.695312 62.816406 C 260.582031 62.816406 257.902344 64.792969 257.050781 67.757812 L 256.347656 70.019531 L 245.746094 66.632812 L 246.453125 64.371094 C 247.585938 60.699219 245.460938 56.742188 241.789062 55.609375 C 241.078125 55.328125 240.371094 55.1875 239.667969 55.1875 C 236.558594 55.1875 233.871094 57.164062 233.023438 60.128906 L 232.316406 62.390625 L 221.714844 59.144531 L 222.421875 56.742188 C 223.554688 53.066406 221.429688 49.253906 217.757812 47.980469 C 217.050781 47.839844 216.347656 47.554688 215.636719 47.554688 C 212.527344 47.554688 209.84375 49.53125 208.992188 52.503906 L 208.285156 54.902344 L 197.683594 51.511719 L 198.394531 49.253906 C 198.816406 47.414062 198.675781 45.4375 197.828125 43.882812 C 196.980469 42.328125 195.566406 41.058594 193.726562 40.351562 C 193.023438 40.210938 192.316406 40.066406 191.609375 40.066406 Z M 191.609375 40.066406 " fill-opacity="1" fill-rule="evenodd"/></g><g clip-path="url(#faa566d26e)"><path stroke-linecap="butt" transform="matrix(0.127812, 0, 0, 0.127812, -10.677481, 4.087588)" fill="none" stroke-linejoin="round" d="M 1584.886329 314.657293 C 1587.08682 314.657293 1590.448681 314.657293 1592.61861 315.757539 C 1608.113733 320.219645 1615.846014 336.784452 1612.545278 351.148768 L 1607.013488 369.944628 L 1598.150399 394.272278 L 1551.695591 547.909332 C 1547.294609 560.073157 1536.23103 568.905683 1524.067205 568.905683 C 1520.735906 568.905683 1517.435169 568.905683 1515.204116 566.735755 C 1499.739555 563.373893 1492.007274 546.809087 1496.408256 531.344525 L 1543.993873 377.676909 L 1552.795836 353.379821 L 1557.257943 333.453153 C 1560.558679 321.289328 1571.591696 314.657293 1584.886329 314.657293 Z M 1772.875492 371.044873 C 1775.106545 371.044873 1778.407282 371.044873 1780.638335 372.175681 C 1796.133459 376.576663 1803.835177 393.14147 1800.53444 408.606031 L 1793.902405 426.301646 L 1786.170125 450.629295 L 1738.615071 604.296912 C 1735.283772 616.460737 1724.250755 625.293263 1710.956122 625.293263 C 1708.755631 625.293263 1705.454895 625.293263 1703.223841 624.193018 C 1687.728718 619.792036 1679.965875 603.166104 1683.327736 587.701543 L 1730.88279 434.064489 L 1738.615071 409.736839 L 1745.247106 390.940979 C 1748.578405 378.807716 1759.611422 371.044873 1772.875492 371.044873 Z M 1960.895217 428.532699 C 1963.095708 428.532699 1966.427007 428.532699 1968.65806 430.763752 C 1984.122621 434.064489 1991.854902 450.629295 1988.554166 466.124419 L 1982.991814 483.820034 L 1974.18985 509.217367 L 1925.503988 662.884983 C 1921.072444 675.048808 1911.10911 682.781089 1897.845039 682.781089 C 1895.644549 682.781089 1892.343812 682.781089 1890.112759 681.680843 C 1874.617635 677.249299 1866.885355 660.684492 1870.216653 646.289614 L 1917.771707 492.65256 L 1925.503988 467.194102 L 1933.236269 449.559612 C 1936.537005 437.395787 1947.631147 428.532699 1960.895217 428.532699 Z M 2148.914942 487.12077 C 2151.115433 487.12077 2154.446732 487.12077 2156.616661 488.221016 C 2172.111784 492.65256 2179.874627 509.217367 2176.543329 524.71249 L 2171.011539 542.408105 L 2162.14845 566.735755 L 2113.523713 720.342247 C 2110.192414 732.506071 2099.128835 741.36916 2085.864765 741.36916 C 2083.664274 741.36916 2080.332975 741.36916 2078.132484 740.268914 C 2062.63736 735.83737 2054.90508 719.272563 2058.236379 703.77744 L 2105.76087 550.109823 L 2113.523713 525.782173 L 2121.255994 508.147683 C 2124.55673 494.853051 2135.650872 487.12077 2148.914942 487.12077 Z M 2336.904105 547.909332 C 2339.104596 547.909332 2342.405333 547.909332 2344.636386 549.04014 C 2360.13151 553.441122 2367.86379 570.036491 2364.563054 585.501052 L 2359.031264 603.166104 L 2350.168176 627.493754 L 2303.713367 781.161371 C 2299.312385 793.325196 2288.248806 802.157722 2276.084981 802.157722 C 2272.753682 802.157722 2270.553191 802.157722 2267.221892 801.057476 C 2251.726769 796.625932 2244.02505 780.030563 2248.426032 764.566002 L 2295.981086 610.928947 L 2304.813612 586.601298 L 2309.245157 566.735755 C 2312.576455 554.57193 2323.609473 547.909332 2336.904105 547.909332 Z M 2524.893268 604.296912 C 2527.124321 604.296912 2530.425058 604.296912 2532.656111 605.397158 C 2548.120672 609.79814 2555.852953 626.393509 2552.552217 641.888632 L 2547.020427 659.584247 L 2538.187901 684.98158 L 2491.733092 837.518389 C 2487.301548 850.782459 2476.237969 858.545302 2464.074144 858.545302 C 2460.773407 858.545302 2458.542354 858.545302 2455.241618 857.445057 C 2439.746494 853.013512 2431.983651 836.448706 2436.445758 820.953582 L 2482.870004 668.386211 L 2491.733092 642.988878 L 2497.23432 625.293263 C 2500.596181 613.160001 2511.629198 604.296912 2524.893268 604.296912 Z M 2712.912993 663.985229 C 2715.113484 663.985229 2718.444783 663.985229 2720.645274 665.085474 C 2736.140398 669.517019 2743.872678 686.081825 2740.541379 701.576949 L 2735.00959 719.272563 L 2726.146501 743.569651 L 2677.521764 897.206705 C 2674.221028 909.37053 2663.126886 918.233619 2649.862816 918.233619 C 2647.662325 918.233619 2644.331026 918.233619 2642.130535 917.133373 C 2626.635411 912.701829 2618.903131 896.10646 2622.234429 880.641899 L 2669.758921 726.974282 L 2677.521764 702.646632 L 2685.254045 682.781089 C 2688.554781 670.617264 2699.648923 663.985229 2712.912993 663.985229 Z M 1436.689377 347.848031 C 1444.421658 347.848031 1453.284746 348.948277 1461.047589 351.148768 L 1516.334924 367.713575 L 1469.880115 521.381191 C 1459.916781 550.109823 1476.512151 581.069508 1505.271345 591.00228 C 1510.803134 592.133087 1516.334924 593.233333 1521.836151 593.233333 C 1547.294609 593.233333 1568.29096 577.768772 1574.953557 554.57193 L 1623.578295 400.904313 L 1706.55514 427.432454 L 1659.000086 581.069508 C 1654.53798 594.333578 1656.769033 609.79814 1663.401068 621.961964 C 1670.033103 635.256597 1681.096683 644.089123 1695.460998 648.520668 C 1700.992788 649.590351 1706.55514 651.821404 1712.056368 651.821404 C 1736.41458 651.821404 1757.380368 636.356843 1764.073528 613.160001 L 1811.59802 459.492384 L 1894.544303 485.989962 L 1845.889004 638.557334 C 1841.457459 652.921649 1842.557705 668.386211 1850.289985 680.550036 C 1856.952583 692.71386 1867.9856 702.646632 1881.24967 707.108739 C 1886.78146 708.178422 1892.343812 709.30923 1897.845039 709.30923 C 1923.303497 709.30923 1944.299848 693.844668 1950.931883 670.617264 L 1997.386692 516.949647 L 2080.332975 543.477788 L 2033.878166 697.145405 C 2029.446622 710.409475 2030.57743 725.874036 2038.309711 738.037861 C 2044.941746 750.201686 2056.005325 760.16502 2069.269396 764.566002 C 2074.801185 765.69681 2080.332975 766.766493 2085.864765 766.766493 C 2111.29266 766.766493 2132.319573 752.432739 2138.951608 728.10509 L 2185.406417 575.537718 L 2268.3527 600.996176 L 2221.897892 754.63323 C 2217.466347 768.997546 2218.53603 783.392424 2226.298874 796.625932 C 2232.930909 808.789757 2244.02505 818.753091 2257.289121 822.053827 C 2262.820911 824.284881 2268.3527 825.354564 2273.853928 825.354564 C 2299.312385 825.354564 2320.308736 809.890003 2326.940771 786.693161 L 2375.596071 633.025544 L 2458.542354 659.584247 L 2411.017862 813.221301 C 2401.023966 841.980495 2417.649898 871.809372 2447.478775 881.742144 C 2453.010564 882.872952 2458.542354 885.04288 2464.074144 885.04288 C 2488.432356 885.04288 2509.398144 869.578319 2516.060742 846.381477 L 2564.685479 692.71386 L 2647.662325 719.272563 L 2600.107271 871.809372 C 2592.344428 901.63825 2607.839551 931.467127 2636.568183 941.461023 C 2642.130535 942.561268 2647.662325 943.630951 2653.194114 943.630951 C 2677.521764 943.630951 2698.518115 929.297198 2705.180713 904.969548 L 2752.705204 752.432739 L 2808.023101 768.997546 C 2852.246857 782.261616 2876.574506 830.916916 2863.310436 875.110109 L 2359.031264 2501.181221 C 2351.268421 2523.277817 2336.904105 2542.073677 2316.977437 2553.106694 C 2304.477426 2559.708167 2291.580105 2562.764405 2278.560533 2562.764405 C 2269.666882 2562.764405 2260.681544 2561.327973 2251.726769 2558.638484 L 906.98231 2141.920514 C 880.423607 2134.157671 860.527501 2114.292128 851.694975 2088.83367 C 846.163186 2070.03781 845.06294 2052.40332 850.59473 2034.677143 L 1354.843339 408.606031 C 1365.906919 371.044873 1400.197903 347.848031 1436.689377 347.848031 Z M 1582.685838 281.497117 C 1558.327626 281.497117 1537.331275 295.891996 1530.69924 320.219645 L 1525.16745 337.91526 L 1469.880115 321.289328 C 1458.969348 318.080279 1448.028018 316.55216 1437.270062 316.55216 C 1389.012074 316.55216 1344.604944 347.450721 1328.315199 395.372523 L 825.136272 2028.045108 C 818.504237 2051.272512 818.504237 2075.5696 826.26708 2097.696758 C 839.53115 2130.856934 864.959046 2157.385075 899.219467 2167.348409 L 2242.894243 2582.966134 C 2253.957822 2586.26687 2264.990839 2588.497924 2276.084981 2588.497924 C 2293.780595 2588.497924 2311.445648 2584.066379 2328.071579 2576.334099 C 2354.569157 2561.969783 2373.365017 2538.772941 2383.358914 2510.044309 L 2887.638086 883.942635 C 2896.470612 854.113758 2893.139313 824.284881 2879.875243 797.726178 C 2865.510927 771.228599 2842.283523 752.432739 2813.554891 742.469405 L 2758.236994 725.874036 L 2763.799346 708.178422 C 2772.60131 679.44979 2757.106186 648.520668 2727.277309 638.557334 C 2721.745519 637.426526 2716.21373 636.356843 2710.68194 636.356843 C 2686.384853 636.356843 2665.357939 651.821404 2658.725904 675.048808 L 2653.194114 692.71386 L 2570.247831 666.216282 L 2575.779621 648.520668 C 2580.180603 635.256597 2578.010674 619.792036 2571.317514 607.628211 C 2564.685479 594.333578 2553.652462 585.501052 2539.288146 581.069508 C 2533.725794 579.969262 2528.194005 577.768772 2522.692777 577.768772 C 2498.365127 577.768772 2477.338214 593.233333 2470.706179 616.460737 L 2465.174389 635.256597 L 2382.228106 608.697894 L 2387.759896 591.00228 C 2391.091194 576.668526 2389.990949 561.203965 2383.358914 549.04014 C 2376.726879 536.876315 2365.663299 526.912981 2351.268421 521.381191 C 2345.767194 520.280946 2340.204842 519.1807 2334.703614 519.1807 C 2310.345402 519.1807 2289.318489 533.545016 2282.686454 557.872666 L 2277.154664 575.537718 L 2194.238943 549.04014 L 2199.770733 531.344525 C 2207.503013 502.585331 2192.038452 471.656209 2163.279258 461.692875 C 2157.747468 460.592629 2152.215679 459.492384 2146.683889 459.492384 C 2122.325677 459.492384 2101.359888 474.956945 2094.697291 498.153787 L 2089.196063 515.849402 L 2006.24978 489.351823 L 2011.78157 471.656209 C 2020.644658 442.927577 2004.018727 411.967892 1975.290095 403.104804 C 1969.727743 400.904313 1964.195954 399.804067 1958.694726 399.804067 C 1934.367076 399.804067 1913.340163 415.268629 1906.708128 438.465471 L 1901.176338 456.161085 L 1818.230055 430.763752 L 1823.761845 411.967892 C 1832.624933 383.208698 1815.999002 353.379821 1787.27037 343.416487 C 1781.73858 342.316242 1776.237353 340.085188 1770.675001 340.085188 C 1746.347351 340.085188 1725.351 355.54975 1718.688403 378.807716 L 1713.156613 397.573014 L 1630.21033 371.044873 L 1635.772682 353.379821 C 1639.073418 338.984943 1637.973173 323.520382 1631.341138 311.356557 C 1624.709102 299.192732 1613.645523 289.25996 1599.250645 283.728171 C 1593.749418 282.627925 1588.217628 281.497117 1582.685838 281.497117 Z M 1582.685838 281.497117 " stroke="#000000" stroke-width="3.438" stroke-opacity="1" stroke-miterlimit="10"/></g><path stroke-linecap="butt" transform="matrix(0.127812, 0, 0, 0.127812, -10.677481, 4.087588)" fill-opacity="1" fill="#000000" fill-rule="evenodd" stroke-linejoin="round" d="M 1453.682057 744.486522 C 1448.486454 744.486522 1443.535349 748.306819 1441.854418 753.380173 C 1438.52312 760.012208 1442.954664 767.775051 1449.556137 769.975542 L 2579.661042 1119.456289 L 2582.992341 1119.456289 C 2588.524131 1119.456289 2594.055921 1116.155553 2596.286974 1111.754571 C 2598.456902 1105.122536 2594.055921 1097.359693 2587.423885 1095.12864 L 1458.419225 745.61733 C 1456.860544 744.853271 1455.271301 744.486522 1453.682057 744.486522 Z M 1453.682057 744.486522 " stroke="#000000" stroke-width="3.438" stroke-opacity="1" stroke-miterlimit="10"/><path stroke-linecap="butt" transform="matrix(0.127812, 0, 0, 0.127812, -10.677481, 4.087588)" fill-opacity="1" fill="#000000" fill-rule="evenodd" stroke-linejoin="round" d="M 1408.205245 889.504987 C 1402.856829 889.504987 1398.547534 893.264159 1396.836041 898.398638 C 1393.535305 906.100356 1397.936287 912.732391 1404.598884 914.963445 L 2533.572982 1265.483313 L 2538.035089 1265.483313 C 2543.505754 1265.483313 2549.068106 1261.051769 2550.198914 1256.620224 C 2553.49965 1249.988189 2549.068106 1243.356154 2542.436071 1240.024855 L 1413.431411 890.635795 C 1411.62823 889.871736 1409.886175 889.504987 1408.205245 889.504987 Z M 1408.205245 889.504987 " stroke="#000000" stroke-width="3.438" stroke-opacity="1" stroke-miterlimit="10"/><path stroke-linecap="butt" transform="matrix(0.127812, 0, 0, 0.127812, -10.677481, 4.087588)" fill-opacity="1" fill="#000000" fill-rule="evenodd" stroke-linejoin="round" d="M 1363.85924 1034.523452 C 1358.144076 1034.523452 1353.620844 1037.885313 1351.848227 1044.058913 C 1348.516928 1050.690948 1352.948472 1057.322983 1359.580507 1060.654282 L 2489.563164 1410.471215 L 2493.964146 1410.471215 C 2499.495935 1410.471215 2503.958042 1407.139917 2506.158533 1401.608127 C 2509.459269 1394.976092 2505.058287 1388.344056 2498.426252 1385.012758 L 1368.443596 1035.195824 C 1366.854352 1034.737389 1365.326234 1034.523452 1363.85924 1034.523452 Z M 1363.85924 1034.523452 " stroke="#000000" stroke-width="3.438" stroke-opacity="1" stroke-miterlimit="10"/><path stroke-linecap="butt" transform="matrix(0.127812, 0, 0, 0.127812, -10.677481, 4.087588)" fill-opacity="1" fill="#000000" fill-rule="evenodd" stroke-linejoin="round" d="M 1317.679493 1181.497909 C 1312.75895 1181.497909 1308.235719 1185.318206 1305.729604 1190.39156 C 1303.498551 1197.023595 1306.82985 1204.786438 1314.56213 1206.956366 L 2443.566791 1556.467676 L 2448.028897 1556.467676 C 2453.560687 1556.467676 2459.061914 1553.136377 2460.192722 1548.735396 C 2463.493459 1542.10336 2459.061914 1534.340517 2452.429879 1532.140026 L 1322.294411 1182.659279 C 1320.73573 1181.864657 1319.207611 1181.497909 1317.679493 1181.497909 Z M 1317.679493 1181.497909 " stroke="#000000" stroke-width="3.438" stroke-opacity="1" stroke-miterlimit="10"/><path stroke-linecap="butt" transform="matrix(0.127812, 0, 0, 0.127812, -10.677481, 4.087588)" fill-opacity="1" fill="#000000" fill-rule="evenodd" stroke-linejoin="round" d="M 1272.661116 1326.485811 C 1267.43495 1326.485811 1262.514407 1330.275546 1260.802914 1335.379462 C 1257.502178 1343.111743 1261.90316 1349.743778 1268.565757 1351.974831 L 2398.701226 1702.464137 L 2403.102207 1702.464137 C 2408.66456 1702.464137 2414.196349 1698.063155 2415.266032 1693.662173 C 2417.497086 1686.999576 2414.196349 1680.367541 2406.433506 1677.036242 L 1277.398284 1327.616619 C 1275.870165 1326.85256 1274.250359 1326.485811 1272.661116 1326.485811 Z M 1272.661116 1326.485811 " stroke="#000000" stroke-width="3.438" stroke-opacity="1" stroke-miterlimit="10"/><path stroke-linecap="butt" transform="matrix(0.127812, 0, 0, 0.127812, -10.677481, 4.087588)" fill-opacity="1" fill="#000000" fill-rule="evenodd" stroke-linejoin="round" d="M 1228.253986 1471.534839 C 1223.088945 1471.534839 1218.351777 1474.8967 1215.723413 1481.070299 C 1213.492359 1487.702335 1216.823658 1494.33437 1224.555939 1497.635106 L 2353.682849 1847.482602 L 2358.114393 1847.482602 C 2363.646183 1847.482602 2366.946919 1844.151303 2370.278218 1838.619514 C 2372.478709 1831.956916 2369.14741 1825.324881 2361.415129 1822.024144 L 1232.288219 1472.207211 C 1230.943475 1471.718213 1229.568168 1471.534839 1228.253986 1471.534839 Z M 1228.253986 1471.534839 " stroke="#000000" stroke-width="3.438" stroke-opacity="1" stroke-miterlimit="10"/><path stroke-linecap="butt" transform="matrix(0.127812, 0, 0, 0.127812, -10.677481, 4.087588)" fill-opacity="1" fill="#000000" fill-rule="evenodd" stroke-linejoin="round" d="M 1182.196488 1618.539858 C 1176.817511 1618.539858 1172.508216 1622.29903 1170.796723 1627.372384 C 1167.495986 1633.973857 1171.927531 1641.706137 1178.559566 1643.906628 L 2307.594789 1992.470505 L 2312.026333 1992.470505 C 2317.558122 1992.470505 2323.05935 1989.169768 2325.290403 1984.768786 C 2327.490894 1978.136751 2323.05935 1970.404471 2316.427315 1968.234542 L 1187.422654 1619.670666 C 1185.588912 1618.845482 1183.846857 1618.539858 1182.196488 1618.539858 Z M 1182.196488 1618.539858 " stroke="#000000" stroke-width="3.438" stroke-opacity="1" stroke-miterlimit="10"/><path stroke-linecap="butt" transform="matrix(0.127812, 0, 0, 0.127812, -10.677481, 4.087588)" fill-opacity="1" fill="#000000" fill-rule="evenodd" stroke-linejoin="round" d="M 1137.208674 1762.48864 C 1131.799134 1762.48864 1127.550964 1766.308937 1125.839471 1771.382291 C 1122.508172 1779.114571 1126.939716 1785.777169 1133.571751 1787.947097 L 2262.576412 2138.497528 L 2266.977393 2138.497528 C 2272.509183 2138.497528 2278.071535 2134.065984 2279.141218 2129.665002 C 2282.472517 2123.032967 2278.071535 2116.370369 2271.4395 2113.03907 L 1142.43484 1763.619448 C 1140.601097 1762.855388 1138.889604 1762.48864 1137.208674 1762.48864 Z M 1137.208674 1762.48864 " stroke="#000000" stroke-width="3.438" stroke-opacity="1" stroke-miterlimit="10"/><path stroke-linecap="butt" transform="matrix(0.127812, 0, 0, 0.127812, -10.677481, 4.087588)" fill-opacity="1" fill="#000000" fill-rule="evenodd" stroke-linejoin="round" d="M 1092.862669 1908.515663 C 1087.147505 1908.515663 1082.593711 1911.877524 1080.821094 1918.020561 C 1077.489795 1924.652597 1081.951901 1931.284632 1088.583937 1934.585368 L 2218.566593 2283.454868 L 2222.998137 2283.454868 C 2228.560489 2283.454868 2232.961471 2280.154132 2235.192524 2274.622342 C 2238.493261 2268.020869 2234.061717 2261.388834 2227.429681 2258.088098 L 1097.447025 1909.188035 C 1095.857782 1908.760162 1094.329663 1908.515663 1092.862669 1908.515663 Z M 1092.862669 1908.515663 " stroke="#000000" stroke-width="3.438" stroke-opacity="1" stroke-miterlimit="10"/><path stroke-linecap="butt" transform="matrix(0.127812, 0, 0, 0.127812, -10.677481, 4.087588)" fill-opacity="1" fill="#fdbe6b" fill-rule="evenodd" stroke-linejoin="round" d="M 517.220353 481.497293 L 332.501365 669.517019 L 341.364453 679.480352 L 401.083332 734.767687 L 1624.311792 1890.483862 L 1772.478181 1737.855366 L 1734.855899 1702.464137 L 747.232781 712.640528 L 628.895268 593.20277 L 581.370777 546.747962 L 524.952634 489.260136 Z M 517.220353 481.497293 " stroke="#000000" stroke-width="3.438" stroke-opacity="1" stroke-miterlimit="10"/><path stroke-linecap="butt" transform="matrix(0.127812, 0, 0, 0.127812, -10.677481, 4.087588)" fill-opacity="1" fill="#f3b0db" fill-rule="evenodd" stroke-linejoin="round" d="M 1770.39994 1737.51918 L 1622.539174 1888.833494 L 1847.631059 2029.053666 L 1965.69351 2101.944928 C 1969.024809 2104.328794 1972.997917 2105.490164 1976.848776 2105.490164 C 1981.952693 2105.490164 1986.842673 2103.50361 1989.990597 2099.744438 C 1993.291334 2096.443701 1995.491825 2092.042719 1994.391579 2086.51093 C 1994.391579 2082.048823 1994.391579 2078.748087 1991.06028 2074.347105 L 1914.959969 1958.393458 Z M 1770.39994 1737.51918 " stroke="#000000" stroke-width="3.438" stroke-opacity="1" stroke-miterlimit="10"/><path stroke-linecap="butt" transform="matrix(0.127812, 0, 0, 0.127812, -10.677481, 4.087588)" fill-opacity="1" fill="#f3b0db" fill-rule="evenodd" stroke-linejoin="round" d="M 727.550612 512.487541 C 713.950355 512.487541 700.136162 517.49977 689.500456 527.585353 L 627.519961 591.796901 L 745.918599 710.226101 L 787.972425 668.141712 C 793.657027 663.037795 800.77806 660.287182 807.868531 660.287182 C 814.622816 660.287182 821.315975 662.762734 826.694953 668.141712 L 1321.25529 1150.752161 C 1326.817642 1156.28395 1335.619606 1158.515004 1342.312766 1158.515004 C 1350.045047 1158.515004 1357.777327 1156.28395 1363.278555 1150.752161 C 1375.472942 1139.688581 1374.372696 1119.731351 1361.108626 1107.567526 L 763.614213 526.51567 C 753.803691 517.224709 740.78412 512.487541 727.550612 512.487541 Z M 727.550612 512.487541 " stroke="#000000" stroke-width="3.438" stroke-opacity="1" stroke-miterlimit="10"/><path stroke-linecap="butt" transform="matrix(0.127812, 0, 0, 0.127812, -10.677481, 4.087588)" fill-opacity="1" fill="#f3b0db" fill-rule="evenodd" stroke-linejoin="round" d="M 342.067388 379.510651 C 336.535598 381.711142 332.104054 381.711142 326.602826 382.811387 C 325.472019 382.811387 323.30209 383.942195 321.071037 383.942195 C 319.940229 383.942195 317.739738 386.142686 315.539247 386.142686 C 310.007457 387.273494 303.375422 389.473985 297.843632 392.774721 C 296.743387 393.905529 295.643142 393.905529 293.412088 395.005775 C 292.342405 395.005775 290.111352 396.136583 287.880299 398.337073 C 286.810615 399.467881 285.679808 399.467881 284.579562 400.568127 L 282.348509 402.768618 C 281.248263 403.868863 280.17858 403.868863 279.047772 404.969109 C 276.847281 404.969109 276.847281 404.969109 275.716474 406.099916 C 275.716474 407.200162 274.646791 407.200162 273.515983 409.431215 L 271.315492 410.500898 C 270.184684 410.500898 269.084438 411.631706 268.014755 413.832197 L 262.482966 418.294304 C 210.496367 471.442272 212.727421 555.641613 264.683457 607.689336 L 265.783702 608.789581 L 340.967142 677.463236 L 524.494199 489.168449 L 448.210513 419.394549 C 429.414653 400.568127 407.318056 388.373739 381.859599 382.811387 C 379.659108 382.811387 376.358371 381.711142 374.127318 381.711142 C 370.826582 379.510651 368.595528 379.510651 365.26423 379.510651 Z M 342.067388 379.510651 " stroke="#000000" stroke-width="3.438" stroke-opacity="1" stroke-miterlimit="10"/><path stroke-linecap="butt" transform="matrix(0.127812, 0, 0, 0.127812, -10.677481, 4.087588)" fill-opacity="1" fill="#fdbe6b" fill-rule="evenodd" stroke-linejoin="round" d="M 1917.068773 1958.485145 L 1847.539372 2029.512102 L 1965.662947 2102.73955 C 1968.902559 2104.573293 1972.539482 2105.459602 1976.115279 2105.459602 C 1981.127509 2105.459602 1986.109176 2103.748109 1989.960035 2100.508497 C 1993.291334 2097.177198 1995.491825 2092.745654 1995.491825 2089.414355 C 1995.491825 2084.982811 1995.491825 2080.551267 1993.291334 2076.08916 Z M 1917.068773 1958.485145 " stroke="#000000" stroke-width="3.438" stroke-opacity="1" stroke-miterlimit="10"/><path stroke-linecap="butt" transform="matrix(0.127812, 0, 0, 0.127812, -10.677481, 4.087588)" fill-opacity="1" fill="#fdbe6b" fill-rule="evenodd" stroke-linejoin="round" d="M 517.312041 481.497293 L 332.501365 669.333644 L 341.364453 679.266416 L 401.144457 734.492626 L 581.493026 546.686837 L 525.074884 489.260136 Z M 517.312041 481.497293 " stroke="#000000" stroke-width="3.438" stroke-opacity="1" stroke-miterlimit="10"/><path stroke-linecap="butt" transform="matrix(0.127812, 0, 0, 0.127812, -10.677481, 4.087588)" fill-opacity="1" fill="#000000" fill-rule="evenodd" stroke-linejoin="round" d="M 765.386831 858.51474 C 762.208344 858.51474 759.182669 859.890047 756.982178 862.671223 C 733.785336 887.090559 720.521266 929.297198 747.018844 961.479378 C 758.082423 974.804573 773.546985 981.497733 791.212037 981.497733 L 792.312282 981.497733 C 813.308633 981.497733 836.474913 972.604082 851.939474 955.947588 C 857.471264 950.415799 856.371018 941.522148 850.839229 937.060041 C 848.088615 934.309427 844.757316 932.903558 841.45658 932.903558 C 838.125281 932.903558 834.824545 934.309427 832.073931 937.060041 C 821.010352 948.184745 805.54579 955.947588 791.212037 955.947588 C 781.248703 955.947588 772.446739 951.516044 766.91495 942.622393 C 751.450388 923.734846 759.182669 897.084456 774.616668 880.427962 C 780.148458 874.86561 780.148458 867.133329 774.616668 862.671223 C 771.896617 859.890047 768.565318 858.51474 765.386831 858.51474 Z M 765.386831 858.51474 " stroke="#000000" stroke-width="3.438" stroke-opacity="1" stroke-miterlimit="10"/><path stroke-linecap="butt" transform="matrix(0.127812, 0, 0, 0.127812, -10.677481, 4.087588)" fill-opacity="1" fill="#000000" fill-rule="evenodd" stroke-linejoin="round" d="M 724.097064 760.501206 C 720.796327 760.501206 717.74009 761.876513 716.089722 764.627127 C 699.494352 781.100246 689.531018 809.645504 706.126388 829.41936 C 712.758423 835.99027 722.721757 841.491497 734.885582 841.491497 C 750.380705 841.491497 765.875829 834.890025 776.969971 822.817887 C 782.50176 817.347222 780.270707 808.545258 774.738917 804.144276 C 772.507864 801.943785 769.910062 800.996352 767.342823 800.996352 C 763.491964 800.996352 759.671667 803.105156 757.043303 806.344767 C 751.511513 812.94624 741.548179 817.347222 734.885582 817.347222 C 730.4846 817.347222 728.253546 814.046485 727.153301 812.94624 C 719.390458 804.144276 724.922248 790.971893 733.785336 782.200492 C 739.347688 776.699264 739.347688 769.028108 733.785336 764.627127 C 731.034722 761.876513 727.428362 760.501206 724.097064 760.501206 Z M 724.097064 760.501206 " stroke="#000000" stroke-width="3.438" stroke-opacity="1" stroke-miterlimit="10"/><path stroke-linecap="butt" transform="matrix(0.127812, 0, 0, 0.127812, -10.677481, 4.087588)" fill-opacity="1" fill="#000000" fill-rule="evenodd" stroke-linejoin="round" d="M 900.258588 929.511135 C 896.805039 929.511135 893.504303 930.886441 891.27325 933.667618 C 879.139987 944.761759 872.538514 961.418253 873.63876 975.874256 C 873.63876 986.937836 879.139987 996.962294 887.972513 1003.624892 C 894.604548 1009.126119 902.306267 1012.48798 911.138793 1012.48798 C 926.572792 1012.48798 940.937108 1003.624892 951.939562 992.500188 C 957.471352 989.168889 957.471352 980.275238 951.939562 974.712886 C 949.188949 971.962272 945.888212 970.556403 942.709725 970.556403 C 939.531238 970.556403 936.505563 971.962272 934.305072 974.712886 C 928.712158 981.161547 919.665695 985.83759 912.177914 985.83759 C 909.30505 985.83759 906.676686 985.134655 904.506758 983.606537 C 902.306267 981.406046 900.105776 980.275238 900.105776 974.712886 C 900.105776 968.080851 904.506758 958.086954 910.038547 951.424357 C 915.570337 945.862005 915.570337 936.998916 910.038547 933.667618 C 907.257371 930.886441 903.681574 929.511135 900.258588 929.511135 Z M 900.258588 929.511135 " stroke="#000000" stroke-width="3.438" stroke-opacity="1" stroke-miterlimit="10"/><g clip-path="url(#a04b8a6033)"><path fill="#000000" d="M 36.820312 54.046875 C 37.382812 54.046875 37.949219 54.324219 38.515625 54.46875 C 39.222656 54.609375 39.929688 54.753906 40.351562 55.03125 L 40.636719 55.03125 C 41.339844 55.175781 41.765625 55.601562 42.472656 55.878906 L 42.753906 55.878906 L 44.3125 57.011719 C 44.449219 57.15625 44.59375 57.15625 44.59375 57.296875 C 45.15625 57.578125 45.582031 58.003906 46.003906 58.566406 L 46.289062 58.710938 L 53.074219 65.636719 L 31.871094 87.402344 L 24.808594 80.757812 L 24.664062 80.621094 C 21.976562 77.933594 20.421875 74.824219 20.140625 71.433594 C 19.574219 66.90625 20.988281 62.242188 24.378906 58.710938 C 25.085938 58.003906 25.933594 57.296875 26.640625 56.730469 C 29.042969 55.03125 32.152344 54.046875 35.265625 54.046875 Z M 55.476562 67.898438 L 61.410156 73.835938 L 40.351562 95.460938 L 34.273438 89.667969 Z M 82.578125 71.289062 C 83.839844 71.289062 85.125 71.75 86.148438 72.703125 L 162.46875 146.914062 C 162.898438 147.195312 163.039062 147.765625 163.175781 148.328125 C 163.320312 148.890625 163.039062 149.320312 162.613281 149.742188 C 162.328125 150.023438 161.765625 150.308594 161.199219 150.308594 C 160.773438 150.308594 160.210938 150.023438 159.789062 149.742188 L 96.605469 88.113281 C 95.476562 87.121094 94.34375 86.695312 93.070312 86.695312 C 91.660156 86.695312 90.386719 87.121094 89.398438 88.25 L 85.296875 92.492188 L 72.578125 79.773438 L 78.9375 72.84375 C 79.890625 71.816406 81.222656 71.289062 82.578125 71.289062 Z M 63.8125 76.378906 L 68.480469 81.042969 C 68.480469 81.042969 68.480469 81.183594 68.621094 81.183594 L 83.886719 96.3125 C 83.886719 96.3125 84.027344 96.589844 84.167969 96.589844 L 213.636719 226.214844 L 197.097656 243.179688 L 42.894531 97.722656 Z M 215.472656 228.902344 L 232.15625 254.34375 L 225.226562 261.414062 L 199.363281 245.4375 L 208.550781 235.964844 Z M 233.988281 257.171875 L 242.472656 270.175781 C 242.75 270.460938 242.75 270.597656 242.75 270.738281 C 242.75 270.882812 242.75 271.164062 242.472656 271.308594 C 242.308594 271.472656 242.089844 271.542969 241.882812 271.542969 C 241.738281 271.542969 241.597656 271.507812 241.480469 271.449219 L 228.195312 263.109375 Z M 33.144531 50.933594 C 32.863281 50.933594 32.4375 50.933594 32.152344 51.074219 C 31.730469 51.074219 31.445312 51.359375 31.023438 51.359375 C 30.742188 51.359375 30.316406 51.5 30.035156 51.5 C 29.613281 51.5 29.328125 51.644531 28.902344 51.78125 C 28.335938 52.066406 27.632812 52.207031 27.210938 52.492188 C 26.925781 52.773438 26.640625 52.773438 26.5 52.914062 C 26.078125 53.054688 25.511719 53.199219 25.230469 53.621094 C 24.945312 53.761719 24.664062 53.902344 24.523438 53.902344 C 24.097656 54.324219 23.675781 54.46875 23.25 54.753906 C 23.109375 55.03125 22.828125 55.03125 22.683594 55.175781 C 22.261719 55.742188 21.695312 56.023438 21.128906 56.589844 C 17.03125 60.828125 15.335938 66.34375 16.039062 71.710938 C 16.609375 75.953125 18.300781 80.050781 21.550781 83.023438 L 194.695312 246.710938 L 195.121094 247.277344 L 223.957031 265.085938 L 230.175781 269.046875 L 238.9375 274.417969 C 239.644531 274.839844 240.347656 274.980469 241.058594 274.980469 C 242.1875 274.980469 243.457031 274.699219 244.167969 273.710938 C 244.308594 273.570312 244.449219 273.425781 244.449219 273.289062 C 245.582031 273.003906 245.582031 273.003906 245.582031 272.863281 C 245.859375 272.296875 246.003906 271.871094 246.003906 271.164062 C 246.285156 270.175781 246.003906 269.328125 245.296875 268.335938 L 217.027344 225.222656 L 216.605469 224.660156 L 86.996094 94.894531 L 91.09375 90.652344 C 91.515625 90.375 91.941406 90.230469 92.363281 90.230469 C 92.933594 90.230469 93.210938 90.375 93.640625 90.652344 L 156.816406 152.425781 C 157.949219 153.417969 159.078125 153.980469 160.488281 153.980469 C 161.90625 153.980469 163.320312 153.417969 164.445312 152.425781 C 165.4375 151.296875 166.003906 149.882812 166.003906 148.46875 C 166.003906 147.058594 165.4375 145.640625 164.445312 144.792969 L 88.128906 70.585938 C 86.449219 68.976562 84.285156 68.160156 82.136719 68.160156 C 79.9375 68.160156 77.753906 69.007812 76.109375 70.726562 L 69.328125 77.648438 L 48.125 56.449219 L 47.984375 56.164062 C 47.421875 55.742188 46.996094 55.175781 46.289062 54.753906 C 46.003906 54.609375 45.867188 54.609375 45.722656 54.46875 C 45.15625 53.902344 44.449219 53.621094 43.742188 53.199219 L 43.601562 53.199219 C 42.894531 52.914062 42.1875 52.492188 41.339844 52.207031 C 41.0625 52.207031 41.0625 52.207031 40.917969 51.921875 C 40.207031 51.644531 39.363281 51.5 38.65625 51.21875 C 37.949219 51.074219 37.101562 50.933594 36.394531 50.933594 Z M 33.144531 50.933594 " fill-opacity="1" fill-rule="evenodd"/></g><g clip-path="url(#8444462be7)"><path stroke-linecap="butt" transform="matrix(0.127812, 0, 0, 0.127812, -10.677481, 4.087588)" fill="none" stroke-linejoin="round" d="M 371.621203 390.879854 C 376.022185 390.879854 380.45373 393.049783 384.885274 394.180591 C 390.417064 395.280836 395.948853 396.411644 399.24959 398.581572 L 401.480643 398.581572 C 406.98187 399.71238 410.313169 403.043679 415.844959 405.213608 L 418.04545 405.213608 L 430.239837 414.076696 C 431.30952 415.207504 432.440328 415.207504 432.440328 416.307749 C 436.84131 418.50824 440.172608 421.839539 443.473345 426.240521 L 445.704398 427.371329 L 498.791242 481.558418 L 332.898676 651.851966 L 277.641903 599.865368 L 276.511095 598.795685 C 255.484182 577.768772 243.320357 553.441122 241.119866 526.912981 C 236.688322 491.49119 247.751901 454.999715 274.280042 427.371329 C 279.811832 421.839539 286.443867 416.307749 291.975657 411.876205 C 310.771517 398.581572 335.099166 390.879854 359.457379 390.879854 Z M 517.587102 499.254033 L 564.011348 545.708841 L 399.24959 714.902144 L 351.694536 669.578143 Z M 729.628853 525.782173 C 739.5005 525.782173 749.555521 529.388533 757.562863 536.845753 L 1354.690528 1117.469735 C 1358.052389 1119.670226 1359.152634 1124.132333 1360.222317 1128.533315 C 1361.353125 1132.934296 1359.152634 1136.296158 1355.821335 1139.596894 C 1353.590282 1141.797385 1349.1893 1144.028438 1344.757756 1144.028438 C 1341.426457 1144.028438 1337.025475 1141.797385 1333.724739 1139.596894 L 839.378338 657.414318 C 830.545812 649.651475 821.682724 646.320177 811.71939 646.320177 C 800.686373 646.320177 790.723039 649.651475 782.990758 658.484001 L 750.900266 691.67474 L 651.389176 592.16365 L 701.144721 537.945998 C 708.60194 529.908094 719.023709 525.782173 729.628853 525.782173 Z M 582.807208 565.604947 L 619.329245 602.096421 C 619.329245 602.096421 619.329245 603.196667 620.429491 603.196667 L 739.867249 721.564742 C 739.867249 721.564742 740.967494 723.73467 742.067739 723.73467 L 1755.027065 1737.916491 L 1625.625974 1870.648882 L 419.145695 732.597759 Z M 1769.391381 1758.943404 L 1899.923281 1957.996147 L 1845.705629 2013.314044 L 1643.352151 1888.313934 L 1715.234854 1814.200177 Z M 1914.257034 1980.123305 L 1980.638511 2081.865449 C 1982.808439 2084.096502 1982.808439 2085.166185 1982.808439 2086.266431 C 1982.808439 2087.397238 1982.808439 2089.597729 1980.638511 2090.728537 C 1979.354891 2092.012157 1977.643398 2092.56228 1976.023592 2092.56228 C 1974.892784 2092.56228 1973.792539 2092.287218 1972.875668 2091.828783 L 1868.933034 2026.578114 Z M 342.862009 366.521642 C 340.661519 366.521642 337.33022 366.521642 335.099166 367.621888 C 331.79843 367.621888 329.567377 369.852941 326.26664 369.852941 C 324.066149 369.852941 320.734851 370.953186 318.53436 370.953186 C 315.233623 370.953186 313.00257 372.083994 309.671271 373.153677 C 305.239727 375.384731 299.7385 376.484976 296.437763 378.716029 C 294.20671 380.91652 291.975657 380.91652 290.875411 382.016766 C 287.574675 383.117011 283.143131 384.247819 280.94264 387.548555 C 278.711586 388.648801 276.511095 389.749046 275.41085 389.749046 C 272.079551 393.049783 268.778815 394.180591 265.447516 396.411644 C 264.34727 398.581572 262.14678 398.581572 261.015972 399.71238 C 257.715235 404.143925 253.283691 406.344415 248.852147 410.77596 C 216.792216 443.936136 203.528146 487.090208 209.029373 529.08291 C 213.49148 562.273648 226.724988 594.333578 252.152883 617.591545 L 1606.830114 1898.277268 L 1610.161412 1902.708812 L 1835.772858 2042.042675 L 1884.428157 2073.032923 L 1952.979562 2115.056187 C 1958.511352 2118.356923 1964.012579 2119.457169 1969.574931 2119.457169 C 1978.407457 2119.457169 1988.340229 2117.256678 1993.902581 2109.524397 C 1995.002827 2108.424152 1996.103072 2107.293344 1996.103072 2106.223661 C 2004.966161 2103.992608 2004.966161 2103.992608 2004.966161 2102.892362 C 2007.136089 2098.460818 2008.266897 2095.129519 2008.266897 2089.597729 C 2010.467388 2081.865449 2008.266897 2075.233414 2002.735107 2067.470571 L 1781.555206 1730.153648 L 1778.25447 1725.752666 L 764.194898 710.4706 L 796.254829 677.279862 C 799.555565 675.109933 802.886864 673.979125 806.1876 673.979125 C 810.649707 673.979125 812.819635 675.109933 816.181497 677.279862 L 1310.466772 1160.593245 C 1319.329861 1168.356088 1328.162387 1172.75707 1339.195404 1172.75707 C 1350.289546 1172.75707 1361.353125 1168.356088 1370.155089 1160.593245 C 1377.917932 1151.760719 1382.349476 1140.697139 1382.349476 1129.63356 C 1382.349476 1118.600543 1377.917932 1107.506401 1370.155089 1100.874366 L 773.057987 520.280946 C 759.916166 507.689248 742.984611 501.301712 726.175305 501.301712 C 708.968688 501.301712 691.884321 507.933747 679.017562 521.381191 L 625.96128 575.537718 L 460.068714 409.675714 L 458.968469 407.444661 C 454.567487 404.143925 451.236188 399.71238 445.704398 396.411644 C 443.473345 395.280836 442.403662 395.280836 441.272854 394.180591 C 436.84131 389.749046 431.30952 387.548555 425.77773 384.247819 L 424.677485 384.247819 C 419.145695 382.016766 413.613905 378.716029 406.98187 376.484976 C 404.811942 376.484976 404.811942 376.484976 403.681134 374.253923 C 398.118782 372.083994 391.517309 370.953186 385.985519 368.752695 C 380.45373 367.621888 373.821694 366.521642 368.289905 366.521642 Z M 342.862009 366.521642 " stroke="#000000" stroke-width="3.438" stroke-opacity="1" stroke-miterlimit="10"/></g></svg>