<svg xmlns="http://www.w3.org/2000/svg" xmlns:xlink="http://www.w3.org/1999/xlink" width="500" zoomAndPan="magnify" viewBox="0 0 375 374.999991" height="500" preserveAspectRatio="xMidYMid meet" version="1.0"><path fill="#f3d55b" d="M 182.785156 73.707031 L 182.84375 73.707031 L 287.175781 45.722656 C 293.332031 44.101562 299.636719 47.753906 301.285156 53.898438 L 316.140625 109.40625 L 322.878906 134.570312 L 322.878906 134.628906 L 354.546875 252.667969 C 356.195312 258.804688 352.5625 265.117188 346.425781 266.773438 L 282.917969 283.761719 Z M 182.785156 73.707031 " fill-opacity="1" fill-rule="nonzero"/><path fill="#f9eab0" d="M 85.929688 51.710938 C 88.640625 49.894531 92.003906 49.347656 95.144531 50.214844 L 317.636719 109.8125 C 323.773438 111.46875 327.40625 117.78125 325.757812 123.917969 L 266.160156 346.410156 C 264.503906 352.546875 258.191406 356.179688 252.050781 354.53125 L 29.558594 294.933594 C 23.425781 293.277344 19.789062 286.964844 21.441406 280.824219 L 69.351562 101.980469 Z M 85.929688 51.710938 " fill-opacity="1" fill-rule="nonzero"/><path fill="#802f34" d="M 281.386719 150.578125 C 280.882812 150.578125 280.382812 150.511719 279.894531 150.382812 L 197.988281 128.460938 C 194.917969 127.640625 193.097656 124.480469 193.921875 121.410156 C 194.742188 118.335938 197.898438 116.515625 200.972656 117.335938 L 282.875 139.285156 C 285.667969 140.03125 287.472656 142.734375 287.097656 145.597656 C 286.722656 148.460938 284.28125 150.605469 281.390625 150.605469 Z M 281.386719 150.578125 " fill-opacity="1" fill-rule="nonzero"/><path fill="#802f34" d="M 272.4375 183.976562 C 271.933594 183.976562 271.433594 183.910156 270.945312 183.78125 L 215.265625 168.882812 C 213.269531 168.359375 211.703125 166.808594 211.167969 164.816406 C 210.628906 162.820312 211.199219 160.695312 212.660156 159.238281 C 214.121094 157.78125 216.25 157.214844 218.238281 157.757812 L 273.921875 172.65625 C 276.714844 173.402344 278.519531 176.101562 278.144531 178.964844 C 277.765625 181.832031 275.328125 183.972656 272.4375 183.976562 Z M 272.4375 183.976562 " fill-opacity="1" fill-rule="nonzero"/><path fill="#802f34" d="M 263.519531 217.375 C 263.011719 217.375 262.511719 217.308594 262.019531 217.175781 L 192.753906 198.585938 C 189.679688 197.757812 187.859375 194.597656 188.683594 191.527344 C 189.507812 188.457031 192.667969 186.632812 195.738281 187.460938 L 265.007812 206.050781 C 267.800781 206.800781 269.605469 209.5 269.230469 212.367188 C 268.851562 215.234375 266.410156 217.375 263.519531 217.375 Z M 263.519531 217.375 " fill-opacity="1" fill-rule="nonzero"/><path fill="#802f34" d="M 93.265625 207.503906 C 92.761719 207.503906 92.257812 207.4375 91.769531 207.308594 L 75.074219 202.835938 C 72.003906 202.007812 70.179688 198.847656 71.007812 195.777344 C 71.828125 192.707031 74.988281 190.882812 78.0625 191.710938 L 94.757812 196.179688 C 97.550781 196.929688 99.355469 199.632812 98.980469 202.496094 C 98.601562 205.363281 96.15625 207.503906 93.265625 207.503906 Z M 93.265625 207.503906 " fill-opacity="1" fill-rule="nonzero"/><path fill="#802f34" d="M 254.558594 250.71875 C 254.054688 250.71875 253.554688 250.652344 253.066406 250.519531 L 125.144531 216.222656 C 122.070312 215.398438 120.25 212.238281 121.074219 209.167969 C 121.894531 206.09375 125.054688 204.269531 128.128906 205.097656 L 256.050781 239.367188 C 258.839844 240.117188 260.648438 242.816406 260.269531 245.683594 C 259.894531 248.542969 257.453125 250.6875 254.566406 250.6875 Z M 254.558594 250.71875 " fill-opacity="1" fill-rule="nonzero"/><path fill="#802f34" d="M 84.320312 240.871094 C 83.816406 240.875 83.3125 240.808594 82.828125 240.675781 L 66.132812 236.207031 C 63.058594 235.386719 61.238281 232.226562 62.058594 229.152344 C 62.882812 226.082031 66.042969 224.257812 69.113281 225.082031 L 85.808594 229.550781 C 88.601562 230.300781 90.40625 233 90.03125 235.867188 C 89.652344 238.730469 87.210938 240.875 84.320312 240.871094 Z M 84.320312 240.871094 " fill-opacity="1" fill-rule="nonzero"/><path fill="#802f34" d="M 245.621094 284.089844 C 245.117188 284.089844 244.617188 284.023438 244.128906 283.894531 L 116.199219 249.617188 C 114.214844 249.082031 112.660156 247.53125 112.128906 245.546875 C 111.597656 243.558594 112.167969 241.4375 113.621094 239.984375 C 115.078125 238.53125 117.199219 237.960938 119.183594 238.492188 L 247.105469 272.769531 C 249.898438 273.515625 251.703125 276.21875 251.328125 279.082031 C 250.953125 281.945312 248.511719 284.089844 245.621094 284.089844 Z M 245.621094 284.089844 " fill-opacity="1" fill-rule="nonzero"/><path fill="#bdc3c7" d="M 187.792969 195.148438 L 149.847656 182.476562 L 182.441406 149.886719 L 195.105469 187.832031 C 195.785156 189.90625 195.238281 192.191406 193.695312 193.734375 C 192.152344 195.277344 189.871094 195.824219 187.792969 195.148438 Z M 187.792969 195.148438 " fill-opacity="1" fill-rule="nonzero"/><path fill="#fb7b76" d="M 76.605469 44.050781 L 44.011719 76.644531 L 27.71875 60.347656 C 18.71875 51.347656 18.71875 36.757812 27.71875 27.757812 C 36.71875 18.753906 51.308594 18.753906 60.308594 27.757812 Z M 76.605469 44.050781 " fill-opacity="1" fill-rule="nonzero"/><path fill="#e64c3c" d="M 182.441406 149.886719 L 170.230469 162.09375 L 170.230469 162.152344 L 162.113281 170.269531 L 162.054688 170.269531 L 149.847656 182.476562 L 60.308594 92.9375 L 72.574219 80.730469 L 80.691406 72.613281 L 92.898438 60.347656 Z M 182.441406 149.886719 " fill-opacity="1" fill-rule="nonzero"/><path fill="#bdc3c7" d="M 44.015625 76.644531 L 76.605469 44.050781 L 92.898438 60.351562 L 60.3125 92.9375 Z M 44.015625 76.644531 " fill-opacity="1" fill-rule="nonzero"/><path fill="#c03a2b" d="M 101.015625 101.058594 C 99.921875 102.125 98.457031 102.722656 96.929688 102.730469 C 95.417969 102.722656 93.972656 102.121094 92.898438 101.058594 L 72.574219 80.730469 L 80.691406 72.613281 L 101.015625 92.9375 C 103.25 95.1875 103.25 98.8125 101.015625 101.058594 Z M 101.015625 101.058594 " fill-opacity="1" fill-rule="nonzero"/><path fill="#c03a2b" d="M 170.230469 162.09375 L 170.230469 162.152344 L 162.113281 170.269531 L 162.054688 170.269531 L 109.136719 117.355469 C 107.675781 115.894531 107.105469 113.765625 107.640625 111.769531 C 108.175781 109.773438 109.734375 108.214844 111.730469 107.683594 C 113.722656 107.148438 115.851562 107.71875 117.316406 109.179688 Z M 170.230469 162.09375 " fill-opacity="1" fill-rule="nonzero"/></svg>