<svg xmlns="http://www.w3.org/2000/svg" xmlns:xlink="http://www.w3.org/1999/xlink" width="500" zoomAndPan="magnify" viewBox="0 0 375 374.999991" height="500" preserveAspectRatio="xMidYMid meet" version="1.0"><defs><clipPath id="f1b117d281"><path d="M 204 20 L 361.722656 20 L 361.722656 364 L 204 364 Z M 204 20 " clip-rule="nonzero"/></clipPath><clipPath id="8449edeea1"><path d="M 20.472656 19 L 178 19 L 178 232 L 20.472656 232 Z M 20.472656 19 " clip-rule="nonzero"/></clipPath><clipPath id="6e3c9d2c52"><path d="M 20.472656 257 L 179 257 L 179 364 L 20.472656 364 Z M 20.472656 257 " clip-rule="nonzero"/></clipPath></defs><g clip-path="url(#f1b117d281)"><path fill="#000000" d="M 361.722656 59.691406 C 361.722656 37.839844 344.015625 20.125 322.175781 20.125 L 244.457031 20.125 C 222.613281 20.125 204.910156 37.839844 204.910156 59.691406 C 204.910156 119.300781 204.910156 263.847656 204.910156 323.460938 C 204.910156 345.3125 222.613281 363.023438 244.457031 363.023438 L 322.175781 363.023438 C 344.015625 363.023438 361.722656 345.3125 361.722656 323.460938 Z M 335.355469 59.691406 L 335.355469 323.460938 C 335.355469 330.742188 329.457031 336.648438 322.175781 336.648438 C 322.175781 336.648438 244.457031 336.648438 244.457031 336.648438 C 237.175781 336.648438 231.273438 330.742188 231.273438 323.460938 L 231.273438 59.691406 C 231.273438 52.40625 237.175781 46.503906 244.457031 46.503906 C 244.457031 46.503906 322.175781 46.503906 322.175781 46.503906 C 329.457031 46.503906 335.355469 52.40625 335.355469 59.691406 Z M 335.355469 59.691406 " fill-opacity="1" fill-rule="evenodd"/></g><g clip-path="url(#8449edeea1)"><path fill="#000000" d="M 177.175781 191.574219 L 177.175781 58.839844 C 177.175781 36.988281 159.472656 19.277344 137.628906 19.277344 L 59.910156 19.277344 C 38.070312 19.277344 20.367188 36.988281 20.367188 58.839844 L 20.367188 191.574219 C 20.367188 213.425781 38.070312 231.140625 59.910156 231.140625 L 137.628906 231.140625 C 159.472656 231.140625 177.175781 213.425781 177.175781 191.574219 Z M 150.8125 58.839844 L 150.8125 191.574219 C 150.8125 198.859375 144.910156 204.761719 137.628906 204.761719 C 137.628906 204.761719 59.910156 204.761719 59.910156 204.761719 C 52.628906 204.761719 46.730469 198.859375 46.730469 191.574219 C 46.730469 191.574219 46.730469 58.84375 46.730469 58.84375 C 46.730469 51.558594 52.628906 45.652344 59.910156 45.652344 C 59.910156 45.652344 137.628906 45.652344 137.628906 45.652344 C 144.910156 45.652344 150.8125 51.558594 150.8125 58.839844 Z M 150.8125 58.839844 " fill-opacity="1" fill-rule="evenodd"/></g><g clip-path="url(#6e3c9d2c52)"><path fill="#000000" d="M 178.933594 323.460938 L 178.933594 297.082031 C 178.933594 275.230469 161.230469 257.515625 139.390625 257.515625 C 116.320312 257.515625 82.980469 257.515625 59.910156 257.515625 C 38.070312 257.515625 20.367188 275.230469 20.367188 297.082031 L 20.367188 323.460938 C 20.367188 345.3125 38.070312 363.023438 59.910156 363.023438 C 82.980469 363.023438 116.320312 363.023438 139.390625 363.023438 C 161.230469 363.023438 178.933594 345.3125 178.933594 323.460938 Z M 152.570312 297.082031 L 152.570312 323.460938 C 152.570312 330.742188 146.671875 336.648438 139.390625 336.648438 C 116.320312 336.648438 82.980469 336.648438 59.910156 336.648438 C 52.628906 336.648438 46.730469 330.742188 46.730469 323.460938 C 46.730469 323.460938 46.730469 297.082031 46.730469 297.082031 C 46.730469 289.796875 52.628906 283.894531 59.910156 283.894531 C 82.980469 283.894531 116.320312 283.894531 139.390625 283.894531 C 146.671875 283.894531 152.570312 289.796875 152.570312 297.082031 Z M 152.570312 297.082031 " fill-opacity="1" fill-rule="evenodd"/></g></svg>