<svg xmlns="http://www.w3.org/2000/svg" xmlns:xlink="http://www.w3.org/1999/xlink" width="500" zoomAndPan="magnify" viewBox="0 0 375 374.999991" height="500" preserveAspectRatio="xMidYMid meet" version="1.0"><defs><g/><clipPath id="5fdd5cbeb0"><path d="M 31.425781 117 L 343.425781 117 L 343.425781 313.5 L 31.425781 313.5 Z M 31.425781 117 " clip-rule="nonzero"/></clipPath><clipPath id="c10a2b8125"><path d="M 31.425781 117 L 336 117 L 336 254 L 31.425781 254 Z M 31.425781 117 " clip-rule="nonzero"/></clipPath><clipPath id="4791c1bd50"><path d="M 202 37.5 L 343 37.5 L 343 178 L 202 178 Z M 202 37.5 " clip-rule="nonzero"/></clipPath><clipPath id="b32e922245"><path d="M 202 37.5 L 295 37.5 L 295 178 L 202 178 Z M 202 37.5 " clip-rule="nonzero"/></clipPath></defs><path fill="#fdb4ba" d="M 229.070312 310.1875 C 222.09375 310.1875 216.4375 304.53125 216.4375 297.558594 L 216.4375 245.425781 L 276.828125 245.425781 L 276.828125 310.1875 Z M 229.070312 310.1875 " fill-opacity="1" fill-rule="nonzero"/><path fill="#fdb4ba" d="M 191.101562 299.085938 C 191.101562 306.058594 185.445312 311.714844 178.46875 311.714844 L 145.429688 311.714844 L 145.429688 251.425781 L 191.101562 251.425781 Z M 191.101562 299.085938 " fill-opacity="1" fill-rule="nonzero"/><path fill="#ffc4c8" d="M 116.195312 122.410156 L 87.714844 108.042969 C 85.585938 106.964844 83.078125 108.570312 83.167969 110.957031 L 84.363281 143.296875 L 86.207031 165.035156 L 131.5625 128.214844 Z M 116.195312 122.410156 " fill-opacity="1" fill-rule="nonzero"/><g clip-path="url(#5fdd5cbeb0)"><path fill="#ffc4c8" d="M 31.425781 208.097656 C 31.425781 203.253906 35.359375 199.324219 40.203125 199.324219 L 60.511719 199.324219 C 62.234375 153.601562 99.851562 117.066406 146.015625 117.066406 L 257.847656 117.066406 C 305.109375 117.066406 343.421875 155.363281 343.421875 202.597656 L 343.421875 202.601562 C 343.421875 225.789062 334.179688 246.820312 319.1875 262.230469 L 319.1875 300.710938 C 319.1875 307.6875 313.527344 313.335938 306.554688 313.335938 L 273.515625 313.335938 C 266.539062 313.335938 260.882812 307.6875 260.882812 300.710938 L 260.882812 291.101562 C 260.882812 289.449219 259.53125 288.132812 257.878906 288.132812 C 257.867188 288.132812 257.855469 288.132812 257.847656 288.132812 L 164.921875 288.132812 C 163.28125 288.132812 161.949219 289.460938 161.949219 291.101562 L 161.949219 299.082031 C 161.949219 306.058594 156.289062 311.710938 149.316406 311.710938 L 116.28125 311.710938 C 109.300781 311.710938 103.644531 306.058594 103.644531 299.082031 L 103.644531 276.914062 C 93.316406 271.019531 84.335938 263.042969 77.28125 253.546875 L 40.203125 253.546875 C 35.359375 253.546875 31.425781 249.617188 31.425781 244.769531 Z M 31.425781 208.097656 " fill-opacity="1" fill-rule="nonzero"/></g><g clip-path="url(#c10a2b8125)"><path fill="#fdb4ba" d="M 257.847656 117.066406 L 146.015625 117.066406 C 99.851562 117.066406 62.234375 153.601562 60.511719 199.324219 L 40.203125 199.324219 C 35.355469 199.324219 31.425781 203.25 31.425781 208.097656 L 31.425781 244.769531 C 31.425781 249.617188 35.355469 253.546875 40.203125 253.546875 L 60.441406 253.546875 L 60.441406 246.371094 C 60.441406 237.078125 67.976562 229.542969 77.277344 229.542969 L 77.527344 229.542969 C 84.078125 229.542969 89.585938 224.777344 90.691406 218.320312 C 97.578125 177.988281 132.714844 147.289062 175.03125 147.289062 L 182.089844 147.289062 C 190.472656 147.289062 198.324219 151.320312 203.257812 158.09375 C 218.878906 179.546875 244.1875 193.515625 272.703125 193.515625 C 297.390625 193.515625 319.683594 183.039062 335.359375 166.308594 C 321.699219 137.214844 292.125 117.066406 257.847656 117.066406 Z M 257.847656 117.066406 " fill-opacity="1" fill-rule="nonzero"/></g><g clip-path="url(#4791c1bd50)"><path fill="#fee45a" d="M 342.777344 107.699219 C 342.777344 108.847656 342.75 109.992188 342.695312 111.136719 C 342.636719 112.28125 342.554688 113.425781 342.441406 114.566406 C 342.328125 115.707031 342.1875 116.84375 342.019531 117.976562 C 341.851562 119.113281 341.65625 120.242188 341.429688 121.367188 C 341.207031 122.488281 340.957031 123.609375 340.675781 124.71875 C 340.398438 125.832031 340.09375 126.9375 339.761719 128.035156 C 339.425781 129.128906 339.066406 130.21875 338.679688 131.296875 C 338.296875 132.378906 337.882812 133.445312 337.445312 134.503906 C 337.003906 135.566406 336.539062 136.613281 336.050781 137.648438 C 335.558594 138.683594 335.042969 139.707031 334.503906 140.71875 C 333.960938 141.730469 333.398438 142.726562 332.808594 143.710938 C 332.21875 144.695312 331.605469 145.664062 330.96875 146.617188 C 330.332031 147.570312 329.671875 148.503906 328.988281 149.425781 C 328.304688 150.347656 327.597656 151.25 326.871094 152.136719 C 326.144531 153.023438 325.394531 153.890625 324.625 154.738281 C 323.855469 155.589844 323.0625 156.417969 322.253906 157.230469 C 321.441406 158.039062 320.613281 158.832031 319.761719 159.601562 C 318.914062 160.371094 318.042969 161.117188 317.15625 161.847656 C 316.269531 162.574219 315.367188 163.277344 314.445312 163.960938 C 313.523438 164.644531 312.585938 165.304688 311.632812 165.941406 C 310.679688 166.578125 309.710938 167.191406 308.726562 167.78125 C 307.746094 168.371094 306.746094 168.933594 305.734375 169.476562 C 304.722656 170.015625 303.699219 170.53125 302.664062 171.019531 C 301.625 171.511719 300.578125 171.976562 299.519531 172.414062 C 298.460938 172.851562 297.390625 173.265625 296.308594 173.652344 C 295.230469 174.039062 294.140625 174.398438 293.042969 174.730469 C 291.945312 175.0625 290.839844 175.367188 289.730469 175.644531 C 288.617188 175.925781 287.496094 176.175781 286.375 176.398438 C 285.25 176.625 284.117188 176.820312 282.984375 176.988281 C 281.851562 177.15625 280.710938 177.296875 279.570312 177.410156 C 278.429688 177.519531 277.285156 177.605469 276.140625 177.660156 C 274.996094 177.71875 273.847656 177.746094 272.703125 177.746094 C 271.554688 177.746094 270.410156 177.71875 269.265625 177.660156 C 268.117188 177.605469 266.976562 177.519531 265.832031 177.410156 C 264.691406 177.296875 263.554688 177.15625 262.417969 176.988281 C 261.285156 176.820312 260.15625 176.625 259.03125 176.398438 C 257.90625 176.175781 256.789062 175.925781 255.675781 175.644531 C 254.5625 175.367188 253.457031 175.0625 252.359375 174.730469 C 251.261719 174.398438 250.175781 174.039062 249.09375 173.652344 C 248.015625 173.265625 246.945312 172.851562 245.886719 172.414062 C 244.824219 171.976562 243.777344 171.511719 242.742188 171.019531 C 241.703125 170.53125 240.679688 170.015625 239.667969 169.476562 C 238.65625 168.933594 237.660156 168.371094 236.675781 167.78125 C 235.691406 167.191406 234.722656 166.578125 233.769531 165.941406 C 232.816406 165.304688 231.878906 164.644531 230.957031 163.960938 C 230.035156 163.277344 229.132812 162.574219 228.246094 161.847656 C 227.359375 161.117188 226.492188 160.371094 225.640625 159.601562 C 224.792969 158.832031 223.960938 158.039062 223.152344 157.230469 C 222.339844 156.417969 221.550781 155.589844 220.78125 154.738281 C 220.007812 153.890625 219.261719 153.023438 218.53125 152.136719 C 217.804688 151.25 217.101562 150.347656 216.417969 149.425781 C 215.734375 148.503906 215.074219 147.570312 214.4375 146.617188 C 213.800781 145.664062 213.1875 144.695312 212.597656 143.710938 C 212.007812 142.726562 211.441406 141.730469 210.902344 140.71875 C 210.359375 139.707031 209.84375 138.683594 209.355469 137.648438 C 208.863281 136.613281 208.398438 135.566406 207.960938 134.503906 C 207.523438 133.445312 207.109375 132.378906 206.722656 131.296875 C 206.335938 130.21875 205.976562 129.128906 205.644531 128.035156 C 205.3125 126.9375 205.003906 125.832031 204.726562 124.71875 C 204.449219 123.609375 204.195312 122.488281 203.972656 121.367188 C 203.75 120.242188 203.554688 119.113281 203.386719 117.976562 C 203.214844 116.84375 203.078125 115.707031 202.964844 114.566406 C 202.851562 113.425781 202.765625 112.28125 202.710938 111.136719 C 202.65625 109.992188 202.625 108.847656 202.625 107.699219 C 202.625 106.554688 202.65625 105.410156 202.710938 104.265625 C 202.765625 103.117188 202.851562 101.976562 202.964844 100.835938 C 203.078125 99.695312 203.214844 98.558594 203.386719 97.421875 C 203.554688 96.289062 203.75 95.160156 203.972656 94.035156 C 204.195312 92.910156 204.449219 91.792969 204.726562 90.679688 C 205.003906 89.570312 205.3125 88.464844 205.644531 87.367188 C 205.976562 86.269531 206.335938 85.183594 206.722656 84.101562 C 207.109375 83.023438 207.523438 81.953125 207.960938 80.894531 C 208.398438 79.835938 208.863281 78.789062 209.355469 77.753906 C 209.84375 76.714844 210.359375 75.691406 210.902344 74.683594 C 211.441406 73.671875 212.007812 72.671875 212.597656 71.691406 C 213.1875 70.707031 213.800781 69.738281 214.4375 68.785156 C 215.074219 67.832031 215.734375 66.894531 216.417969 65.976562 C 217.101562 65.054688 217.804688 64.152344 218.53125 63.265625 C 219.261719 62.378906 220.007812 61.511719 220.78125 60.660156 C 221.550781 59.8125 222.339844 58.980469 223.152344 58.171875 C 223.960938 57.359375 224.792969 56.570312 225.640625 55.800781 C 226.492188 55.03125 227.359375 54.28125 228.246094 53.554688 C 229.132812 52.828125 230.035156 52.125 230.957031 51.441406 C 231.878906 50.757812 232.816406 50.097656 233.769531 49.460938 C 234.722656 48.824219 235.691406 48.210938 236.675781 47.621094 C 237.660156 47.03125 238.65625 46.46875 239.667969 45.925781 C 240.679688 45.386719 241.703125 44.871094 242.742188 44.382812 C 243.777344 43.890625 244.824219 43.425781 245.886719 42.988281 C 246.945312 42.550781 248.015625 42.136719 249.09375 41.75 C 250.175781 41.363281 251.261719 41.003906 252.359375 40.671875 C 253.457031 40.339844 254.5625 40.035156 255.675781 39.753906 C 256.789062 39.476562 257.90625 39.226562 259.03125 39 C 260.15625 38.777344 261.285156 38.582031 262.417969 38.414062 C 263.554688 38.246094 264.691406 38.105469 265.832031 37.992188 C 266.976562 37.882812 268.117188 37.796875 269.261719 37.742188 C 270.410156 37.683594 271.554688 37.65625 272.703125 37.65625 C 273.847656 37.65625 274.996094 37.683594 276.140625 37.742188 C 277.285156 37.796875 278.429688 37.882812 279.570312 37.992188 C 280.710938 38.105469 281.851562 38.246094 282.984375 38.414062 C 284.117188 38.582031 285.25 38.777344 286.375 39 C 287.496094 39.226562 288.617188 39.476562 289.730469 39.753906 C 290.839844 40.035156 291.945312 40.339844 293.042969 40.671875 C 294.140625 41.003906 295.230469 41.363281 296.308594 41.75 C 297.390625 42.136719 298.460938 42.550781 299.519531 42.988281 C 300.578125 43.425781 301.625 43.890625 302.664062 44.382812 C 303.699219 44.871094 304.722656 45.386719 305.734375 45.925781 C 306.746094 46.46875 307.746094 47.03125 308.726562 47.621094 C 309.710938 48.210938 310.679688 48.824219 311.632812 49.460938 C 312.585938 50.097656 313.523438 50.757812 314.445312 51.441406 C 315.367188 52.125 316.269531 52.828125 317.15625 53.554688 C 318.042969 54.28125 318.914062 55.03125 319.761719 55.800781 C 320.613281 56.570312 321.441406 57.359375 322.253906 58.171875 C 323.0625 58.980469 323.855469 59.8125 324.625 60.660156 C 325.394531 61.511719 326.144531 62.378906 326.871094 63.265625 C 327.597656 64.152344 328.304688 65.054688 328.988281 65.976562 C 329.671875 66.894531 330.332031 67.832031 330.96875 68.785156 C 331.605469 69.738281 332.21875 70.707031 332.808594 71.691406 C 333.398438 72.671875 333.960938 73.671875 334.503906 74.683594 C 335.042969 75.691406 335.558594 76.714844 336.050781 77.753906 C 336.539062 78.789062 337.003906 79.835938 337.445312 80.894531 C 337.882812 81.953125 338.296875 83.023438 338.679688 84.101562 C 339.066406 85.183594 339.425781 86.269531 339.761719 87.367188 C 340.09375 88.464844 340.398438 89.570312 340.675781 90.679688 C 340.957031 91.792969 341.207031 92.910156 341.429688 94.035156 C 341.65625 95.160156 341.851562 96.289062 342.019531 97.421875 C 342.1875 98.558594 342.328125 99.695312 342.441406 100.835938 C 342.554688 101.976562 342.636719 103.117188 342.695312 104.265625 C 342.75 105.410156 342.777344 106.554688 342.777344 107.699219 Z M 342.777344 107.699219 " fill-opacity="1" fill-rule="nonzero"/></g><g clip-path="url(#b32e922245)"><path fill="#fedf30" d="M 246.632812 107.699219 C 246.632812 76.699219 266.789062 50.402344 294.710938 41.179688 C 287.792969 38.894531 280.390625 37.65625 272.703125 37.65625 C 234 37.65625 202.625 69.015625 202.625 107.699219 C 202.625 146.386719 234 177.746094 272.703125 177.746094 C 280.390625 177.746094 287.792969 176.503906 294.710938 174.21875 C 266.789062 164.996094 246.632812 138.703125 246.632812 107.699219 Z M 246.632812 107.699219 " fill-opacity="1" fill-rule="nonzero"/></g><path fill="#fef0ae" d="M 323.847656 107.699219 C 323.847656 109.375 323.765625 111.046875 323.597656 112.710938 C 323.433594 114.378906 323.191406 116.03125 322.863281 117.675781 C 322.535156 119.316406 322.128906 120.9375 321.644531 122.539062 C 321.15625 124.144531 320.59375 125.71875 319.953125 127.265625 C 319.3125 128.8125 318.597656 130.324219 317.808594 131.800781 C 317.015625 133.277344 316.15625 134.710938 315.226562 136.101562 C 314.296875 137.496094 313.300781 138.835938 312.238281 140.132812 C 311.175781 141.425781 310.050781 142.664062 308.867188 143.847656 C 307.683594 145.03125 306.441406 146.15625 305.148438 147.21875 C 303.851562 148.28125 302.507812 149.277344 301.117188 150.207031 C 299.722656 151.136719 298.289062 151.996094 296.8125 152.785156 C 295.332031 153.574219 293.820312 154.289062 292.273438 154.929688 C 290.726562 155.570312 289.152344 156.132812 287.546875 156.621094 C 285.945312 157.105469 284.324219 157.511719 282.679688 157.839844 C 281.035156 158.167969 279.382812 158.410156 277.714844 158.574219 C 276.046875 158.738281 274.378906 158.820312 272.703125 158.820312 C 271.027344 158.820312 269.355469 158.738281 267.6875 158.574219 C 266.023438 158.410156 264.367188 158.167969 262.722656 157.839844 C 261.082031 157.511719 259.457031 157.105469 257.855469 156.621094 C 256.253906 156.132812 254.679688 155.570312 253.128906 154.929688 C 251.582031 154.289062 250.070312 153.574219 248.59375 152.785156 C 247.117188 151.996094 245.679688 151.136719 244.289062 150.207031 C 242.894531 149.277344 241.550781 148.28125 240.257812 147.21875 C 238.960938 146.15625 237.722656 145.03125 236.539062 143.847656 C 235.355469 142.664062 234.230469 141.425781 233.167969 140.132812 C 232.105469 138.835938 231.109375 137.496094 230.175781 136.101562 C 229.246094 134.710938 228.386719 133.277344 227.597656 131.800781 C 226.808594 130.324219 226.09375 128.8125 225.453125 127.265625 C 224.8125 125.71875 224.246094 124.144531 223.761719 122.539062 C 223.273438 120.9375 222.867188 119.316406 222.542969 117.675781 C 222.214844 116.03125 221.96875 114.378906 221.804688 112.710938 C 221.640625 111.046875 221.558594 109.375 221.558594 107.699219 C 221.558594 106.027344 221.640625 104.355469 221.804688 102.691406 C 221.96875 101.023438 222.214844 99.371094 222.542969 97.726562 C 222.867188 96.085938 223.273438 94.464844 223.761719 92.859375 C 224.246094 91.257812 224.8125 89.683594 225.453125 88.136719 C 226.09375 86.589844 226.808594 85.078125 227.597656 83.601562 C 228.386719 82.125 229.246094 80.691406 230.175781 79.300781 C 231.109375 77.90625 232.105469 76.5625 233.167969 75.269531 C 234.230469 73.976562 235.355469 72.738281 236.539062 71.550781 C 237.722656 70.367188 238.960938 69.246094 240.257812 68.183594 C 241.550781 67.121094 242.894531 66.125 244.289062 65.195312 C 245.679688 64.265625 247.117188 63.40625 248.59375 62.617188 C 250.070312 61.828125 251.582031 61.113281 253.128906 60.472656 C 254.679688 59.832031 256.253906 59.265625 257.855469 58.78125 C 259.457031 58.296875 261.082031 57.886719 262.722656 57.5625 C 264.367188 57.234375 266.023438 56.988281 267.6875 56.824219 C 269.355469 56.660156 271.027344 56.578125 272.703125 56.578125 C 274.378906 56.578125 276.046875 56.660156 277.714844 56.824219 C 279.382812 56.988281 281.035156 57.234375 282.679688 57.5625 C 284.324219 57.886719 285.945312 58.296875 287.546875 58.78125 C 289.152344 59.265625 290.726562 59.832031 292.273438 60.472656 C 293.820312 61.113281 295.332031 61.828125 296.8125 62.617188 C 298.289062 63.40625 299.722656 64.265625 301.117188 65.195312 C 302.507812 66.125 303.851562 67.121094 305.148438 68.183594 C 306.441406 69.246094 307.683594 70.367188 308.867188 71.550781 C 310.050781 72.738281 311.175781 73.976562 312.238281 75.269531 C 313.300781 76.5625 314.296875 77.90625 315.226562 79.300781 C 316.15625 80.691406 317.015625 82.125 317.808594 83.601562 C 318.597656 85.078125 319.3125 86.589844 319.953125 88.136719 C 320.59375 89.683594 321.15625 91.257812 321.644531 92.859375 C 322.128906 94.464844 322.535156 96.085938 322.863281 97.726562 C 323.191406 99.371094 323.433594 101.023438 323.597656 102.691406 C 323.765625 104.355469 323.847656 106.027344 323.847656 107.699219 Z M 323.847656 107.699219 " fill-opacity="1" fill-rule="nonzero"/><path fill="#fee97d" d="M 268.636719 56.738281 C 242.328125 58.820312 221.558594 80.882812 221.558594 107.699219 C 221.558594 134.519531 242.335938 156.582031 268.640625 158.664062 C 255.097656 145.890625 246.632812 127.777344 246.632812 107.699219 C 246.632812 87.625 255.09375 69.511719 268.636719 56.738281 Z M 268.636719 56.738281 " fill-opacity="1" fill-rule="nonzero"/><path fill="#fedf30" d="M 285.835938 104.402344 L 261 104.402344 L 261 95.816406 L 288.699219 95.816406 C 291.3125 95.816406 293.429688 93.699219 293.429688 91.085938 C 293.429688 88.472656 291.3125 86.355469 288.699219 86.355469 L 277.433594 86.355469 L 277.433594 80.035156 C 277.433594 77.421875 275.316406 75.304688 272.703125 75.304688 C 270.089844 75.304688 267.96875 77.421875 267.96875 80.035156 L 267.96875 86.355469 L 259.132812 86.355469 C 254.941406 86.355469 251.535156 89.761719 251.535156 93.949219 L 251.535156 106.273438 C 251.535156 110.460938 254.941406 113.867188 259.132812 113.867188 L 283.964844 113.867188 L 283.964844 122.453125 L 256.265625 122.453125 C 253.652344 122.453125 251.535156 124.574219 251.535156 127.1875 C 251.535156 129.796875 253.652344 131.917969 256.265625 131.917969 L 267.96875 131.917969 L 267.96875 138.238281 C 267.96875 140.851562 270.085938 142.96875 272.703125 142.96875 C 275.316406 142.96875 277.433594 140.851562 277.433594 138.238281 L 277.433594 131.917969 L 285.835938 131.917969 C 290.023438 131.917969 293.429688 128.511719 293.429688 124.324219 L 293.429688 112 C 293.429688 107.8125 290.023438 104.402344 285.835938 104.402344 Z M 285.835938 104.402344 " fill-opacity="1" fill-rule="nonzero"/><path fill="#fdb4ba" d="M 314.039062 206.402344 C 312.941406 205.984375 311.726562 205.984375 310.632812 206.410156 L 303.09375 209.339844 L 287.738281 202.484375 C 285.355469 201.421875 282.554688 202.492188 281.488281 204.878906 C 280.421875 207.261719 281.496094 210.058594 283.878906 211.125 L 290.679688 214.160156 L 276.546875 219.648438 L 253.023438 213.164062 C 250.507812 212.46875 247.898438 213.945312 247.203125 216.464844 C 246.507812 218.984375 247.988281 221.589844 250.507812 222.285156 L 275.539062 229.1875 C 276.519531 229.457031 277.5625 229.40625 278.511719 229.035156 L 312.359375 215.890625 L 339.285156 226.195312 L 340.003906 226.570312 C 340.898438 223.507812 341.628906 220.371094 342.179688 217.171875 Z M 314.039062 206.402344 " fill-opacity="1" fill-rule="nonzero"/><path fill="#fe99a0" d="M 123.402344 156.273438 C 124.332031 157.25 125.582031 157.738281 126.832031 157.738281 C 128.003906 157.738281 129.179688 157.308594 130.09375 156.433594 C 131.988281 154.632812 132.058594 151.636719 130.257812 149.746094 L 126.273438 145.566406 C 125.574219 144.828125 124.652344 144.339844 123.652344 144.167969 L 110.320312 141.867188 L 103.964844 128.675781 L 103.757812 128.214844 C 100.980469 129.792969 98.300781 131.519531 95.730469 133.386719 L 102.847656 148.167969 C 103.511719 149.546875 104.800781 150.519531 106.308594 150.777344 L 120.5 153.222656 Z M 123.402344 156.273438 " fill-opacity="1" fill-rule="nonzero"/><path fill="#fdb4ba" d="M 147.257812 230.691406 L 132.570312 234.691406 C 131.613281 234.957031 130.757812 235.511719 130.132812 236.285156 L 115.324219 254.613281 L 87.464844 261.394531 C 87.386719 261.414062 87.308594 261.4375 87.234375 261.457031 L 84.671875 262.222656 C 87.296875 264.917969 90.097656 267.441406 93.058594 269.773438 L 119.121094 263.425781 C 120.128906 263.179688 121.03125 262.609375 121.683594 261.800781 L 124.140625 258.761719 L 140.132812 263.992188 C 140.621094 264.152344 141.117188 264.226562 141.605469 264.226562 C 143.597656 264.226562 145.449219 262.960938 146.101562 260.96875 C 146.914062 258.484375 145.558594 255.8125 143.078125 255 L 130.503906 250.886719 L 136.539062 243.417969 L 149.746094 239.816406 C 152.269531 239.128906 153.757812 236.53125 153.070312 234.007812 C 152.378906 231.488281 149.777344 230.003906 147.257812 230.691406 Z M 147.257812 230.691406 " fill-opacity="1" fill-rule="nonzero"/><path fill="#ffc4c8" d="M 176.132812 126.328125 L 162.21875 107.992188 C 159.824219 104.835938 155.0625 104.871094 152.714844 108.066406 L 137.628906 128.59375 C 136.796875 129.730469 137.664062 131.320312 139.070312 131.230469 L 174.914062 128.984375 C 176.234375 128.902344 176.933594 127.382812 176.132812 126.328125 Z M 176.132812 126.328125 " fill-opacity="1" fill-rule="nonzero"/><path fill="#b9acac" d="M 124.429688 183.34375 L 129.425781 177.910156 C 131.195312 175.984375 131.070312 172.992188 129.148438 171.222656 C 127.222656 169.457031 124.226562 169.582031 122.457031 171.503906 L 118 176.351562 L 113.542969 171.503906 C 111.773438 169.582031 108.78125 169.457031 106.855469 171.222656 C 104.929688 172.992188 104.804688 175.984375 106.574219 177.910156 L 111.570312 183.34375 L 106.574219 188.777344 C 104.804688 190.699219 104.929688 193.691406 106.855469 195.460938 C 107.765625 196.296875 108.914062 196.710938 110.058594 196.710938 C 111.335938 196.710938 112.609375 196.195312 113.542969 195.179688 L 118 190.332031 L 122.457031 195.179688 C 123.390625 196.195312 124.664062 196.710938 125.945312 196.710938 C 127.089844 196.710938 128.234375 196.296875 129.144531 195.460938 C 131.070312 193.691406 131.195312 190.699219 129.425781 188.777344 Z M 124.429688 183.34375 " fill-opacity="1" fill-rule="nonzero"/><g fill="#000000" fill-opacity="1"><g transform="translate(103.657322, 350.999977)"><g><path d="M 13.515625 -11 L 9.765625 -7.078125 L 9.765625 0 L 3.3125 0 L 3.3125 -28 L 9.765625 -28 L 9.765625 -14.921875 L 22.15625 -28 L 29.359375 -28 L 17.765625 -15.515625 L 30.046875 0 L 22.484375 0 Z M 13.515625 -11 "/></g></g></g><g fill="#000000" fill-opacity="1"><g transform="translate(132.254446, 350.999977)"><g><path d="M 16.875 0.484375 C 13.96875 0.484375 11.347656 -0.140625 9.015625 -1.390625 C 6.679688 -2.648438 4.851562 -4.378906 3.53125 -6.578125 C 2.21875 -8.773438 1.5625 -11.25 1.5625 -14 C 1.5625 -16.75 2.21875 -19.222656 3.53125 -21.421875 C 4.851562 -23.617188 6.679688 -25.34375 9.015625 -26.59375 C 11.347656 -27.851562 13.96875 -28.484375 16.875 -28.484375 C 19.78125 -28.484375 22.394531 -27.851562 24.71875 -26.59375 C 27.039062 -25.34375 28.867188 -23.617188 30.203125 -21.421875 C 31.535156 -19.222656 32.203125 -16.75 32.203125 -14 C 32.203125 -11.25 31.535156 -8.773438 30.203125 -6.578125 C 28.867188 -4.378906 27.039062 -2.648438 24.71875 -1.390625 C 22.394531 -0.140625 19.78125 0.484375 16.875 0.484375 Z M 16.875 -5.046875 C 18.53125 -5.046875 20.023438 -5.421875 21.359375 -6.171875 C 22.691406 -6.929688 23.738281 -7.992188 24.5 -9.359375 C 25.257812 -10.722656 25.640625 -12.269531 25.640625 -14 C 25.640625 -15.726562 25.257812 -17.273438 24.5 -18.640625 C 23.738281 -20.003906 22.691406 -21.0625 21.359375 -21.8125 C 20.023438 -22.570312 18.53125 -22.953125 16.875 -22.953125 C 15.226562 -22.953125 13.738281 -22.570312 12.40625 -21.8125 C 11.070312 -21.0625 10.023438 -20.003906 9.265625 -18.640625 C 8.503906 -17.273438 8.125 -15.726562 8.125 -14 C 8.125 -12.269531 8.503906 -10.722656 9.265625 -9.359375 C 10.023438 -7.992188 11.070312 -6.929688 12.40625 -6.171875 C 13.738281 -5.421875 15.226562 -5.046875 16.875 -5.046875 Z M 16.875 -5.046875 "/></g></g></g><g fill="#000000" fill-opacity="1"><g transform="translate(166.011093, 350.999977)"><g><path d="M 12.515625 0.484375 C 10.304688 0.484375 8.164062 0.1875 6.09375 -0.40625 C 4.03125 -1.007812 2.375 -1.796875 1.125 -2.765625 L 3.3125 -7.640625 C 4.519531 -6.753906 5.945312 -6.046875 7.59375 -5.515625 C 9.25 -4.984375 10.90625 -4.71875 12.5625 -4.71875 C 14.394531 -4.71875 15.75 -4.988281 16.625 -5.53125 C 17.507812 -6.082031 17.953125 -6.8125 17.953125 -7.71875 C 17.953125 -8.382812 17.691406 -8.9375 17.171875 -9.375 C 16.660156 -9.820312 15.992188 -10.175781 15.171875 -10.4375 C 14.359375 -10.707031 13.257812 -11 11.875 -11.3125 C 9.75 -11.820312 8.003906 -12.328125 6.640625 -12.828125 C 5.273438 -13.335938 4.109375 -14.148438 3.140625 -15.265625 C 2.171875 -16.390625 1.6875 -17.890625 1.6875 -19.765625 C 1.6875 -21.390625 2.125 -22.859375 3 -24.171875 C 3.875 -25.492188 5.195312 -26.539062 6.96875 -27.3125 C 8.75 -28.09375 10.921875 -28.484375 13.484375 -28.484375 C 15.265625 -28.484375 17.007812 -28.269531 18.71875 -27.84375 C 20.425781 -27.414062 21.921875 -26.800781 23.203125 -26 L 21.203125 -21.078125 C 18.609375 -22.546875 16.019531 -23.28125 13.4375 -23.28125 C 11.625 -23.28125 10.285156 -22.984375 9.421875 -22.390625 C 8.554688 -21.804688 8.125 -21.035156 8.125 -20.078125 C 8.125 -19.117188 8.625 -18.40625 9.625 -17.9375 C 10.625 -17.46875 12.148438 -17.007812 14.203125 -16.5625 C 16.335938 -16.050781 18.082031 -15.539062 19.4375 -15.03125 C 20.800781 -14.53125 21.96875 -13.734375 22.9375 -12.640625 C 23.914062 -11.546875 24.40625 -10.066406 24.40625 -8.203125 C 24.40625 -6.597656 23.957031 -5.132812 23.0625 -3.8125 C 22.164062 -2.5 20.820312 -1.453125 19.03125 -0.671875 C 17.25 0.0976562 15.078125 0.484375 12.515625 0.484375 Z M 12.515625 0.484375 "/></g></g></g><g fill="#000000" fill-opacity="1"><g transform="translate(191.528555, 350.999977)"><g><path d="M 16.875 0.484375 C 13.96875 0.484375 11.347656 -0.140625 9.015625 -1.390625 C 6.679688 -2.648438 4.851562 -4.378906 3.53125 -6.578125 C 2.21875 -8.773438 1.5625 -11.25 1.5625 -14 C 1.5625 -16.75 2.21875 -19.222656 3.53125 -21.421875 C 4.851562 -23.617188 6.679688 -25.34375 9.015625 -26.59375 C 11.347656 -27.851562 13.96875 -28.484375 16.875 -28.484375 C 19.78125 -28.484375 22.394531 -27.851562 24.71875 -26.59375 C 27.039062 -25.34375 28.867188 -23.617188 30.203125 -21.421875 C 31.535156 -19.222656 32.203125 -16.75 32.203125 -14 C 32.203125 -11.25 31.535156 -8.773438 30.203125 -6.578125 C 28.867188 -4.378906 27.039062 -2.648438 24.71875 -1.390625 C 22.394531 -0.140625 19.78125 0.484375 16.875 0.484375 Z M 16.875 -5.046875 C 18.53125 -5.046875 20.023438 -5.421875 21.359375 -6.171875 C 22.691406 -6.929688 23.738281 -7.992188 24.5 -9.359375 C 25.257812 -10.722656 25.640625 -12.269531 25.640625 -14 C 25.640625 -15.726562 25.257812 -17.273438 24.5 -18.640625 C 23.738281 -20.003906 22.691406 -21.0625 21.359375 -21.8125 C 20.023438 -22.570312 18.53125 -22.953125 16.875 -22.953125 C 15.226562 -22.953125 13.738281 -22.570312 12.40625 -21.8125 C 11.070312 -21.0625 10.023438 -20.003906 9.265625 -18.640625 C 8.503906 -17.273438 8.125 -15.726562 8.125 -14 C 8.125 -12.269531 8.503906 -10.722656 9.265625 -9.359375 C 10.023438 -7.992188 11.070312 -6.929688 12.40625 -6.171875 C 13.738281 -5.421875 15.226562 -5.046875 16.875 -5.046875 Z M 16.875 -5.046875 "/></g></g></g><g fill="#000000" fill-opacity="1"><g transform="translate(225.285202, 350.999977)"><g><path d="M 29 -28 L 29 0 L 23.6875 0 L 9.71875 -17 L 9.71875 0 L 3.3125 0 L 3.3125 -28 L 8.6875 -28 L 22.59375 -11 L 22.59375 -28 Z M 29 -28 "/></g></g></g><g fill="#000000" fill-opacity="1"><g transform="translate(257.601987, 350.999977)"><g><path d="M 22.234375 -14.4375 L 28.15625 -14.4375 L 28.15625 -3.078125 C 26.632812 -1.929688 24.875 -1.050781 22.875 -0.4375 C 20.875 0.175781 18.863281 0.484375 16.84375 0.484375 C 13.9375 0.484375 11.320312 -0.132812 9 -1.375 C 6.675781 -2.613281 4.851562 -4.332031 3.53125 -6.53125 C 2.21875 -8.738281 1.5625 -11.226562 1.5625 -14 C 1.5625 -16.769531 2.21875 -19.253906 3.53125 -21.453125 C 4.851562 -23.660156 6.6875 -25.382812 9.03125 -26.625 C 11.382812 -27.863281 14.023438 -28.484375 16.953125 -28.484375 C 19.410156 -28.484375 21.640625 -28.066406 23.640625 -27.234375 C 25.640625 -26.410156 27.320312 -25.210938 28.6875 -23.640625 L 24.515625 -19.796875 C 22.515625 -21.898438 20.101562 -22.953125 17.28125 -22.953125 C 15.488281 -22.953125 13.898438 -22.578125 12.515625 -21.828125 C 11.128906 -21.085938 10.050781 -20.035156 9.28125 -18.671875 C 8.507812 -17.316406 8.125 -15.757812 8.125 -14 C 8.125 -12.269531 8.507812 -10.722656 9.28125 -9.359375 C 10.050781 -7.992188 11.125 -6.929688 12.5 -6.171875 C 13.875 -5.421875 15.441406 -5.046875 17.203125 -5.046875 C 19.066406 -5.046875 20.742188 -5.441406 22.234375 -6.234375 Z M 22.234375 -14.4375 "/></g></g></g></svg>