<svg xmlns="http://www.w3.org/2000/svg" xmlns:xlink="http://www.w3.org/1999/xlink" width="500" zoomAndPan="magnify" viewBox="0 0 375 374.999991" height="500" preserveAspectRatio="xMidYMid meet" version="1.0"><defs><clipPath id="ba6b59a7f0"><path d="M 34.15625 45 L 350 45 L 350 360.816406 L 34.15625 360.816406 Z M 34.15625 45 " clip-rule="nonzero"/></clipPath><clipPath id="8db0bc4ebe"><path d="M 206 30.816406 L 364.15625 30.816406 L 364.15625 189 L 206 189 Z M 206 30.816406 " clip-rule="nonzero"/></clipPath></defs><g clip-path="url(#ba6b59a7f0)"><path fill="#4ebfd9" d="M 349.734375 203.007812 C 349.734375 290.152344 279.089844 360.796875 191.945312 360.796875 C 104.800781 360.796875 34.15625 290.152344 34.15625 203.007812 C 34.15625 115.863281 104.800781 45.21875 191.945312 45.21875 L 191.945312 203.007812 Z M 349.734375 203.007812 " fill-opacity="1" fill-rule="nonzero"/></g><g clip-path="url(#8db0bc4ebe)"><path fill="#f29544" d="M 364.136719 188.605469 C 364.136719 101.460938 293.492188 30.816406 206.347656 30.816406 L 206.347656 188.605469 Z M 364.136719 188.605469 " fill-opacity="1" fill-rule="nonzero"/></g><path fill="#f27127" d="M 358.992188 179.214844 C 358.992188 179.214844 359.421875 181.933594 352.488281 181.933594 C 346.488281 181.933594 359.144531 177.429688 357.769531 167.460938 C 356.511719 158.359375 342.980469 181.933594 335.332031 181.933594 C 328.621094 181.933594 356.734375 159.953125 355.144531 153.21875 C 353.738281 147.277344 327.6875 181.933594 321.28125 181.933594 C 315.8125 181.933594 354.414062 149.398438 351.808594 141.351562 C 349.441406 134.042969 312.617188 181.933594 304.984375 181.933594 C 298.289062 181.933594 350.316406 136.253906 346.886719 128.261719 C 343.75 120.949219 293.871094 181.933594 288.367188 181.933594 C 283.796875 181.933594 345.132812 123.945312 342.136719 118.171875 C 339.472656 113.035156 281.449219 181.933594 274.730469 181.933594 C 268.949219 181.933594 340.160156 114.207031 336.789062 108.707031 C 333.785156 103.808594 267.007812 181.933594 260.460938 181.933594 C 254.847656 181.933594 335.082031 105.640625 330.503906 99.285156 C 326.332031 93.492188 251.089844 181.933594 243.984375 181.933594 C 237.816406 181.933594 327.386719 94.882812 323.449219 90.199219 C 319.945312 86.035156 235.433594 181.933594 230.558594 181.933594 C 226.617188 181.933594 321.460938 87.722656 317.664062 83.699219 C 314.339844 80.167969 224.8125 181.933594 218.09375 181.933594 C 212.3125 181.933594 315.066406 80.835938 310.511719 76.601562 C 306.457031 72.828125 212.910156 178.5625 212.910156 173.039062 C 212.910156 168.511719 308.023438 74.195312 303.757812 70.667969 C 300.015625 67.578125 212.910156 165.976562 212.910156 160.484375 C 212.910156 155.984375 301.367188 68.609375 296.984375 65.382812 C 293.15625 62.566406 212.910156 153.945312 212.910156 147.804688 C 212.910156 142.652344 295.242188 63.890625 288.46875 59.574219 C 282.273438 55.628906 212.910156 137.453125 212.910156 131.027344 C 212.910156 125.589844 285.226562 57.328125 278.304688 53.632812 C 272.003906 50.273438 212.910156 121.21875 212.910156 114.355469 C 212.910156 108.480469 273.652344 51.113281 268.398438 48.78125 C 263.804688 46.746094 212.910156 107.585938 212.910156 100.460938 C 212.910156 94.332031 265.105469 47.183594 258.054688 44.65625 C 251.699219 42.378906 212.910156 90.851562 212.910156 84.953125 C 212.910156 80.046875 254.152344 43.15625 247.757812 41.363281 C 242.105469 39.78125 212.910156 77.589844 212.910156 71.296875 C 212.910156 65.996094 243.960938 40.1875 237.007812 38.777344 C 230.84375 37.523438 212.910156 64.617188 212.910156 56.136719 C 212.910156 48.644531 230.773438 37.484375 223.96875 36.707031 C 218.007812 36.023438 212.910156 47.578125 212.910156 42.238281 C 212.910156 37.886719 215.84375 35.972656 215.84375 35.972656 C 215.84375 35.972656 211.039062 35.902344 211.039062 44.214844 C 211.039062 51.535156 217.824219 38.195312 222.097656 38.683594 C 225.523438 39.078125 211.039062 46.660156 211.039062 58.113281 C 211.039062 68.578125 230.542969 39.820312 235.140625 40.753906 C 238.949219 41.527344 211.039062 64.011719 211.039062 73.273438 C 211.039062 81.546875 241.71875 42.175781 245.890625 43.34375 C 249.320312 44.304688 211.039062 78.0625 211.039062 86.933594 C 211.039062 94.8125 251.230469 44.855469 256.183594 46.632812 C 260.441406 48.160156 211.039062 92.347656 211.039062 102.441406 C 211.039062 111.542969 263.253906 49.308594 266.53125 50.761719 C 269.144531 51.921875 211.039062 106.496094 211.039062 116.332031 C 211.039062 125.179688 271.378906 52.914062 276.433594 55.613281 C 280.867188 57.976562 211.039062 123.605469 211.039062 133.003906 C 211.039062 141.410156 281.574219 58.351562 286.597656 61.550781 C 291.035156 64.378906 211.039062 140.667969 211.039062 149.78125 C 211.039062 157.902344 292.390625 65.355469 295.117188 67.359375 C 297.289062 68.960938 211.039062 154 211.039062 162.464844 C 211.039062 169.933594 299.199219 70.425781 301.886719 72.648438 C 304.050781 74.433594 211.039062 166.527344 211.039062 175.019531 C 211.039062 182.519531 305.585938 75.734375 308.644531 78.578125 C 311.203125 80.960938 206.695312 183.910156 216.222656 183.910156 C 224.816406 183.910156 313.402344 83.136719 315.796875 85.675781 C 317.71875 87.71875 221 183.910156 228.6875 183.910156 C 235.4375 183.910156 318.957031 89.0625 321.578125 92.175781 C 323.753906 94.765625 232.199219 183.910156 242.113281 183.910156 C 251.09375 183.910156 325.273438 96.59375 328.632812 101.261719 C 331.589844 105.367188 249.234375 183.910156 258.589844 183.910156 C 267.011719 183.910156 332.652344 106.984375 334.917969 110.683594 C 336.816406 113.78125 263.332031 183.910156 272.859375 183.910156 C 281.453125 183.910156 338.265625 116.292969 340.265625 120.148438 C 341.9375 123.367188 278.179688 183.910156 286.496094 183.910156 C 293.875 183.910156 342.464844 124.289062 345.019531 130.238281 C 347.277344 135.507812 292.671875 183.910156 303.113281 183.910156 C 312.621094 183.910156 348.050781 137.496094 349.9375 143.328125 C 351.589844 148.425781 310.199219 183.910156 319.414062 183.910156 C 327.691406 183.910156 352.246094 150.839844 353.273438 155.195312 C 354.117188 158.761719 323.003906 183.910156 333.460938 183.910156 C 342.984375 183.910156 354.882812 162.066406 355.898438 169.4375 C 356.796875 175.949219 340.875 183.910156 350.617188 183.910156 C 359.425781 183.910156 358.992188 179.214844 358.992188 179.214844 Z M 358.992188 179.214844 " fill-opacity="1" fill-rule="nonzero"/></svg>