<svg xmlns="http://www.w3.org/2000/svg" xmlns:xlink="http://www.w3.org/1999/xlink" width="500" zoomAndPan="magnify" viewBox="0 0 375 374.999991" height="500" preserveAspectRatio="xMidYMid meet" version="1.0"><defs><clipPath id="4a16d2008f"><path d="M 37.5 136 L 227 136 L 227 236 L 37.5 236 Z M 37.5 136 " clip-rule="nonzero"/></clipPath><clipPath id="05f4e63b57"><path d="M 37.5 146 L 227 146 L 227 236 L 37.5 236 Z M 37.5 146 " clip-rule="nonzero"/></clipPath><clipPath id="81d0fa9892"><path d="M 123 152 L 356.25 152 L 356.25 306 L 123 306 Z M 123 152 " clip-rule="nonzero"/></clipPath><clipPath id="89e1b3e92f"><path d="M 69 37.5 L 219 37.5 L 219 270 L 69 270 Z M 69 37.5 " clip-rule="nonzero"/></clipPath><clipPath id="1bbe298efc"><path d="M 37.5 148 L 227 148 L 227 316 L 37.5 316 Z M 37.5 148 " clip-rule="nonzero"/></clipPath><clipPath id="6c461e9505"><path d="M 37.5 148 L 50 148 L 50 316 L 37.5 316 Z M 37.5 148 " clip-rule="nonzero"/></clipPath><clipPath id="ca9cf9455d"><path d="M 37.5 148 L 227 148 L 227 311 L 37.5 311 Z M 37.5 148 " clip-rule="nonzero"/></clipPath></defs><g clip-path="url(#4a16d2008f)"><path fill="#697aba" d="M 226.964844 235.703125 L 226.964844 148.902344 C 226.964844 142.3125 221.578125 136.925781 215 136.925781 L 49.554688 136.925781 C 42.972656 136.925781 37.585938 142.3125 37.585938 148.902344 L 37.585938 235.703125 L 226.964844 235.703125 " fill-opacity="1" fill-rule="evenodd"/></g><g clip-path="url(#05f4e63b57)"><path fill="#181a48" d="M 226.964844 235.703125 L 226.964844 158.40625 C 226.964844 151.824219 221.578125 146.433594 215 146.433594 L 49.554688 146.433594 C 42.972656 146.433594 37.585938 151.824219 37.585938 158.40625 L 37.585938 235.703125 L 226.964844 235.703125 " fill-opacity="1" fill-rule="evenodd"/></g><g clip-path="url(#81d0fa9892)"><path fill="#ccdea1" d="M 329.625 152.367188 L 123.171875 209.613281 L 149.703125 305.367188 L 356.15625 248.121094 L 329.625 152.367188 " fill-opacity="1" fill-rule="evenodd"/></g><path fill="#5d9c43" d="M 309.261719 226.375 C 301.261719 228.59375 292.835938 223.398438 290.441406 214.765625 C 288.042969 206.128906 292.585938 197.332031 300.582031 195.109375 C 308.578125 192.890625 317.003906 198.089844 319.398438 206.722656 C 321.792969 215.351562 317.253906 224.152344 309.261719 226.375 Z M 184.246094 261.09375 C 176.25 263.3125 167.824219 258.117188 165.429688 249.484375 C 163.03125 240.851562 167.574219 232.054688 175.570312 229.832031 C 183.566406 227.609375 191.992188 232.808594 194.386719 241.441406 C 196.78125 250.074219 192.242188 258.875 184.246094 261.09375 Z M 272.265625 253.007812 C 272.730469 251.988281 273.160156 250.933594 273.558594 249.855469 C 277.585938 238.953125 278.15625 225.304688 274.324219 211.492188 C 271.957031 202.960938 268.175781 195.34375 263.488281 189.050781 L 307.730469 176.761719 C 309.078125 173.421875 311.785156 170.78125 315.359375 169.785156 C 318.894531 168.800781 322.539062 169.644531 325.40625 171.769531 L 342.800781 234.453125 C 341.441406 237.75 338.753906 240.355469 335.214844 241.335938 C 331.273438 242.429688 327.199219 241.261719 324.21875 238.578125 Z M 198.730469 207.035156 C 197.957031 214.84375 198.640625 223.320312 201.007812 231.855469 C 204.839844 245.664062 212.367188 257.070312 221.433594 264.335938 C 222.332031 265.054688 223.242188 265.730469 224.167969 266.367188 L 172.210938 280.800781 C 171.039062 284.632812 168.15625 287.734375 164.210938 288.832031 C 160.675781 289.8125 157.03125 288.972656 154.164062 286.84375 L 136.769531 224.160156 C 138.128906 220.863281 140.816406 218.261719 144.355469 217.277344 C 147.929688 216.285156 151.609375 217.15625 154.488281 219.324219 Z M 159.773438 299.550781 L 344.539062 248.230469 C 346.027344 247.816406 347.195312 246.789062 347.882812 245.457031 C 348.570312 244.128906 348.773438 242.5 348.328125 240.894531 L 326.574219 162.519531 C 326.128906 160.914062 325.117188 159.621094 323.84375 158.835938 C 322.574219 158.050781 321.039062 157.773438 319.550781 158.183594 L 134.785156 209.503906 C 133.296875 209.914062 132.128906 210.945312 131.441406 212.273438 C 130.753906 213.605469 130.554688 215.230469 131 216.839844 L 152.75 295.214844 C 153.195312 296.824219 154.210938 298.113281 155.480469 298.898438 C 156.753906 299.679688 158.289062 299.960938 159.773438 299.550781 " fill-opacity="1" fill-rule="evenodd"/><path fill="#bad27b" d="M 266.757812 185.203125 L 296.324219 176.988281 L 294.128906 169.066406 L 264.554688 177.277344 Z M 164.378906 213.636719 L 193.949219 205.425781 L 191.75 197.5 L 162.179688 205.710938 Z M 287.433594 259.703125 L 317.003906 251.492188 L 316.085938 248.191406 L 286.515625 256.402344 Z M 185.054688 288.140625 L 214.625 279.925781 L 213.710938 276.625 L 184.136719 284.835938 Z M 246.539062 178.460938 L 207.796875 189.222656 C 205.265625 193.757812 203.515625 199.089844 202.648438 204.90625 C 201.460938 212.917969 201.972656 221.851562 204.480469 230.890625 C 208.074219 243.847656 215.097656 254.511719 223.535156 261.277344 C 231.84375 267.9375 241.519531 270.792969 250.601562 268.273438 C 259.679688 265.75 266.5 258.3125 270.1875 248.320312 C 273.933594 238.167969 274.453125 225.410156 270.859375 212.453125 C 268.351562 203.414062 264.183594 195.5 259.03125 189.242188 C 255.296875 184.707031 251.046875 181.042969 246.539062 178.460938 " fill-opacity="1" fill-rule="evenodd"/><path fill="#ccdea1" d="M 248.378906 59.625 L 98.199219 212.46875 L 169.035156 282.121094 L 319.214844 129.28125 L 248.378906 59.625 " fill-opacity="1" fill-rule="evenodd"/><path fill="#5d9c43" d="M 267.734375 133.902344 C 261.921875 139.824219 252.027344 139.539062 245.632812 133.257812 C 239.246094 126.980469 238.78125 117.089844 244.597656 111.164062 C 250.410156 105.242188 260.304688 105.527344 266.695312 111.808594 C 273.085938 118.085938 273.550781 127.976562 267.734375 133.902344 Z M 176.824219 226.5 C 171.007812 232.425781 161.113281 232.136719 154.722656 225.859375 C 148.335938 219.582031 147.871094 209.691406 153.683594 203.765625 C 159.5 197.84375 169.394531 198.132812 175.785156 204.410156 C 182.171875 210.6875 182.640625 220.578125 176.824219 226.5 Z M 249.007812 175.472656 C 248.902344 174.351562 248.75 173.226562 248.554688 172.097656 C 246.59375 160.636719 240.265625 148.53125 230.039062 138.488281 C 223.726562 132.28125 216.644531 127.578125 209.441406 124.472656 L 241.617188 91.703125 C 241.113281 88.132812 242.136719 84.488281 244.734375 81.84375 C 247.304688 79.21875 250.886719 78.128906 254.429688 78.535156 L 300.820312 124.117188 C 301.292969 127.65625 300.265625 131.253906 297.695312 133.878906 C 294.828125 136.796875 290.714844 137.816406 286.792969 136.988281 Z M 162.351562 172.441406 C 165.582031 179.589844 170.414062 186.589844 176.726562 192.792969 C 186.949219 202.839844 199.164062 208.949219 210.652344 210.707031 C 211.785156 210.878906 212.914062 211.011719 214.03125 211.097656 L 176.25 249.585938 C 177.152344 253.492188 176.207031 257.625 173.339844 260.542969 C 170.765625 263.164062 167.1875 264.257812 163.644531 263.847656 L 117.246094 218.265625 C 116.777344 214.726562 117.804688 211.128906 120.378906 208.507812 C 122.976562 205.863281 126.597656 204.773438 130.175781 205.210938 Z M 174.851562 272.046875 L 309.214844 135.183594 C 310.296875 134.078125 310.792969 132.601562 310.726562 131.109375 C 310.652344 129.613281 310.015625 128.101562 308.828125 126.933594 L 250.816406 69.9375 C 249.628906 68.769531 248.105469 68.160156 246.613281 68.117188 C 245.117188 68.074219 243.648438 68.59375 242.566406 69.699219 L 108.203125 206.5625 C 107.121094 207.664062 106.621094 209.140625 106.691406 210.636719 C 106.761719 212.128906 107.402344 213.640625 108.589844 214.808594 L 166.601562 271.804688 C 167.789062 272.972656 169.3125 273.582031 170.804688 273.628906 C 172.300781 273.671875 173.769531 273.148438 174.851562 272.046875 " fill-opacity="1" fill-rule="evenodd"/><path fill="#bad27b" d="M 210.347656 119.507812 L 204.480469 113.746094 L 225.984375 91.84375 L 231.851562 97.605469 Z M 135.898438 195.34375 L 157.402344 173.4375 L 151.535156 167.675781 L 130.03125 189.578125 Z M 265.488281 173.6875 L 286.992188 151.785156 L 284.550781 149.382812 L 263.046875 171.289062 Z M 191.039062 249.519531 L 212.546875 227.617188 L 210.101562 225.21875 L 188.59375 247.121094 Z M 189.46875 123.785156 L 161.296875 152.480469 C 161.371094 157.671875 162.519531 163.167969 164.675781 168.636719 C 167.65625 176.171875 172.558594 183.652344 179.246094 190.226562 C 188.839844 199.648438 200.246094 205.371094 210.9375 207.011719 C 221.460938 208.621094 231.269531 206.253906 237.875 199.53125 C 244.476562 192.804688 246.664062 182.949219 244.867188 172.453125 C 243.035156 161.789062 237.109375 150.480469 227.515625 141.054688 C 220.828125 134.484375 213.265625 129.714844 205.679688 126.871094 C 200.175781 124.8125 194.664062 123.765625 189.46875 123.785156 " fill-opacity="1" fill-rule="evenodd"/><g clip-path="url(#89e1b3e92f)"><path fill="#ccdea1" d="M 122.710938 37.496094 L 69.042969 244.980469 L 165.199219 269.871094 L 218.867188 62.386719 L 122.710938 37.496094 " fill-opacity="1" fill-rule="evenodd"/></g><path fill="#5d9c43" d="M 176.59375 92.140625 C 174.519531 100.183594 165.804688 104.882812 157.136719 102.640625 C 148.464844 100.398438 143.117188 92.066406 145.191406 84.027344 C 147.265625 75.988281 155.980469 71.289062 164.652344 73.53125 C 173.324219 75.769531 178.667969 84.105469 176.59375 92.140625 Z M 144.144531 217.808594 C 142.070312 225.847656 133.355469 230.546875 124.6875 228.308594 C 116.015625 226.066406 110.667969 217.734375 112.742188 209.695312 C 114.820312 201.65625 123.53125 196.957031 132.203125 199.195312 C 140.875 201.4375 146.21875 209.773438 144.144531 217.808594 Z M 181.15625 137.511719 C 180.503906 136.597656 179.808594 135.695312 179.074219 134.8125 C 171.648438 125.875 160.117188 118.550781 146.242188 114.964844 C 137.671875 112.753906 129.1875 112.222656 121.398438 113.136719 L 132.882812 68.664062 C 130.664062 65.824219 129.726562 62.15625 130.65625 58.5625 C 131.574219 55.003906 134.128906 52.269531 137.398438 50.847656 L 200.359375 67.121094 C 202.535156 69.949219 203.445312 73.578125 202.527344 77.136719 C 201.503906 81.101562 198.453125 84.039062 194.640625 85.285156 Z M 104.589844 178.230469 C 110.960938 182.804688 118.644531 186.449219 127.214844 188.667969 C 141.085938 192.25 154.71875 191.433594 165.546875 187.210938 C 166.617188 186.796875 167.660156 186.339844 168.671875 185.859375 L 155.1875 238.085938 C 157.921875 241.019531 159.164062 245.070312 158.140625 249.03125 C 157.222656 252.589844 154.667969 255.328125 151.398438 256.746094 L 88.433594 240.476562 C 86.261719 237.648438 85.351562 234.019531 86.269531 230.460938 C 87.199219 226.871094 89.789062 224.113281 93.105469 222.707031 Z M 165.199219 258.238281 L 213.15625 72.503906 C 213.542969 71.007812 213.234375 69.480469 212.425781 68.21875 C 211.621094 66.960938 210.3125 65.972656 208.699219 65.554688 L 129.972656 45.210938 C 128.359375 44.792969 126.738281 45.027344 125.421875 45.738281 C 124.105469 46.449219 123.097656 47.632812 122.710938 49.128906 L 74.75 234.863281 C 74.367188 236.359375 74.671875 237.890625 75.480469 239.148438 C 76.289062 240.40625 77.59375 241.398438 79.210938 241.8125 L 157.933594 262.15625 C 159.550781 262.574219 161.171875 262.339844 162.488281 261.632812 C 163.804688 260.921875 164.8125 259.734375 165.199219 258.238281 " fill-opacity="1" fill-rule="evenodd"/><path fill="#bad27b" d="M 119.703125 108.382812 L 127.378906 78.65625 L 119.417969 76.597656 L 111.742188 106.324219 Z M 93.128906 211.292969 L 85.167969 209.234375 L 92.84375 179.511719 L 100.804688 181.566406 Z M 194.535156 127.71875 L 202.210938 97.992188 L 198.898438 97.136719 L 191.222656 126.863281 Z M 167.964844 230.628906 L 175.640625 200.90625 L 172.320312 200.046875 L 164.644531 229.777344 Z M 103.757812 122.523438 L 93.703125 161.472656 C 96.363281 165.929688 100.105469 170.117188 104.707031 173.769531 C 111.050781 178.808594 119.035156 182.832031 128.113281 185.179688 C 141.132812 188.542969 153.871094 187.792969 163.949219 183.863281 C 173.867188 179.996094 181.179688 173.039062 183.535156 163.910156 C 185.890625 154.785156 182.863281 145.15625 176.058594 136.964844 C 169.144531 128.644531 158.359375 121.816406 145.34375 118.453125 C 136.265625 116.105469 127.328125 115.757812 119.339844 117.09375 C 113.542969 118.0625 108.246094 119.910156 103.757812 122.523438 " fill-opacity="1" fill-rule="evenodd"/><path fill="#faa821" d="M 134.082031 112.203125 C 153.882812 127.136719 157.835938 155.296875 142.910156 175.105469 C 127.984375 194.917969 99.835938 198.871094 80.035156 183.9375 C 78.003906 182.410156 75.984375 180.886719 73.953125 179.355469 C 54.152344 164.421875 50.199219 136.261719 65.125 116.453125 C 80.050781 96.644531 108.199219 92.6875 128.003906 107.621094 C 130.03125 109.148438 132.054688 110.675781 134.082031 112.203125 " fill-opacity="1" fill-rule="evenodd"/><path fill="#f8bd2d" d="M 57.980469 156.417969 L 106.472656 192.984375 C 102.625 192.933594 98.765625 192.394531 95 191.347656 L 62.714844 167.003906 C 60.667969 163.667969 59.085938 160.109375 57.980469 156.417969 " fill-opacity="1" fill-rule="evenodd"/><path fill="#f8bd2d" d="M 56.085938 142.773438 L 120.105469 191.046875 C 117.738281 191.765625 115.316406 192.285156 112.867188 192.605469 L 56.582031 150.164062 C 56.214844 147.722656 56.050781 145.25 56.085938 142.773438 " fill-opacity="1" fill-rule="evenodd"/><path fill="#f8bd2d" d="M 57.636719 131.726562 L 130.292969 186.515625 C 128.507812 187.59375 126.65625 188.542969 124.757812 189.355469 L 56.429688 137.835938 C 56.6875 135.785156 57.089844 133.742188 57.636719 131.726562 " fill-opacity="1" fill-rule="evenodd"/><path fill="#f8bd2d" d="M 61.371094 122.328125 L 138.300781 180.335938 C 136.914062 181.683594 135.453125 182.925781 133.933594 184.0625 L 58.992188 127.554688 C 59.667969 125.777344 60.457031 124.03125 61.371094 122.328125 " fill-opacity="1" fill-rule="evenodd"/><path fill="#f8bd2d" d="M 66.882812 114.269531 L 144.523438 172.8125 C 144.011719 173.589844 143.476562 174.355469 142.910156 175.105469 C 142.34375 175.859375 141.757812 176.585938 141.152344 177.289062 L 63.511719 118.742188 C 64.023438 117.96875 64.558594 117.203125 65.125 116.453125 C 65.691406 115.699219 66.28125 114.972656 66.882812 114.269531 " fill-opacity="1" fill-rule="evenodd"/><path fill="#f8bd2d" d="M 74.101562 107.496094 L 149.042969 164.007812 C 148.371094 165.78125 147.578125 167.527344 146.664062 169.230469 L 69.738281 111.222656 C 71.125 109.878906 72.582031 108.632812 74.101562 107.496094 " fill-opacity="1" fill-rule="evenodd"/><path fill="#f8bd2d" d="M 83.277344 102.203125 L 151.605469 153.722656 C 151.347656 155.777344 150.945312 157.816406 150.398438 159.832031 L 77.742188 105.042969 C 79.527344 103.964844 81.378906 103.015625 83.277344 102.203125 " fill-opacity="1" fill-rule="evenodd"/><path fill="#f8bd2d" d="M 95.167969 98.953125 L 151.453125 141.394531 C 151.820312 143.835938 151.984375 146.308594 151.949219 148.785156 L 87.929688 100.511719 C 90.300781 99.792969 92.722656 99.273438 95.167969 98.953125 " fill-opacity="1" fill-rule="evenodd"/><path fill="#f8bd2d" d="M 113.039062 100.210938 L 145.324219 124.554688 C 147.367188 127.890625 148.949219 131.449219 150.054688 135.140625 L 101.5625 98.574219 C 105.414062 98.625 109.273438 99.160156 113.039062 100.210938 " fill-opacity="1" fill-rule="evenodd"/><path fill="#fac43a" d="M 117.871094 191.664062 L 56.109375 145.09375 C 55.75 135.148438 58.671875 125.019531 65.125 116.453125 C 71.582031 107.886719 80.507812 102.285156 90.167969 99.894531 L 151.925781 146.464844 C 152.285156 156.410156 149.367188 166.539062 142.910156 175.105469 C 136.457031 183.671875 127.527344 189.273438 117.871094 191.664062 " fill-opacity="1" fill-rule="evenodd"/><path fill="#fbd23e" d="M 56.085938 142.773438 L 120.105469 191.046875 C 119.367188 191.269531 118.621094 191.476562 117.871094 191.664062 L 56.109375 145.09375 C 56.082031 144.320312 56.074219 143.546875 56.085938 142.773438 " fill-opacity="1" fill-rule="evenodd"/><path fill="#fbd23e" d="M 57.636719 131.726562 L 130.292969 186.515625 C 128.507812 187.59375 126.65625 188.542969 124.757812 189.355469 L 56.429688 137.835938 C 56.6875 135.785156 57.089844 133.742188 57.636719 131.726562 " fill-opacity="1" fill-rule="evenodd"/><path fill="#fbd23e" d="M 61.371094 122.328125 L 138.300781 180.335938 C 136.914062 181.683594 135.453125 182.925781 133.933594 184.0625 L 58.992188 127.554688 C 59.667969 125.777344 60.457031 124.03125 61.371094 122.328125 " fill-opacity="1" fill-rule="evenodd"/><path fill="#fbd23e" d="M 66.882812 114.269531 L 144.523438 172.8125 C 144.011719 173.589844 143.476562 174.355469 142.910156 175.105469 C 142.34375 175.859375 141.757812 176.585938 141.152344 177.289062 L 63.511719 118.742188 C 64.023438 117.96875 64.558594 117.203125 65.125 116.453125 C 65.691406 115.699219 66.28125 114.972656 66.882812 114.269531 " fill-opacity="1" fill-rule="evenodd"/><path fill="#fbd23e" d="M 74.101562 107.496094 L 149.042969 164.007812 C 148.371094 165.78125 147.578125 167.527344 146.664062 169.230469 L 69.738281 111.222656 C 71.125 109.878906 72.582031 108.632812 74.101562 107.496094 " fill-opacity="1" fill-rule="evenodd"/><path fill="#fbd23e" d="M 83.277344 102.203125 L 151.605469 153.722656 C 151.347656 155.777344 150.945312 157.816406 150.398438 159.832031 L 77.742188 105.042969 C 79.527344 103.964844 81.378906 103.015625 83.277344 102.203125 " fill-opacity="1" fill-rule="evenodd"/><path fill="#fbd23e" d="M 151.949219 148.785156 L 87.929688 100.511719 C 88.671875 100.289062 89.417969 100.082031 90.167969 99.894531 L 151.925781 146.464844 C 151.953125 147.234375 151.960938 148.011719 151.949219 148.785156 " fill-opacity="1" fill-rule="evenodd"/><path fill="#fdeb56" d="M 71.140625 120.988281 C 86.066406 101.179688 114.21875 97.226562 134.019531 112.15625 C 153.820312 127.089844 157.773438 155.25 142.847656 175.058594 C 127.921875 194.867188 99.769531 198.820312 79.96875 183.890625 C 60.167969 168.960938 56.214844 140.796875 71.140625 120.988281 " fill-opacity="1" fill-rule="evenodd"/><path fill="#f8bd2d" d="M 75.152344 124.015625 C 88.40625 106.417969 113.410156 102.90625 130.996094 116.167969 C 148.582031 129.429688 152.09375 154.441406 138.835938 172.035156 C 125.582031 189.628906 100.578125 193.140625 82.992188 179.878906 C 65.40625 166.617188 61.894531 141.605469 75.152344 124.015625 " fill-opacity="1" fill-rule="evenodd"/><path fill="#fcd735" d="M 75.179688 124.035156 C 88.433594 106.441406 113.117188 102.6875 130.3125 115.652344 C 147.503906 128.617188 150.695312 153.386719 137.441406 170.984375 C 124.183594 188.574219 99.5 192.328125 82.308594 179.363281 C 65.117188 166.398438 61.921875 141.625 75.179688 124.035156 " fill-opacity="1" fill-rule="evenodd"/><path fill="#fce043" d="M 83.121094 116.058594 C 88.820312 111.742188 95.460938 109.097656 102.296875 108.242188 L 107.84375 187.003906 C 101.023438 187.425781 94.109375 186.070312 87.828125 182.828125 L 83.121094 116.058594 " fill-opacity="1" fill-rule="evenodd"/><path fill="#fce043" d="M 110.257812 108.058594 C 114.027344 108.355469 117.761719 109.203125 121.347656 110.621094 L 126.3125 181.136719 C 122.988281 183.183594 119.417969 184.710938 115.726562 185.710938 L 110.257812 108.058594 " fill-opacity="1" fill-rule="evenodd"/><path fill="#eb8b23" d="M 101.730469 146.613281 C 99.035156 147.761719 96.382812 148.640625 94.75 148.363281 C 92.183594 147.925781 91.503906 146.578125 90.046875 144.777344 C 89.164062 142.574219 89.378906 140.140625 90.375 138.046875 Z M 121.113281 161.226562 C 120.023438 162.136719 118.714844 162.800781 117.257812 163.097656 C 115.246094 163.503906 113.175781 163.140625 111.535156 161.898438 C 109.972656 160.722656 107.628906 161.199219 106.300781 162.960938 C 104.972656 164.722656 105.164062 167.105469 106.722656 168.28125 C 109.925781 170.699219 113.953125 171.414062 117.855469 170.621094 C 121.316406 169.921875 124.445312 168.09375 126.863281 165.5625 L 131.457031 169.027344 C 132.355469 169.707031 133.636719 169.527344 134.3125 168.625 C 134.992188 167.722656 134.8125 166.445312 133.914062 165.765625 L 129.34375 162.320312 C 130.660156 160.132812 131.527344 157.660156 131.804688 155.066406 C 132.59375 147.625 128.265625 141.324219 121.253906 140.132812 C 115.234375 139.109375 112.496094 141.789062 109.257812 143.097656 C 108.371094 143.484375 107.21875 144.050781 105.9375 144.671875 L 92.871094 134.820312 C 93.964844 133.910156 95.269531 133.246094 96.726562 132.949219 C 98.738281 132.542969 100.808594 132.90625 102.453125 134.148438 C 104.015625 135.324219 106.355469 134.847656 107.683594 133.085938 C 109.011719 131.324219 108.824219 128.941406 107.261719 127.761719 C 104.058594 125.347656 100.035156 124.632812 96.132812 125.421875 C 92.667969 126.125 89.542969 127.953125 87.121094 130.484375 L 82.53125 127.019531 C 81.628906 126.339844 80.351562 126.519531 79.671875 127.421875 C 78.992188 128.324219 79.171875 129.601562 80.074219 130.28125 L 84.640625 133.726562 C 83.328125 135.914062 82.457031 138.382812 82.183594 140.980469 C 81.390625 148.421875 85.71875 154.722656 92.730469 155.914062 C 95.753906 156.425781 103.042969 153.875 108.320312 151.582031 Z M 113.085938 149.28125 C 115.289062 148.042969 116.679688 147.246094 119.238281 147.683594 C 121.804688 148.117188 122.480469 149.46875 123.941406 151.269531 C 124.824219 153.472656 124.609375 155.90625 123.613281 158 L 112.488281 149.609375 C 112.703125 149.492188 112.902344 149.386719 113.085938 149.28125 " fill-opacity="1" fill-rule="evenodd"/><path fill="#efa127" d="M 101.730469 146.613281 L 90.375 138.046875 C 89.378906 140.140625 89.164062 142.574219 90.046875 144.777344 C 91.503906 146.578125 92.183594 147.925781 94.75 148.363281 C 96.382812 148.640625 99.035156 147.761719 101.730469 146.613281 Z M 106.164062 163.15625 L 106.511719 168.109375 C 105.199219 166.929688 105.046875 164.8125 106.164062 163.15625 Z M 103.53125 125.808594 L 104.164062 134.785156 C 103.554688 134.738281 102.960938 134.53125 102.453125 134.148438 C 100.808594 132.90625 98.738281 132.542969 96.726562 132.949219 C 95.269531 133.246094 93.964844 133.910156 92.871094 134.820312 L 104.800781 143.8125 L 105.433594 152.777344 C 100.648438 154.667969 95.234375 156.339844 92.730469 155.914062 C 89.878906 155.429688 87.46875 154.097656 85.667969 152.1875 L 84.398438 134.148438 C 84.476562 134.003906 84.558594 133.863281 84.644531 133.726562 L 84.351562 133.507812 L 83.972656 128.109375 L 87.121094 130.484375 C 89.542969 127.953125 92.667969 126.125 96.132812 125.421875 C 98.632812 124.917969 101.179688 125.027344 103.53125 125.808594 " fill-opacity="1" fill-rule="evenodd"/><path fill="#efa127" d="M 124.464844 154.882812 L 125.320312 167.003906 C 123.171875 168.78125 120.621094 170.0625 117.855469 170.621094 C 116.800781 170.835938 115.738281 170.941406 114.683594 170.929688 L 114.132812 163.089844 C 115.144531 163.3125 116.210938 163.308594 117.257812 163.097656 C 118.714844 162.800781 120.023438 162.136719 121.113281 161.226562 L 113.601562 155.5625 L 113.222656 150.164062 L 123.613281 158 C 124.082031 157.015625 124.375 155.957031 124.464844 154.882812 Z M 113.15625 149.242188 C 115.320312 148.023438 116.707031 147.25 119.238281 147.683594 C 121.804688 148.117188 122.480469 149.46875 123.941406 151.269531 C 124.085938 151.632812 124.203125 152.003906 124.289062 152.378906 L 123.464844 140.703125 C 122.765625 140.453125 122.027344 140.265625 121.253906 140.132812 C 117.324219 139.464844 114.792969 140.375 112.609375 141.449219 L 113.15625 149.242188 " fill-opacity="1" fill-rule="evenodd"/><g clip-path="url(#1bbe298efc)"><path fill="#4454a3" d="M 37.585938 148.109375 L 37.585938 303.050781 C 37.585938 309.636719 42.972656 315.023438 49.554688 315.023438 L 215 315.023438 C 221.578125 315.023438 226.964844 309.636719 226.964844 303.050781 L 226.964844 172.054688 C 226.964844 165.46875 221.578125 160.082031 215 160.082031 L 49.554688 160.082031 C 42.972656 160.082031 37.585938 154.691406 37.585938 148.109375 " fill-opacity="1" fill-rule="evenodd"/></g><g clip-path="url(#6c461e9505)"><path fill="#697aba" d="M 37.585938 148.109375 C 37.585938 199.753906 37.585938 251.402344 37.585938 303.050781 C 37.585938 309.636719 42.972656 315.023438 49.554688 315.023438 L 49.554688 160.082031 C 42.972656 160.082031 37.585938 154.691406 37.585938 148.109375 " fill-opacity="1" fill-rule="evenodd"/></g><g clip-path="url(#ca9cf9455d)"><path fill="#697aba" d="M 37.585938 148.109375 C 37.585938 155.53125 39.84375 162.546875 50.300781 162.546875 L 213.414062 162.546875 C 219.996094 162.546875 225.382812 167.933594 225.382812 174.515625 L 225.382812 305.515625 C 225.382812 307.363281 224.957031 309.113281 224.207031 310.679688 C 225.925781 308.605469 226.964844 305.945312 226.964844 303.050781 L 226.964844 172.054688 C 226.964844 165.46875 221.578125 160.082031 215 160.082031 L 49.554688 160.082031 C 42.972656 160.082031 37.585938 154.691406 37.585938 148.109375 " fill-opacity="1" fill-rule="evenodd"/></g><path fill="#181a48" d="M 151.734375 218.710938 L 228.992188 218.710938 C 230.003906 218.710938 230.828125 219.539062 230.828125 220.550781 L 230.828125 252.265625 C 230.828125 253.277344 230.003906 254.101562 228.992188 254.101562 L 151.734375 254.101562 C 142.003906 254.101562 134.046875 246.140625 134.046875 236.410156 C 134.046875 226.675781 142.003906 218.710938 151.734375 218.710938 " fill-opacity="1" fill-rule="evenodd"/><path fill="#697aba" d="M 151.734375 215.367188 L 228.992188 215.367188 C 230.003906 215.367188 230.828125 216.195312 230.828125 217.203125 L 230.828125 248.921875 C 230.828125 249.929688 230.003906 250.757812 228.992188 250.757812 L 151.734375 250.757812 C 142.003906 250.757812 134.046875 242.796875 134.046875 233.0625 C 134.046875 223.328125 142.003906 215.367188 151.734375 215.367188 " fill-opacity="1" fill-rule="evenodd"/><path fill="#f8bc2b" d="M 151.585938 244.066406 C 156.722656 244.066406 160.914062 239.875 160.914062 234.734375 C 160.914062 229.59375 156.722656 225.402344 151.585938 225.402344 C 146.449219 225.402344 142.257812 229.59375 142.257812 234.734375 C 142.257812 239.875 146.449219 244.066406 151.585938 244.066406 " fill-opacity="1" fill-rule="evenodd"/><path fill="#fcd735" d="M 151.585938 242.625 C 156.328125 242.625 160.195312 238.757812 160.195312 234.015625 C 160.195312 229.273438 156.328125 225.402344 151.585938 225.402344 C 146.84375 225.402344 142.976562 229.273438 142.976562 234.015625 C 142.976562 238.757812 146.84375 242.625 151.585938 242.625 " fill-opacity="1" fill-rule="evenodd"/><path fill="#fff274" d="M 154.3125 234.820312 C 156.261719 234.820312 157.847656 233.230469 157.847656 231.285156 C 157.847656 229.335938 156.261719 227.753906 154.3125 227.753906 C 152.367188 227.753906 150.78125 229.335938 150.78125 231.285156 C 150.78125 233.230469 152.367188 234.820312 154.3125 234.820312 " fill-opacity="1" fill-rule="evenodd"/><path fill="#faa821" d="M 222.859375 231.714844 C 249.847656 230.910156 272.375 252.144531 273.175781 279.140625 C 273.980469 306.136719 252.757812 328.675781 225.769531 329.476562 C 223.007812 329.5625 220.25 329.640625 217.484375 329.722656 C 190.5 330.527344 167.96875 309.292969 167.164062 282.296875 C 166.363281 255.300781 187.589844 232.761719 214.574219 231.960938 C 217.339844 231.878906 220.097656 231.796875 222.859375 231.714844 " fill-opacity="1" fill-rule="evenodd"/><path fill="#f8bd2d" d="M 188.300781 321.117188 L 254.386719 319.148438 C 251.085938 321.734375 247.441406 323.902344 243.527344 325.578125 L 199.527344 326.886719 C 195.519531 325.449219 191.753906 323.5 188.300781 321.117188 " fill-opacity="1" fill-rule="evenodd"/><path fill="#f8bd2d" d="M 177.40625 310.816406 L 264.652344 308.21875 C 263.128906 310.441406 261.425781 312.535156 259.5625 314.476562 L 182.855469 316.757812 C 180.882812 314.933594 179.058594 312.945312 177.40625 310.816406 " fill-opacity="1" fill-rule="evenodd"/><path fill="#f8bd2d" d="M 171.203125 300.378906 L 270.222656 297.429688 C 269.441406 299.5625 268.515625 301.628906 267.453125 303.613281 L 174.335938 306.386719 C 173.15625 304.46875 172.109375 302.460938 171.203125 300.378906 " fill-opacity="1" fill-rule="evenodd"/><path fill="#f8bd2d" d="M 167.976562 289.847656 L 272.820312 286.726562 C 272.558594 288.8125 272.164062 290.863281 271.644531 292.863281 L 169.511719 295.90625 C 168.875 293.9375 168.359375 291.917969 167.976562 289.847656 " fill-opacity="1" fill-rule="evenodd"/><path fill="#f8bd2d" d="M 167.171875 279.242188 L 272.992188 276.09375 C 273.082031 277.101562 273.148438 278.117188 273.175781 279.140625 C 273.210938 280.164062 273.203125 281.179688 273.171875 282.191406 L 167.355469 285.34375 C 167.265625 284.335938 167.199219 283.320312 167.164062 282.296875 C 167.136719 281.273438 167.140625 280.257812 167.171875 279.242188 " fill-opacity="1" fill-rule="evenodd"/><path fill="#f8bd2d" d="M 168.699219 268.574219 L 270.832031 265.53125 C 271.46875 267.5 271.984375 269.519531 272.367188 271.589844 L 167.523438 274.710938 C 167.785156 272.625 168.179688 270.574219 168.699219 268.574219 " fill-opacity="1" fill-rule="evenodd"/><path fill="#f8bd2d" d="M 172.890625 257.824219 L 266.011719 255.050781 C 267.1875 256.96875 268.234375 258.976562 269.140625 261.0625 L 170.121094 264.011719 C 170.902344 261.875 171.828125 259.808594 172.890625 257.824219 " fill-opacity="1" fill-rule="evenodd"/><path fill="#f8bd2d" d="M 180.78125 246.960938 L 257.484375 244.679688 C 259.460938 246.503906 261.289062 248.492188 262.941406 250.621094 L 175.691406 253.21875 C 177.214844 250.996094 178.917969 248.902344 180.78125 246.960938 " fill-opacity="1" fill-rule="evenodd"/><path fill="#f8bd2d" d="M 196.816406 235.859375 L 240.816406 234.550781 C 244.824219 235.988281 248.59375 237.9375 252.042969 240.320312 L 185.953125 242.285156 C 189.257812 239.703125 192.902344 237.535156 196.816406 235.859375 " fill-opacity="1" fill-rule="evenodd"/><path fill="#fac43a" d="M 263.171875 310.265625 L 179.003906 312.769531 C 171.925781 304.570312 167.515625 293.972656 167.164062 282.296875 C 166.820312 270.621094 170.59375 259.78125 177.171875 251.171875 L 261.339844 248.664062 C 268.417969 256.867188 272.832031 267.464844 273.175781 279.140625 C 273.527344 290.816406 269.75 301.65625 263.171875 310.265625 " fill-opacity="1" fill-rule="evenodd"/><path fill="#fbd23e" d="M 177.40625 310.816406 L 264.652344 308.21875 C 264.175781 308.914062 263.6875 309.597656 263.171875 310.265625 L 179.003906 312.769531 C 178.453125 312.132812 177.921875 311.480469 177.40625 310.816406 " fill-opacity="1" fill-rule="evenodd"/><path fill="#fbd23e" d="M 171.203125 300.378906 L 270.222656 297.429688 C 269.441406 299.5625 268.515625 301.628906 267.453125 303.613281 L 174.335938 306.386719 C 173.15625 304.46875 172.109375 302.460938 171.203125 300.378906 " fill-opacity="1" fill-rule="evenodd"/><path fill="#fbd23e" d="M 167.976562 289.847656 L 272.820312 286.726562 C 272.558594 288.8125 272.164062 290.863281 271.644531 292.863281 L 169.511719 295.90625 C 168.875 293.9375 168.359375 291.917969 167.976562 289.847656 " fill-opacity="1" fill-rule="evenodd"/><path fill="#fbd23e" d="M 167.171875 279.242188 L 272.992188 276.09375 C 273.082031 277.101562 273.148438 278.117188 273.175781 279.140625 C 273.210938 280.164062 273.203125 281.179688 273.171875 282.191406 L 167.355469 285.34375 C 167.265625 284.335938 167.199219 283.320312 167.164062 282.296875 C 167.136719 281.273438 167.140625 280.257812 167.171875 279.242188 " fill-opacity="1" fill-rule="evenodd"/><path fill="#fbd23e" d="M 168.699219 268.574219 L 270.832031 265.53125 C 271.46875 267.5 271.984375 269.519531 272.367188 271.589844 L 167.523438 274.710938 C 167.785156 272.625 168.179688 270.574219 168.699219 268.574219 " fill-opacity="1" fill-rule="evenodd"/><path fill="#fbd23e" d="M 172.890625 257.824219 L 266.011719 255.050781 C 267.1875 256.96875 268.234375 258.976562 269.140625 261.0625 L 170.121094 264.011719 C 170.902344 261.875 171.828125 259.808594 172.890625 257.824219 " fill-opacity="1" fill-rule="evenodd"/><path fill="#fbd23e" d="M 262.941406 250.621094 L 175.691406 253.21875 C 176.167969 252.523438 176.660156 251.839844 177.171875 251.171875 L 261.339844 248.664062 C 261.890625 249.300781 262.421875 249.957031 262.941406 250.621094 " fill-opacity="1" fill-rule="evenodd"/><path fill="#fdeb56" d="M 176.960938 282.007812 C 176.15625 255.007812 197.382812 232.472656 224.367188 231.667969 C 251.355469 230.863281 273.882812 252.097656 274.6875 279.09375 C 275.488281 306.09375 254.265625 328.628906 227.277344 329.433594 C 200.289062 330.234375 177.765625 309.003906 176.960938 282.007812 " fill-opacity="1" fill-rule="evenodd"/><path fill="#f8bd2d" d="M 269.824219 279.238281 C 269.109375 255.261719 249.105469 236.40625 225.132812 237.117188 C 201.167969 237.832031 182.316406 257.847656 183.03125 281.824219 C 183.742188 305.800781 203.75 324.660156 227.71875 323.945312 C 251.6875 323.234375 270.539062 303.21875 269.824219 279.238281 " fill-opacity="1" fill-rule="evenodd"/><path fill="#fcd735" d="M 226.117188 323.023438 C 250.085938 322.308594 268.949219 302.726562 268.25 279.285156 C 267.554688 255.84375 247.558594 237.421875 223.59375 238.132812 C 199.625 238.847656 180.761719 258.429688 181.457031 281.871094 C 182.152344 305.3125 202.148438 323.734375 226.117188 323.023438 " fill-opacity="1" fill-rule="evenodd"/><path fill="#fce043" d="M 252.554688 247.847656 L 198.238281 314.164062 C 204.515625 318.921875 212.15625 322.027344 220.460938 322.832031 L 266.070312 267.152344 C 263.480469 259.507812 258.734375 252.851562 252.554688 247.847656 " fill-opacity="1" fill-rule="evenodd"/><path fill="#fce043" d="M 231.992188 238.679688 L 184.59375 296.546875 C 186.308594 300.6875 188.664062 304.5 191.546875 307.859375 L 244.808594 242.832031 C 240.847656 240.832031 236.535156 239.40625 231.992188 238.679688 " fill-opacity="1" fill-rule="evenodd"/><path fill="#eb8b23" d="M 225.015625 275.070312 C 222.199219 273.5625 219.648438 271.90625 218.773438 270.328125 C 217.394531 267.851562 218.078125 266.351562 218.617188 263.886719 C 219.886719 261.636719 222.097656 260.164062 224.550781 259.582031 Z M 225.800781 301.496094 C 224.285156 301.1875 222.828125 300.527344 221.585938 299.492188 C 219.871094 298.058594 218.773438 296.050781 218.707031 293.808594 C 218.640625 291.683594 216.644531 290.015625 214.242188 290.085938 C 211.839844 290.160156 209.945312 291.941406 210.007812 294.066406 C 210.136719 298.4375 212.269531 302.34375 215.601562 305.121094 C 218.554688 307.585938 222.238281 309 226.03125 309.335938 L 226.21875 315.597656 C 226.253906 316.824219 227.277344 317.789062 228.507812 317.753906 C 229.734375 317.714844 230.699219 316.691406 230.660156 315.464844 L 230.476562 309.234375 C 233.230469 308.863281 235.917969 307.917969 238.3125 306.386719 C 245.171875 301.992188 247.574219 294.019531 243.8125 287.25 C 240.582031 281.4375 236.441406 280.933594 233.125 279.074219 C 232.191406 278.585938 230.925781 277.992188 229.527344 277.324219 L 228.996094 259.507812 C 230.511719 259.820312 231.964844 260.476562 233.210938 261.511719 C 234.925781 262.945312 236.023438 264.953125 236.089844 267.191406 C 236.152344 269.320312 238.152344 270.988281 240.554688 270.917969 C 242.957031 270.847656 244.851562 269.0625 244.789062 266.9375 C 244.65625 262.566406 242.527344 258.660156 239.195312 255.882812 C 236.238281 253.417969 232.558594 252.003906 228.761719 251.667969 L 228.578125 245.40625 C 228.539062 244.183594 227.515625 243.214844 226.289062 243.25 C 225.066406 243.289062 224.097656 244.3125 224.132812 245.539062 L 224.320312 251.769531 C 221.566406 252.140625 218.875 253.085938 216.488281 254.621094 C 209.625 259.011719 207.222656 266.984375 210.984375 273.753906 C 212.609375 276.675781 219.738281 281.128906 225.28125 284.054688 Z M 230.476562 286.539062 C 233.035156 287.566406 234.652344 288.207031 236.023438 290.675781 C 237.402344 293.152344 236.714844 294.652344 236.183594 297.117188 C 234.910156 299.367188 232.699219 300.839844 230.242188 301.417969 L 229.789062 286.25 C 230.035156 286.355469 230.265625 286.453125 230.476562 286.539062 " fill-opacity="1" fill-rule="evenodd"/><path fill="#efa127" d="M 229.488281 276.011719 L 223.628906 283.160156 C 224.191406 283.46875 224.742188 283.769531 225.28125 284.054688 L 225.800781 301.496094 C 224.285156 301.1875 222.828125 300.53125 221.585938 299.492188 C 219.871094 298.058594 218.773438 296.050781 218.707031 293.808594 C 218.671875 292.683594 218.097656 291.683594 217.203125 291.007812 L 210.925781 298.671875 C 211.871094 301.160156 213.496094 303.367188 215.601562 305.121094 C 218.554688 307.585938 222.238281 309 226.03125 309.335938 L 226.21875 315.597656 C 226.222656 315.660156 226.226562 315.722656 226.234375 315.785156 L 230.515625 310.558594 L 230.476562 309.234375 C 230.914062 309.175781 231.347656 309.101562 231.777344 309.015625 L 245.480469 292.289062 C 245.265625 290.582031 244.71875 288.882812 243.8125 287.25 C 240.582031 281.4375 236.441406 280.933594 233.125 279.074219 C 232.191406 278.585938 230.925781 277.992188 229.527344 277.324219 Z M 242.679688 259.902344 L 236.175781 267.847656 C 236.582031 269.652344 238.40625 270.980469 240.554688 270.917969 C 242.957031 270.847656 244.851562 269.0625 244.789062 266.9375 C 244.714844 264.390625 243.957031 262 242.679688 259.902344 Z M 230.476562 286.539062 C 233.035156 287.566406 234.652344 288.207031 236.023438 290.675781 C 237.402344 293.152344 236.71875 294.652344 236.183594 297.117188 C 234.910156 299.367188 232.699219 300.839844 230.242188 301.417969 L 229.789062 286.25 C 230.035156 286.355469 230.265625 286.453125 230.476562 286.539062 " fill-opacity="1" fill-rule="evenodd"/><path fill="#efa127" d="M 227.804688 243.789062 L 224.214844 248.175781 L 224.320312 251.769531 C 223.035156 251.941406 221.765625 252.242188 220.535156 252.664062 L 209.222656 266.472656 C 209.117188 268.910156 209.679688 271.402344 210.984375 273.753906 C 211.703125 275.050781 213.507812 276.648438 215.773438 278.277344 L 220.644531 272.332031 C 219.796875 271.660156 219.136719 270.988281 218.773438 270.328125 C 217.394531 267.851562 218.078125 266.351562 218.617188 263.886719 C 219.886719 261.636719 222.097656 260.164062 224.550781 259.582031 L 224.78125 267.28125 L 229.070312 262.042969 L 228.996094 259.507812 C 229.582031 259.628906 230.160156 259.800781 230.722656 260.027344 L 235.902344 253.707031 C 233.683594 252.570312 231.246094 251.886719 228.761719 251.667969 L 228.578125 245.40625 C 228.558594 244.757812 228.261719 244.183594 227.804688 243.789062 " fill-opacity="1" fill-rule="evenodd"/><path fill="#faa821" d="M 293.539062 283.679688 C 322.769531 290.300781 344.214844 305.625 341.4375 317.902344 C 340.351562 322.699219 339.527344 326.324219 338.441406 331.125 C 335.664062 343.40625 309.714844 347.988281 280.484375 341.367188 C 251.25 334.75 229.808594 319.425781 232.585938 307.148438 C 233.671875 302.347656 234.492188 298.722656 235.582031 293.921875 C 238.355469 281.644531 264.308594 277.058594 293.539062 283.679688 " fill-opacity="1" fill-rule="evenodd"/><path fill="#f8bd2d" d="M 248.808594 283.09375 L 239.863281 322.617188 C 237.523438 320.472656 235.671875 318.28125 234.394531 316.097656 L 241.066406 286.625 C 243.160156 285.203125 245.773438 284.023438 248.808594 283.09375 " fill-opacity="1" fill-rule="evenodd"/><path fill="#f8bd2d" d="M 261.390625 280.882812 L 250.265625 330.035156 C 248.074219 328.777344 246.046875 327.476562 244.207031 326.144531 L 254.246094 281.785156 C 256.484375 281.375 258.871094 281.074219 261.390625 280.882812 " fill-opacity="1" fill-rule="evenodd"/><path fill="#f8bd2d" d="M 273.492188 280.8125 L 261.15625 335.316406 C 258.957031 334.417969 256.855469 333.464844 254.855469 332.480469 L 266.585938 280.65625 C 268.816406 280.625 271.121094 280.675781 273.492188 280.8125 " fill-opacity="1" fill-rule="evenodd"/><path fill="#f8bd2d" d="M 285.285156 282.089844 L 272.347656 339.246094 C 270.128906 338.589844 267.972656 337.882812 265.886719 337.136719 L 278.542969 281.210938 C 280.75 281.433594 283 281.726562 285.285156 282.089844 " fill-opacity="1" fill-rule="evenodd"/><path fill="#f8bd2d" d="M 296.835938 284.472656 L 283.796875 342.070312 C 282.695312 341.851562 281.59375 341.617188 280.484375 341.367188 C 279.375 341.117188 278.28125 340.851562 277.195312 340.578125 L 290.234375 282.972656 C 291.328125 283.195312 292.433594 283.425781 293.542969 283.679688 C 294.652344 283.929688 295.75 284.195312 296.835938 284.472656 " fill-opacity="1" fill-rule="evenodd"/><path fill="#f8bd2d" d="M 308.136719 287.914062 L 295.480469 343.839844 C 293.273438 343.613281 291.019531 343.320312 288.734375 342.957031 L 301.671875 285.800781 C 303.890625 286.457031 306.050781 287.164062 308.136719 287.914062 " fill-opacity="1" fill-rule="evenodd"/><path fill="#f8bd2d" d="M 319.167969 292.566406 L 307.441406 344.390625 C 305.210938 344.421875 302.902344 344.371094 300.53125 344.238281 L 312.871094 289.730469 C 315.066406 290.632812 317.171875 291.582031 319.167969 292.566406 " fill-opacity="1" fill-rule="evenodd"/><path fill="#f8bd2d" d="M 329.820312 298.90625 L 319.78125 343.261719 C 317.542969 343.671875 315.152344 343.972656 312.632812 344.164062 L 323.757812 295.011719 C 325.949219 296.265625 327.976562 297.570312 329.820312 298.90625 " fill-opacity="1" fill-rule="evenodd"/><path fill="#f8bd2d" d="M 339.632812 308.949219 L 332.960938 338.425781 C 330.867188 339.84375 328.253906 341.023438 325.21875 341.953125 L 334.164062 302.429688 C 336.503906 304.574219 338.355469 306.765625 339.632812 308.949219 " fill-opacity="1" fill-rule="evenodd"/><path fill="#fac43a" d="M 248.257812 328.84375 L 259.066406 281.09375 C 268.871094 280.050781 280.898438 280.816406 293.542969 283.679688 C 306.183594 286.542969 317.367188 291.035156 325.765625 296.203125 L 314.957031 343.953125 C 305.152344 345 293.125 344.230469 280.484375 341.367188 C 267.839844 338.503906 256.660156 334.015625 248.257812 328.84375 " fill-opacity="1" fill-rule="evenodd"/><path fill="#fbd23e" d="M 261.390625 280.882812 L 250.265625 330.035156 C 249.582031 329.644531 248.914062 329.246094 248.257812 328.84375 L 259.066406 281.09375 C 259.828125 281.011719 260.605469 280.941406 261.390625 280.882812 " fill-opacity="1" fill-rule="evenodd"/><path fill="#fbd23e" d="M 273.492188 280.8125 L 261.15625 335.316406 C 258.957031 334.417969 256.855469 333.464844 254.855469 332.480469 L 266.585938 280.65625 C 268.816406 280.625 271.121094 280.675781 273.492188 280.8125 " fill-opacity="1" fill-rule="evenodd"/><path fill="#fbd23e" d="M 285.285156 282.089844 L 272.347656 339.246094 C 270.128906 338.589844 267.972656 337.882812 265.886719 337.136719 L 278.542969 281.210938 C 280.75 281.433594 283 281.726562 285.285156 282.089844 " fill-opacity="1" fill-rule="evenodd"/><path fill="#fbd23e" d="M 296.835938 284.472656 L 283.796875 342.070312 C 282.695312 341.851562 281.59375 341.617188 280.484375 341.367188 C 279.375 341.117188 278.28125 340.851562 277.195312 340.578125 L 290.234375 282.972656 C 291.328125 283.195312 292.433594 283.425781 293.542969 283.679688 C 294.652344 283.929688 295.75 284.195312 296.835938 284.472656 " fill-opacity="1" fill-rule="evenodd"/><path fill="#fbd23e" d="M 308.136719 287.914062 L 295.480469 343.839844 C 293.273438 343.613281 291.019531 343.320312 288.734375 342.957031 L 301.671875 285.800781 C 303.890625 286.457031 306.050781 287.164062 308.136719 287.914062 " fill-opacity="1" fill-rule="evenodd"/><path fill="#fbd23e" d="M 319.167969 292.566406 L 307.441406 344.390625 C 305.210938 344.421875 302.902344 344.371094 300.53125 344.238281 L 312.871094 289.730469 C 315.066406 290.632812 317.171875 291.582031 319.167969 292.566406 " fill-opacity="1" fill-rule="evenodd"/><path fill="#fbd23e" d="M 312.632812 344.164062 L 323.757812 295.011719 C 324.445312 295.402344 325.113281 295.800781 325.765625 296.203125 L 314.957031 343.953125 C 314.199219 344.035156 313.417969 344.105469 312.632812 344.164062 " fill-opacity="1" fill-rule="evenodd"/><path fill="#fdeb56" d="M 293.539062 283.679688 C 322.769531 290.300781 344.214844 305.625 341.4375 317.902344 C 338.65625 330.179688 312.710938 334.765625 283.472656 328.144531 C 254.242188 321.523438 232.800781 306.199219 235.582031 293.921875 C 238.355469 281.644531 264.308594 277.058594 293.539062 283.679688 " fill-opacity="1" fill-rule="evenodd"/><path fill="#f8bd2d" d="M 292.976562 286.164062 C 318.9375 292.046875 337.984375 305.65625 335.519531 316.558594 C 333.046875 327.464844 310 331.539062 284.039062 325.65625 C 258.074219 319.777344 239.03125 306.167969 241.5 295.261719 C 243.96875 284.359375 267.015625 280.285156 292.976562 286.164062 " fill-opacity="1" fill-rule="evenodd"/><path fill="#fcd735" d="M 292.3125 289.101562 C 318.273438 294.984375 337.457031 307.996094 335.152344 318.164062 C 332.851562 328.335938 309.941406 331.8125 283.976562 325.929688 C 258.015625 320.050781 238.835938 307.039062 241.136719 296.867188 C 243.441406 286.695312 266.351562 283.21875 292.3125 289.101562 " fill-opacity="1" fill-rule="evenodd"/><path fill="#fce043" d="M 316.050781 328.375 L 261.476562 286.53125 C 268.601562 285.890625 277.097656 286.296875 286.164062 287.871094 L 331.988281 323.007812 C 328.671875 325.773438 323.085938 327.609375 316.050781 328.375 " fill-opacity="1" fill-rule="evenodd"/><path fill="#fce043" d="M 293.125 327.640625 L 245.507812 291.128906 C 247.636719 289.703125 250.449219 288.570312 253.796875 287.757812 L 307.308594 328.789062 C 302.878906 328.75 298.105469 328.375 293.125 327.640625 " fill-opacity="1" fill-rule="evenodd"/><path fill="#eb8b23" d="M 294.53125 306.964844 C 296.535156 306.097656 298.671875 305.386719 300.488281 305.398438 C 303.347656 305.425781 304.871094 306.121094 307.457031 306.996094 C 309.714844 308.144531 311.003906 309.515625 311.296875 310.765625 Z M 265.917969 300.484375 C 266.457031 299.886719 267.363281 299.40625 268.644531 299.117188 C 270.421875 298.722656 272.738281 298.75 275.167969 299.300781 C 277.472656 299.820312 279.542969 299.359375 279.789062 298.265625 C 280.035156 297.171875 278.367188 295.863281 276.0625 295.34375 C 271.332031 294.269531 266.828125 294.214844 263.386719 294.984375 C 260.324219 295.667969 258.304688 296.949219 257.429688 298.5625 L 250.652344 297.027344 C 249.320312 296.726562 248.140625 296.933594 248.015625 297.492188 C 247.890625 298.050781 248.863281 298.746094 250.191406 299.046875 L 256.9375 300.574219 C 256.964844 301.902344 257.621094 303.351562 258.949219 304.816406 C 262.765625 309.023438 271.039062 312.15625 278.851562 312.226562 C 285.558594 312.28125 286.660156 310.5625 289.113281 309.558594 C 289.769531 309.265625 290.582031 308.855469 291.492188 308.402344 L 310.777344 312.769531 C 310.242188 313.367188 309.335938 313.847656 308.050781 314.136719 C 306.273438 314.535156 303.957031 314.507812 301.53125 313.960938 C 299.226562 313.4375 297.15625 313.898438 296.910156 314.992188 C 296.664062 316.085938 298.328125 317.394531 300.632812 317.914062 C 305.363281 318.988281 309.867188 319.042969 313.316406 318.269531 C 316.375 317.585938 318.394531 316.308594 319.269531 314.695312 L 326.046875 316.230469 C 327.375 316.53125 328.554688 316.324219 328.683594 315.765625 C 328.808594 315.207031 327.832031 314.511719 326.507812 314.210938 L 319.757812 312.679688 C 319.730469 311.355469 319.074219 309.90625 317.746094 308.441406 C 313.929688 304.234375 305.660156 301.097656 297.847656 301.03125 C 294.476562 301 288.710938 303.039062 284.804688 304.765625 Z M 281.421875 306.445312 C 279.964844 307.324219 279.058594 307.882812 276.207031 307.855469 C 273.347656 307.832031 271.828125 307.136719 269.238281 306.261719 C 266.984375 305.109375 265.691406 303.738281 265.398438 302.492188 L 281.824219 306.210938 C 281.679688 306.292969 281.542969 306.371094 281.421875 306.445312 " fill-opacity="1" fill-rule="evenodd"/><path fill="#efa127" d="M 294.53125 306.964844 L 311.296875 310.765625 C 311.003906 309.515625 309.714844 308.144531 307.457031 306.996094 C 304.871094 306.121094 303.347656 305.425781 300.488281 305.398438 C 298.671875 305.386719 296.539062 306.097656 294.53125 306.964844 Z M 278.242188 299.390625 L 272.085938 294.667969 C 273.378906 294.8125 274.710938 295.035156 276.0625 295.34375 C 278.367188 295.863281 280.035156 297.171875 279.785156 298.265625 C 279.664062 298.8125 279.082031 299.203125 278.242188 299.390625 Z M 303 318.371094 L 297.558594 314.199219 C 298.394531 313.710938 299.902344 313.589844 301.53125 313.960938 C 303.953125 314.507812 306.273438 314.535156 308.050781 314.136719 C 309.335938 313.847656 310.242188 313.367188 310.777344 312.769531 L 291.492188 308.402344 L 290.585938 308.851562 L 285.089844 304.640625 C 288.984375 302.941406 294.558594 301.003906 297.847656 301.03125 C 299.976562 301.050781 302.140625 301.296875 304.238281 301.730469 L 321.929688 315.296875 L 319.269531 314.695312 C 318.394531 316.308594 316.371094 317.589844 313.3125 318.273438 C 310.449219 318.914062 306.847656 318.984375 303 318.371094 " fill-opacity="1" fill-rule="evenodd"/><path fill="#efa127" d="M 279.472656 307.441406 C 278.683594 307.71875 277.71875 307.871094 276.207031 307.855469 C 273.347656 307.832031 271.824219 307.136719 269.238281 306.261719 C 266.980469 305.109375 265.691406 303.742188 265.398438 302.492188 L 276.210938 304.941406 L 272.277344 301.925781 L 265.917969 300.484375 C 266.453125 299.890625 267.351562 299.410156 268.621094 299.125 L 263.261719 295.011719 C 260.269531 295.707031 258.289062 296.972656 257.429688 298.5625 L 254.269531 297.847656 L 271.972656 311.421875 C 274.222656 311.921875 276.554688 312.207031 278.847656 312.226562 C 281.652344 312.25 283.472656 311.964844 284.828125 311.550781 L 279.472656 307.441406 " fill-opacity="1" fill-rule="evenodd"/></svg>