<svg xmlns="http://www.w3.org/2000/svg" xmlns:xlink="http://www.w3.org/1999/xlink" width="500" zoomAndPan="magnify" viewBox="0 0 375 374.999991" height="500" preserveAspectRatio="xMidYMid meet" version="1.0"><defs><clipPath id="dee1987d31"><path d="M 6 22 L 370.597656 22 L 370.597656 353.390625 L 6 353.390625 Z M 6 22 " clip-rule="nonzero"/></clipPath><clipPath id="10ae1c9ece"><path d="M 6 22 L 370.597656 22 L 370.597656 353.390625 L 6 353.390625 Z M 6 22 " clip-rule="nonzero"/></clipPath></defs><g clip-path="url(#dee1987d31)"><path fill="#000000" d="M 370.484375 261.484375 C 370.46875 261.71875 370.460938 261.839844 370.460938 261.839844 C 369.484375 274.820312 363.496094 284.25 354.835938 286.449219 C 353.546875 286.777344 352.234375 286.9375 350.910156 286.9375 C 345.734375 286.9375 340.367188 284.464844 335.453125 279.742188 C 333.09375 277.476562 330.945312 274.78125 329.054688 271.765625 C 327.8125 272.527344 326.484375 273.085938 325.101562 273.4375 C 323.625 273.8125 322.117188 273.9375 320.597656 273.832031 C 320.585938 273.832031 320.574219 273.832031 320.5625 273.828125 C 320.355469 273.816406 320.144531 273.796875 319.933594 273.773438 C 319.742188 273.753906 319.546875 273.730469 319.355469 273.703125 C 319.339844 273.699219 319.324219 273.695312 319.308594 273.695312 C 318.839844 273.625 318.375 273.542969 317.90625 273.429688 C 309.878906 271.496094 304.371094 264.570312 301.164062 259.097656 C 300.929688 258.703125 300.707031 258.300781 300.484375 257.894531 C 298.195312 259.847656 295.253906 260.929688 292.210938 260.929688 C 291.097656 260.929688 289.972656 260.789062 288.867188 260.496094 C 288.839844 260.488281 288.816406 260.484375 288.792969 260.472656 C 287.988281 260.214844 287.199219 259.917969 286.433594 259.582031 C 285.828125 259.324219 285.226562 259.027344 284.628906 258.695312 C 278.996094 255.664062 274.589844 250.457031 271.707031 243.597656 C 269.996094 245.527344 267.933594 246.835938 265.632812 247.417969 C 263.335938 248 260.960938 247.8125 258.636719 246.988281 C 257.640625 246.65625 256.648438 246.210938 255.675781 245.628906 C 253.46875 244.3125 251.609375 242.628906 250.050781 240.800781 C 249.042969 242.863281 248.046875 244.925781 247.054688 246.96875 C 246.042969 249.050781 245.035156 251.136719 244.019531 253.21875 C 224.550781 293.226562 205.53125 328.230469 169.84375 351.449219 C 167.742188 352.707031 165.140625 353.320312 162.542969 353.320312 C 159.359375 353.320312 156.171875 352.398438 153.890625 350.609375 L 125.742188 328.503906 C 106.25 313.195312 86.753906 297.886719 67.261719 282.574219 C 65.308594 281.042969 64.308594 279.046875 64.445312 276.949219 C 64.574219 274.917969 65.78125 272.96875 67.796875 271.472656 L 65.707031 269.832031 C 63.757812 268.300781 62.753906 266.300781 62.886719 264.207031 C 63.019531 262.171875 64.226562 260.222656 66.242188 258.726562 L 64.152344 257.085938 C 62.199219 255.554688 61.199219 253.554688 61.332031 251.460938 C 61.460938 249.425781 62.671875 247.476562 64.6875 245.980469 L 62.597656 244.339844 C 60.644531 242.808594 59.644531 240.808594 59.78125 238.710938 C 59.929688 236.371094 61.507812 234.140625 64.105469 232.589844 C 93.535156 213.445312 110.847656 186.117188 123.886719 161.871094 C 120.785156 163.039062 116.621094 164.175781 112.1875 164.175781 C 110.886719 164.175781 109.5625 164.0625 108.234375 163.835938 C 108.09375 163.8125 107.957031 163.789062 107.816406 163.761719 C 107.589844 163.71875 107.359375 163.683594 107.128906 163.632812 C 106.609375 163.519531 106.105469 163.382812 105.617188 163.234375 C 105.605469 163.234375 105.597656 163.230469 105.585938 163.226562 C 105.578125 163.226562 105.570312 163.222656 105.558594 163.21875 C 101.902344 162.101562 99.136719 159.988281 97.578125 157.046875 C 96.464844 154.945312 96.050781 152.535156 96.332031 149.972656 C 92.527344 151.308594 88.78125 151.996094 85.191406 151.996094 C 82.1875 151.996094 79.296875 151.515625 76.5625 150.558594 C 75.773438 150.292969 75.019531 149.984375 74.300781 149.632812 C 73.644531 149.324219 72.992188 149 72.355469 148.632812 C 72.335938 148.621094 72.316406 148.605469 72.292969 148.59375 C 68.699219 146.257812 66.53125 142.34375 66.410156 138.234375 C 65.96875 138.339844 65.523438 138.445312 65.078125 138.539062 C 64.824219 138.589844 64.554688 138.632812 64.292969 138.683594 C 64.179688 138.707031 64.0625 138.726562 63.945312 138.75 C 61.738281 139.152344 59.277344 139.449219 56.710938 139.449219 C 52.160156 139.449219 47.324219 138.539062 43.21875 135.738281 C 42.613281 135.324219 42.046875 134.867188 41.515625 134.382812 C 41.460938 134.335938 41.410156 134.289062 41.359375 134.242188 C 41.078125 133.976562 40.808594 133.703125 40.546875 133.417969 C 39.703125 132.507812 38.96875 131.511719 38.382812 130.40625 C 37.714844 129.144531 37.242188 127.789062 36.972656 126.355469 C 34.386719 126.8125 31.84375 127.050781 29.375 127.050781 C 28.492188 127.050781 27.625 127.019531 26.765625 126.960938 C 19.039062 126.421875 13.085938 123.488281 9.757812 118.660156 C 9.699219 118.582031 9.648438 118.503906 9.59375 118.421875 C 9.304688 117.992188 9.03125 117.550781 8.789062 117.085938 C 4.605469 109.191406 7.578125 98.417969 16.550781 88.976562 L 16.554688 88.984375 C 16.636719 88.886719 16.71875 88.800781 16.789062 88.730469 C 18.359375 87.101562 20.09375 85.53125 21.949219 84.0625 C 36.058594 72.472656 73.488281 49.339844 115.832031 85.226562 C 129.703125 96.984375 139.234375 108.96875 144.292969 120.972656 C 162.011719 84.6875 181.429688 48.265625 217.46875 24.824219 C 222.148438 22.027344 229.28125 22.421875 233.414062 25.667969 L 320.046875 93.695312 C 321.996094 95.226562 322.996094 97.222656 322.863281 99.320312 C 322.734375 101.355469 321.527344 103.304688 319.507812 104.800781 L 321.601562 106.441406 C 323.550781 107.972656 324.550781 109.972656 324.417969 112.066406 C 324.289062 114.101562 323.082031 116.050781 321.0625 117.546875 L 323.152344 119.1875 C 325.105469 120.71875 326.105469 122.71875 325.972656 124.8125 C 325.84375 126.847656 324.632812 128.796875 322.617188 130.292969 L 324.707031 131.933594 C 326.65625 133.460938 327.660156 135.460938 327.527344 137.554688 C 327.378906 139.890625 325.8125 142.117188 323.226562 143.671875 C 305.460938 155.230469 292.160156 169.703125 281.554688 184.632812 C 289.199219 184.140625 297.554688 184.480469 306.613281 185.6875 C 361.625 193.003906 369.601562 236.285156 370.476562 254.554688 C 370.636719 256.886719 370.636719 259.226562 370.484375 261.484375 Z M 370.484375 261.484375 " fill-opacity="1" fill-rule="nonzero"/></g><path fill="#6ec565" d="M 168.316406 349 C 164.746094 351.132812 158.839844 350.824219 155.671875 348.339844 L 127.527344 326.234375 C 108.03125 310.925781 88.535156 295.617188 69.042969 280.304688 C 68.210938 279.652344 67.234375 278.566406 67.324219 277.136719 C 67.410156 275.789062 68.4375 274.425781 70.183594 273.347656 L 152.339844 337.863281 C 154.617188 339.652344 157.800781 340.574219 160.988281 340.574219 C 163.585938 340.574219 166.183594 339.960938 168.289062 338.703125 C 202.929688 316.171875 222.207031 281.640625 239.386719 246.773438 C 240.042969 248.644531 240.648438 250.550781 241.179688 252.457031 C 221.988281 291.859375 203.191406 326.3125 168.316406 349 Z M 324.648438 137.375 C 324.738281 135.941406 323.761719 134.859375 322.925781 134.207031 L 320.097656 131.984375 C 298.875 146.222656 283.542969 165.195312 270.859375 185.964844 C 273.121094 185.535156 275.460938 185.191406 277.875 184.941406 C 288.8125 169.246094 302.890625 153.453125 321.675781 141.234375 C 321.6875 141.226562 321.707031 141.214844 321.722656 141.207031 C 323.496094 140.148438 324.5625 138.75 324.648438 137.375 Z M 323.09375 124.628906 C 323.183594 123.195312 322.207031 122.113281 321.375 121.457031 L 318.546875 119.238281 C 292.109375 136.972656 274.816406 162.050781 260.386719 188.789062 C 262.488281 188.027344 264.6875 187.371094 266.96875 186.808594 C 280.417969 164.300781 296.78125 143.671875 320.125 128.488281 C 320.136719 128.476562 320.15625 128.46875 320.171875 128.457031 C 321.9375 127.402344 323.003906 126.003906 323.09375 124.628906 Z M 65.769531 264.390625 C 65.675781 265.824219 66.652344 266.90625 67.488281 267.5625 L 154.121094 335.59375 C 157.285156 338.078125 163.191406 338.386719 166.761719 336.253906 C 201.519531 313.644531 220.671875 278.414062 237.980469 243.085938 C 237.777344 242.582031 237.578125 242.070312 237.371094 241.582031 C 236.859375 240.390625 236.328125 239.25 235.785156 238.152344 C 219.109375 271.601562 200.007812 304.316406 166.734375 325.960938 C 164.628906 327.214844 162.03125 327.828125 159.433594 327.828125 C 156.246094 327.828125 153.0625 326.90625 150.785156 325.121094 L 68.628906 260.601562 C 66.882812 261.679688 65.855469 263.042969 65.769531 264.390625 Z M 321.539062 111.882812 C 321.628906 110.449219 320.652344 109.367188 319.820312 108.710938 L 316.980469 106.480469 C 312.167969 109.707031 307.5 113.28125 303.082031 117.128906 C 300.84375 119.078125 298.644531 121.109375 296.550781 123.175781 C 275.472656 143.898438 261.210938 170.511719 249.527344 194.125 C 250.363281 193.585938 251.222656 193.054688 252.136719 192.542969 C 253.4375 191.8125 254.800781 191.148438 256.191406 190.515625 C 271.417969 161.75 289.632812 134.5625 318.570312 115.742188 C 318.585938 115.730469 318.601562 115.722656 318.617188 115.710938 C 320.386719 114.65625 321.453125 113.261719 321.539062 111.882812 Z M 64.214844 251.644531 C 64.125 253.078125 65.097656 254.160156 65.933594 254.816406 L 152.566406 322.847656 C 155.730469 325.332031 161.636719 325.640625 165.207031 323.511719 C 198.429688 301.898438 217.394531 268.757812 234.121094 235.019531 C 233.925781 234.671875 233.730469 234.320312 233.527344 233.992188 C 233.511719 233.960938 233.492188 233.929688 233.476562 233.898438 C 232.808594 232.800781 232.136719 231.8125 231.46875 230.910156 C 213.523438 266.15625 195.207031 293.683594 165.179688 313.214844 C 163.097656 314.460938 160.503906 315.082031 157.890625 315.082031 C 155.390625 315.082031 152.878906 314.515625 150.777344 313.378906 C 150.675781 313.328125 150.574219 313.273438 150.472656 313.210938 C 150.070312 312.984375 149.632812 312.695312 149.226562 312.375 C 146.074219 309.898438 142.921875 307.425781 139.769531 304.953125 C 136.308594 302.230469 132.84375 299.507812 129.382812 296.792969 L 100.871094 274.398438 C 98.132812 272.246094 95.394531 270.097656 92.65625 267.949219 L 91.828125 267.300781 C 89.3125 265.320312 86.792969 263.34375 84.277344 261.367188 L 67.074219 247.859375 C 65.328125 248.933594 64.300781 250.296875 64.214844 251.644531 Z M 142.898438 130.441406 C 144.757812 131.054688 146.601562 131.679688 148.417969 132.320312 C 163.835938 100.121094 180.042969 67.085938 207.796875 42.152344 C 208.125 41.855469 208.578125 41.726562 209.015625 41.804688 C 209.453125 41.886719 209.832031 42.164062 210.039062 42.558594 C 210.769531 43.957031 211.820312 45.199219 213.082031 46.15625 C 218.886719 50.558594 227.703125 50.5 234.519531 46.011719 C 235.984375 45.046875 237.25 43.863281 238.179688 42.59375 C 238.410156 42.277344 238.757812 42.070312 239.148438 42.015625 C 239.535156 41.960938 239.925781 42.070312 240.234375 42.3125 L 296.371094 86.394531 C 296.808594 86.738281 297.007812 87.296875 296.890625 87.839844 C 296.773438 88.378906 296.359375 88.804688 295.820312 88.933594 C 293.898438 89.398438 292.074219 90.175781 290.546875 91.179688 C 287.902344 92.917969 286.316406 95.625 286.199219 98.609375 C 286.078125 101.691406 287.496094 104.613281 290.089844 106.628906 C 291.460938 107.695312 293.035156 108.507812 294.765625 109.050781 C 295.261719 109.207031 295.636719 109.613281 295.746094 110.121094 C 295.855469 110.628906 295.6875 111.15625 295.300781 111.503906 C 271.464844 132.914062 256.195312 160.574219 242.53125 188.484375 C 244.015625 189.890625 245.5 191.335938 246.960938 192.800781 C 258.746094 168.988281 273.144531 142.140625 294.527344 121.121094 C 296.664062 119.011719 298.90625 116.9375 301.191406 114.949219 C 306.199219 110.589844 311.523438 106.566406 317.015625 102.996094 C 317.03125 102.984375 317.046875 102.976562 317.0625 102.964844 C 318.832031 101.910156 319.898438 100.515625 319.984375 99.136719 C 320.078125 97.703125 319.101562 96.621094 318.265625 95.964844 L 231.632812 27.9375 C 229.882812 26.566406 227.296875 25.855469 224.730469 25.855469 C 222.65625 25.855469 220.589844 26.320312 218.996094 27.269531 C 180.953125 52.015625 161.597656 91.878906 142.898438 130.441406 Z M 62.660156 238.898438 C 62.570312 240.332031 63.546875 241.414062 64.378906 242.070312 L 86.0625 259.097656 C 88.578125 261.074219 91.097656 263.050781 93.613281 265.03125 L 94.4375 265.675781 C 97.175781 267.824219 99.914062 269.972656 102.65625 272.128906 L 131.167969 294.519531 C 134.628906 297.238281 138.09375 299.957031 141.554688 302.679688 C 144.707031 305.152344 147.859375 307.625 151.011719 310.105469 C 151.296875 310.332031 151.613281 310.539062 151.945312 310.726562 C 151.972656 310.738281 152.089844 310.804688 152.121094 310.820312 C 155.527344 312.679688 160.488281 312.65625 163.652344 310.765625 C 193.417969 291.402344 211.554688 263.84375 229.472656 228.460938 C 229.421875 228.402344 229.367188 228.339844 229.316406 228.28125 L 229.132812 228.070312 C 227.890625 226.652344 226.628906 225.269531 225.367188 223.917969 C 212.300781 250.058594 197.382812 275.640625 174.851562 295.882812 C 174.582031 296.121094 174.238281 296.25 173.886719 296.25 C 173.800781 296.25 173.714844 296.242188 173.628906 296.226562 C 173.191406 296.148438 172.8125 295.871094 172.605469 295.476562 C 171.878906 294.082031 170.824219 292.835938 169.5625 291.878906 C 163.757812 287.476562 154.945312 287.535156 148.128906 292.023438 C 146.660156 292.992188 145.394531 294.171875 144.464844 295.441406 C 144.234375 295.757812 143.886719 295.964844 143.496094 296.019531 C 143.109375 296.074219 142.71875 295.964844 142.410156 295.722656 L 86.273438 251.640625 C 85.835938 251.296875 85.636719 250.738281 85.753906 250.195312 C 85.871094 249.65625 86.285156 249.230469 86.824219 249.101562 C 88.746094 248.636719 90.570312 247.859375 92.097656 246.855469 C 94.746094 245.117188 96.332031 242.410156 96.449219 239.425781 C 96.570312 236.34375 95.152344 233.417969 92.554688 231.40625 C 91.183594 230.339844 89.609375 229.523438 87.878906 228.984375 C 87.382812 228.828125 87.007812 228.421875 86.898438 227.914062 C 86.789062 227.40625 86.960938 226.878906 87.34375 226.53125 C 106.488281 209.335938 120.109375 188.105469 131.808594 165.949219 C 129.867188 165.304688 127.914062 164.679688 125.96875 164.089844 C 112.808594 188.441406 95.308594 215.734375 65.628906 235.039062 C 63.816406 236.125 62.75 237.519531 62.660156 238.898438 Z M 145.074219 170.761719 C 145.980469 171.117188 146.90625 171.5 147.832031 171.878906 C 142.1875 194.042969 141.207031 219.480469 157.320312 232.175781 C 162.691406 236.40625 168.453125 238.53125 174.519531 238.53125 C 176.585938 238.53125 178.683594 238.285156 180.8125 237.792969 C 193.707031 234.8125 205.277344 223.523438 213.609375 212.371094 C 214.625 213.28125 215.648438 214.21875 216.65625 215.167969 C 217.21875 215.6875 217.773438 216.21875 218.339844 216.765625 C 218.484375 216.902344 218.632812 217.046875 218.78125 217.1875 L 218.835938 217.242188 C 220.320312 218.675781 221.800781 220.171875 223.253906 221.6875 C 210.445312 247.402344 195.917969 272.601562 174.203125 292.570312 C 173.398438 291.4375 172.417969 290.421875 171.308594 289.578125 C 164.546875 284.449219 154.363281 284.460938 146.542969 289.613281 C 145.21875 290.484375 144.058594 291.480469 143.078125 292.574219 L 90.207031 251.058594 C 91.449219 250.570312 92.625 249.96875 93.683594 249.273438 C 97.121094 247.015625 99.179688 243.46875 99.335938 239.539062 C 99.492188 235.511719 97.667969 231.71875 94.328125 229.125 C 93.304688 228.332031 92.195312 227.65625 91.007812 227.101562 C 109.695312 209.789062 123.066406 188.757812 134.585938 166.882812 C 138.015625 168.066406 141.535156 169.367188 145.074219 170.761719 Z M 143.367188 276.761719 C 143.652344 277.097656 144.058594 277.273438 144.46875 277.273438 C 144.796875 277.273438 145.128906 277.160156 145.398438 276.929688 C 153.027344 270.480469 159.996094 263.574219 166.710938 255.820312 C 167.234375 255.21875 167.167969 254.304688 166.566406 253.78125 C 165.964844 253.261719 165.050781 253.328125 164.53125 253.929688 C 157.914062 261.570312 151.046875 268.375 143.535156 274.726562 C 142.925781 275.242188 142.851562 276.152344 143.367188 276.761719 Z M 127.957031 243.835938 C 124.957031 246.757812 123.378906 250.71875 123.628906 254.703125 C 123.855469 258.332031 125.59375 261.546875 128.523438 263.761719 C 131.777344 266.222656 135.726562 267.4375 139.613281 267.4375 C 144.015625 267.4375 148.34375 265.878906 151.496094 262.808594 C 154.214844 260.164062 155.59375 256.542969 155.375 252.617188 C 155.140625 248.4375 153.136719 244.585938 149.867188 242.050781 C 143.5 237.105469 134.082031 237.871094 127.957031 243.835938 Z M 240.324219 186.425781 C 239.113281 185.3125 237.894531 184.207031 236.699219 183.15625 C 236.550781 183.015625 236.402344 182.886719 236.234375 182.742188 C 234.601562 181.304688 232.925781 179.875 231.148438 178.402344 C 239.464844 154.191406 244.519531 120.984375 225.324219 105.859375 C 218.109375 100.171875 210.191406 98.273438 201.789062 100.21875 C 184.300781 104.261719 169.230469 123.679688 161.394531 137.226562 C 158.046875 135.867188 154.609375 134.546875 151.152344 133.292969 C 166.167969 101.9375 181.964844 69.8125 208.441406 45.464844 C 209.25 46.601562 210.230469 47.617188 211.335938 48.457031 C 218.101562 53.585938 228.285156 53.570312 236.105469 48.421875 C 237.429688 47.550781 238.589844 46.558594 239.570312 45.457031 L 292.441406 86.980469 C 291.195312 87.464844 290.019531 88.066406 288.960938 88.765625 C 285.527344 91.019531 283.46875 94.566406 283.3125 98.496094 C 283.152344 102.519531 284.980469 106.316406 288.320312 108.910156 C 289.339844 109.703125 290.453125 110.378906 291.640625 110.933594 C 268.632812 132.25 253.679688 159.207031 240.324219 186.425781 Z M 271 88.351562 C 271.609375 87.839844 271.6875 86.925781 271.171875 86.320312 C 270.65625 85.710938 269.746094 85.632812 269.136719 86.148438 C 261.511719 92.597656 254.539062 99.503906 247.824219 107.261719 C 247.304688 107.863281 247.367188 108.773438 247.96875 109.296875 C 248.242188 109.535156 248.582031 109.648438 248.914062 109.648438 C 249.320312 109.648438 249.722656 109.480469 250.007812 109.148438 C 256.621094 101.507812 263.488281 94.707031 271 88.351562 Z M 232.777344 95.984375 C 235.589844 98.171875 238.996094 99.242188 242.453125 99.242188 C 246.820312 99.242188 251.269531 97.53125 254.6875 94.199219 C 257.691406 91.277344 259.269531 87.316406 259.019531 83.332031 C 258.792969 79.707031 257.054688 76.488281 254.125 74.273438 C 247.179688 69.027344 237.089844 69.445312 231.148438 75.226562 C 228.429688 77.871094 227.050781 81.492188 227.269531 85.417969 C 227.503906 89.597656 229.511719 93.449219 232.777344 95.984375 Z M 153.054688 174.074219 C 152.738281 173.933594 152.421875 173.796875 152.113281 173.664062 C 151.585938 173.4375 151.074219 173.226562 150.554688 173.007812 C 149.265625 178.117188 148.226562 183.386719 147.613281 188.585938 C 146.019531 202.050781 146.722656 220.148438 159.105469 229.90625 C 165.578125 235.007812 172.664062 236.714844 180.164062 234.980469 C 191.863281 232.273438 203.097656 221.570312 211.425781 210.445312 C 208.726562 208.097656 205.917969 205.773438 203.050781 203.53125 C 201.886719 202.625 200.714844 201.734375 199.550781 200.863281 C 194.328125 196.960938 188.746094 193.183594 182.964844 189.632812 C 181.824219 188.933594 180.683594 188.25 179.558594 187.585938 C 174.976562 184.878906 170.1875 182.265625 165.332031 179.820312 C 161.292969 177.792969 157.160156 175.863281 153.054688 174.074219 Z M 228.734375 176.449219 C 231.535156 168.085938 233.945312 158.65625 235.035156 149.449219 C 236.625 135.984375 235.921875 117.886719 223.539062 108.128906 C 218.683594 104.300781 213.484375 102.375 208.035156 102.375 C 206.195312 102.375 204.332031 102.59375 202.4375 103.03125 C 186.960938 106.613281 172.273438 124.285156 164.082031 138.339844 C 165.957031 139.121094 167.734375 139.886719 169.464844 140.652344 C 172.328125 141.917969 175.285156 143.285156 178.246094 144.710938 C 178.441406 144.808594 178.640625 144.910156 178.839844 145.003906 C 180.292969 143.925781 181.820312 143.21875 183.429688 142.902344 C 184.148438 142.722656 184.792969 142.855469 185.359375 143.300781 C 185.75 143.609375 186.023438 144.011719 186.179688 144.507812 C 186.335938 145.003906 186.332031 145.417969 186.171875 145.753906 C 185.941406 146.253906 185.53125 146.597656 184.960938 146.78125 C 184.46875 146.960938 184.003906 147.152344 183.550781 147.347656 C 184.980469 148.074219 186.472656 148.851562 188.007812 149.664062 C 192.519531 152.066406 197.015625 154.621094 201.363281 157.261719 C 201.941406 157.613281 202.515625 157.96875 203.089844 158.324219 C 204.480469 158.519531 205.941406 159.207031 207.472656 160.410156 C 208.25 161.019531 208.933594 161.703125 209.550781 162.445312 C 210.476562 163.054688 211.394531 163.664062 212.300781 164.28125 C 217.980469 168.128906 223.492188 172.21875 228.734375 176.449219 Z M 230.152344 85.257812 C 230.339844 88.601562 231.941406 91.679688 234.546875 93.707031 C 239.785156 97.773438 247.578125 97.097656 252.675781 92.132812 C 255.074219 89.796875 256.335938 86.65625 256.136719 83.511719 C 255.964844 80.738281 254.632812 78.277344 252.382812 76.578125 C 249.679688 74.535156 246.335938 73.523438 243.042969 73.523438 C 239.351562 73.523438 235.734375 74.792969 233.164062 77.296875 C 231.050781 79.351562 229.980469 82.179688 230.152344 85.257812 Z M 148.097656 244.328125 C 145.804688 242.546875 143.023438 241.675781 140.191406 241.675781 C 136.554688 241.675781 132.835938 243.113281 129.96875 245.902344 C 127.574219 248.238281 126.3125 251.382812 126.507812 254.523438 C 126.679688 257.296875 128.015625 259.757812 130.261719 261.457031 C 136 265.792969 144.621094 265.472656 149.484375 260.738281 C 151.597656 258.683594 152.664062 255.855469 152.492188 252.777344 C 152.304688 249.433594 150.703125 246.355469 148.097656 244.328125 Z M 148.097656 244.328125 " fill-opacity="1" fill-rule="nonzero"/><path fill="#e4e13e" d="M 244.457031 245.707031 C 243.988281 246.675781 243.519531 247.644531 243.050781 248.613281 C 242.15625 245.800781 241.128906 243.027344 240.023438 240.445312 C 238.78125 237.542969 237.4375 234.882812 236.019531 232.53125 C 235.980469 232.457031 235.941406 232.394531 235.914062 232.355469 C 234.78125 230.488281 233.605469 228.839844 232.449219 227.492188 C 232.414062 227.449219 232.375 227.40625 232.296875 227.316406 C 232.03125 227.007812 231.765625 226.695312 231.5 226.390625 L 231.3125 226.175781 C 229.578125 224.191406 227.808594 222.257812 226.054688 220.425781 C 224.351562 218.628906 222.597656 216.863281 220.84375 215.167969 L 220.789062 215.113281 C 220.632812 214.960938 220.472656 214.808594 220.332031 214.671875 C 219.761719 214.125 219.195312 213.582031 218.628906 213.054688 C 217.566406 212.058594 216.484375 211.066406 215.425781 210.121094 C 215.15625 209.875 214.878906 209.628906 214.605469 209.386719 L 214.347656 209.15625 C 211.300781 206.46875 208.097656 203.808594 204.824219 201.253906 C 203.648438 200.335938 202.464844 199.433594 201.28125 198.550781 C 195.984375 194.59375 190.332031 190.765625 184.480469 187.171875 C 183.324219 186.460938 182.171875 185.773438 181.03125 185.097656 C 176.390625 182.359375 171.542969 179.714844 166.628906 177.238281 C 162.539062 175.191406 158.359375 173.234375 154.210938 171.429688 C 153.890625 171.285156 153.566406 171.144531 153.253906 171.011719 C 152.195312 170.558594 151.152344 170.117188 150.117188 169.6875 C 148.769531 169.128906 147.441406 168.589844 146.132812 168.074219 C 142.15625 166.503906 138.195312 165.050781 134.359375 163.75 C 134.339844 163.742188 134.320312 163.734375 134.296875 163.730469 C 132.003906 162.949219 129.679688 162.199219 127.371094 161.488281 C 132.542969 151.765625 137.523438 141.535156 141.632812 133.054688 C 144.015625 133.835938 146.378906 134.644531 148.679688 135.464844 C 152.640625 136.878906 156.589844 138.390625 160.414062 139.945312 L 160.847656 140.121094 C 161.050781 140.203125 161.253906 140.289062 161.464844 140.378906 C 163.898438 141.378906 166.132812 142.332031 168.300781 143.292969 C 171.136719 144.546875 174.0625 145.898438 176.992188 147.308594 C 178.410156 147.996094 179.835938 148.703125 181.277344 149.429688 C 182.976562 150.285156 184.789062 151.222656 186.65625 152.210938 C 191.121094 154.585938 195.566406 157.117188 199.871094 159.730469 C 203.5625 161.96875 207.199219 164.304688 210.679688 166.667969 C 216.875 170.863281 222.878906 175.34375 228.53125 179.980469 C 230.582031 181.667969 232.476562 183.28125 234.359375 184.933594 C 234.488281 185.046875 234.613281 185.152344 234.765625 185.292969 C 236.441406 186.769531 238.128906 188.300781 239.78125 189.855469 L 240 190.054688 C 242.148438 192.070312 244.28125 194.15625 246.335938 196.253906 C 246.355469 196.273438 246.371094 196.289062 246.390625 196.308594 C 238.90625 202.019531 234.917969 208.660156 232.820312 213.640625 C 231.117188 217.695312 233.015625 222.433594 237.058594 224.199219 L 242.945312 226.769531 C 242.953125 226.792969 242.957031 226.808594 242.960938 226.828125 C 243.023438 227.046875 243.085938 227.261719 243.152344 227.480469 C 243.234375 227.769531 243.320312 228.058594 243.410156 228.34375 C 243.445312 228.453125 243.476562 228.5625 243.511719 228.675781 C 244.316406 231.15625 245.753906 234.765625 248.09375 238.226562 C 246.871094 240.734375 245.660156 243.230469 244.457031 245.707031 Z M 244.457031 245.707031 " fill-opacity="1" fill-rule="nonzero"/><path fill="#ffffff" d="M 12.054688 116.910156 C 12.105469 116.984375 12.15625 117.058594 12.210938 117.132812 C 14.800781 120.78125 19.335938 123.105469 25.015625 123.875 C 25.046875 123.878906 25.078125 123.886719 25.109375 123.890625 C 26.339844 124.050781 27.621094 124.140625 28.949219 124.15625 C 29.035156 124.15625 29.125 124.15625 29.210938 124.15625 C 31.945312 124.167969 34.859375 123.867188 37.894531 123.230469 C 37.914062 123.226562 37.933594 123.230469 37.949219 123.226562 C 37.960938 123.222656 37.972656 123.21875 37.984375 123.21875 C 42.59375 122.242188 47.308594 120.515625 51.855469 118.105469 C 56.339844 115.730469 60.355469 112.859375 63.789062 109.574219 C 64.367188 109.019531 65.277344 109.042969 65.828125 109.617188 C 66.378906 110.195312 66.359375 111.109375 65.785156 111.660156 C 62.15625 115.128906 57.925781 118.15625 53.207031 120.65625 C 48.824219 122.980469 44.285156 124.699219 39.804688 125.769531 C 39.804688 125.78125 39.808594 125.792969 39.808594 125.804688 C 39.816406 125.855469 39.832031 125.902344 39.84375 125.949219 C 40.417969 128.667969 41.949219 131.09375 44.183594 132.847656 C 44.414062 133.027344 44.640625 133.210938 44.886719 133.378906 C 45.035156 133.480469 45.191406 133.5625 45.339844 133.660156 C 45.625 133.835938 45.90625 134.011719 46.207031 134.175781 C 46.316406 134.234375 46.433594 134.289062 46.546875 134.347656 C 46.929688 134.539062 47.316406 134.726562 47.722656 134.894531 C 47.761719 134.910156 47.800781 134.925781 47.839844 134.941406 C 50.851562 136.164062 54.527344 136.695312 58.59375 136.484375 C 58.695312 136.480469 58.800781 136.476562 58.902344 136.46875 C 59.488281 136.433594 60.085938 136.378906 60.691406 136.3125 C 60.828125 136.296875 60.964844 136.28125 61.101562 136.265625 C 61.71875 136.1875 62.34375 136.101562 62.976562 135.992188 C 63.03125 135.984375 63.089844 135.972656 63.148438 135.964844 C 63.824219 135.84375 64.507812 135.707031 65.195312 135.550781 C 65.257812 135.535156 65.316406 135.523438 65.375 135.507812 C 66.097656 135.339844 66.828125 135.15625 67.566406 134.945312 C 67.597656 134.9375 67.628906 134.9375 67.660156 134.929688 C 75.027344 132.839844 81.996094 128.890625 87.558594 123.621094 C 88.136719 123.070312 89.050781 123.09375 89.597656 123.675781 C 90.148438 124.253906 90.121094 125.167969 89.542969 125.71875 C 83.878906 131.085938 76.835938 135.152344 69.363281 137.429688 C 69.363281 139.238281 69.75 140.898438 70.53125 142.375 C 71.449219 144.105469 72.84375 145.503906 74.601562 146.558594 C 75.949219 147.269531 77.304688 147.820312 78.667969 148.222656 C 83.875 149.582031 90.714844 148.964844 97.769531 146.171875 C 97.789062 146.164062 97.8125 146.160156 97.832031 146.152344 C 97.859375 146.144531 97.886719 146.136719 97.914062 146.128906 C 97.980469 146.113281 98.042969 146.097656 98.113281 146.089844 C 98.132812 146.085938 98.152344 146.085938 98.171875 146.082031 C 98.179688 146.082031 98.183594 146.082031 98.191406 146.082031 C 104.21875 143.398438 109.039062 139.632812 111.289062 137.707031 C 111.894531 137.191406 112.804688 137.261719 113.324219 137.867188 C 113.84375 138.472656 113.773438 139.382812 113.164062 139.902344 C 108.664062 143.753906 104.050781 146.699219 99.480469 148.726562 C 98.277344 154.054688 101.042969 158.816406 106.433594 160.46875 C 106.808594 160.585938 107.183594 160.679688 107.558594 160.769531 C 108.484375 160.976562 109.46875 161.125 110.511719 161.199219 C 114.101562 161.449219 118.035156 160.855469 121.964844 159.5 C 122.023438 159.480469 122.082031 159.460938 122.140625 159.4375 C 122.40625 159.34375 122.667969 159.25 122.929688 159.152344 C 123.042969 159.109375 123.15625 159.066406 123.265625 159.023438 C 123.503906 158.929688 123.742188 158.835938 123.980469 158.738281 C 124.070312 158.699219 124.167969 158.660156 124.257812 158.621094 C 124.574219 158.492188 124.886719 158.355469 125.199219 158.210938 C 125.484375 158.082031 125.765625 157.945312 126.046875 157.808594 C 127.824219 154.421875 129.574219 150.996094 131.265625 147.621094 C 131.597656 146.957031 131.929688 146.289062 132.261719 145.628906 C 132.921875 144.304688 133.570312 142.996094 134.207031 141.699219 C 136.117188 137.816406 137.925781 134.085938 139.582031 130.667969 L 140.242188 129.304688 C 141.019531 127.707031 141.796875 126.105469 142.574219 124.503906 C 138.011719 112.132812 128.429688 99.691406 113.964844 87.429688 C 73.285156 52.945312 37.332031 75.160156 23.761719 86.3125 C 21.984375 87.71875 20.34375 89.199219 18.863281 90.738281 L 18.859375 90.742188 L 18.648438 90.960938 C 10.554688 99.480469 7.753906 108.96875 11.339844 115.734375 C 11.554688 116.140625 11.796875 116.53125 12.054688 116.910156 Z M 57.847656 86.125 C 58.644531 86.046875 59.339844 86.648438 59.40625 87.441406 C 59.832031 92.425781 64.761719 94.980469 69.460938 95.296875 C 72.175781 95.480469 75.097656 95.117188 78.042969 94.289062 C 78.105469 94.265625 78.171875 94.246094 78.242188 94.230469 C 80.414062 93.601562 82.59375 92.730469 84.714844 91.59375 C 85.417969 91.214844 86.292969 91.484375 86.667969 92.183594 C 87.046875 92.886719 86.78125 93.761719 86.078125 94.140625 C 84.054688 95.222656 81.972656 96.089844 79.882812 96.753906 C 79.855469 101.285156 84.78125 103.339844 87.875 103.84375 C 91.109375 104.378906 94.75 103.84375 98.492188 102.308594 C 98.730469 102.085938 99.03125 101.949219 99.359375 101.921875 C 99.636719 101.796875 99.910156 101.683594 100.1875 101.546875 C 100.90625 101.199219 101.769531 101.496094 102.117188 102.214844 C 102.46875 102.929688 102.171875 103.796875 101.453125 104.144531 C 101.195312 104.269531 100.9375 104.382812 100.679688 104.5 C 100.042969 107.828125 101.914062 110.875 105.34375 111.910156 C 108.996094 113.011719 113.621094 112.367188 118.375 110.097656 C 119.09375 109.757812 119.953125 110.0625 120.296875 110.78125 C 120.640625 111.5 120.335938 112.363281 119.617188 112.703125 C 116.859375 114.019531 113.109375 115.335938 109.148438 115.335938 C 107.621094 115.335938 106.058594 115.140625 104.511719 114.675781 C 100.253906 113.390625 97.636719 109.765625 97.675781 105.679688 C 95.179688 106.503906 92.726562 106.933594 90.382812 106.933594 C 89.367188 106.933594 88.375 106.851562 87.40625 106.695312 C 82.429688 105.878906 77.457031 102.703125 77.03125 97.519531 C 74.949219 97.984375 72.882812 98.230469 70.890625 98.230469 C 70.34375 98.230469 69.800781 98.214844 69.265625 98.175781 C 63.335938 97.777344 57.101562 94.375 56.53125 87.683594 C 56.464844 86.890625 57.054688 86.191406 57.847656 86.125 Z M 306.234375 188.546875 C 284.210938 185.617188 266.484375 187.8125 253.546875 195.0625 C 242.972656 200.992188 237.886719 209.046875 235.480469 214.765625 C 234.386719 217.371094 235.609375 220.417969 238.210938 221.554688 L 242.152344 223.277344 C 241.671875 220.632812 241.460938 217.988281 241.53125 215.371094 C 241.554688 214.589844 242.195312 213.96875 242.972656 213.96875 C 242.984375 213.96875 243 213.96875 243.011719 213.96875 C 243.808594 213.992188 244.4375 214.65625 244.417969 215.453125 C 244.320312 218.855469 244.746094 222.316406 245.664062 225.765625 C 245.722656 225.984375 245.78125 226.207031 245.84375 226.421875 C 245.96875 226.863281 246.101562 227.300781 246.242188 227.742188 C 246.34375 228.054688 246.449219 228.367188 246.554688 228.671875 C 246.601562 228.808594 246.65625 228.953125 246.707031 229.09375 C 246.777344 229.28125 246.84375 229.46875 246.914062 229.652344 C 246.972656 229.808594 247.035156 229.964844 247.097656 230.125 C 247.175781 230.320312 247.257812 230.515625 247.335938 230.710938 C 247.386719 230.832031 247.441406 230.957031 247.492188 231.078125 C 247.613281 231.355469 247.730469 231.628906 247.855469 231.894531 C 247.871094 231.929688 247.886719 231.960938 247.898438 231.992188 C 249.414062 235.261719 251.320312 238.054688 253.425781 240.203125 C 253.53125 240.308594 253.636719 240.417969 253.746094 240.523438 C 253.828125 240.601562 253.910156 240.679688 253.992188 240.757812 C 254.949219 241.644531 255.996094 242.460938 257.15625 243.148438 C 261.996094 246.039062 267.378906 244.898438 270.523438 240.429688 C 268.957031 235.679688 268.046875 230.277344 267.878906 224.355469 C 267.859375 223.558594 268.484375 222.894531 269.28125 222.871094 C 270.085938 222.820312 270.742188 223.476562 270.765625 224.273438 C 270.847656 227.230469 271.296875 233.332031 273.347656 239.601562 C 273.359375 239.617188 273.371094 239.632812 273.382812 239.648438 C 273.449219 239.738281 273.5 239.835938 273.539062 239.9375 C 273.546875 239.953125 273.558594 239.964844 273.566406 239.980469 C 276.230469 247.089844 280.367188 252.578125 284.875 255.527344 C 286.085938 256.265625 287.402344 256.902344 288.828125 257.421875 C 290.789062 258.015625 292.761719 258.113281 294.65625 257.628906 C 296.277344 257.21875 297.769531 256.394531 299.105469 255.179688 C 295.785156 248.109375 294.070312 240.15625 294.246094 232.351562 C 294.261719 231.566406 294.90625 230.941406 295.6875 230.941406 C 295.699219 230.941406 295.710938 230.941406 295.722656 230.941406 C 296.519531 230.960938 297.148438 231.621094 297.132812 232.417969 C 296.957031 240.082031 298.710938 247.898438 302.101562 254.761719 C 302.117188 254.789062 302.140625 254.816406 302.15625 254.84375 C 302.488281 255.515625 302.828125 256.164062 303.179688 256.796875 C 303.238281 256.898438 303.292969 257 303.347656 257.097656 C 303.667969 257.664062 303.996094 258.21875 304.335938 258.753906 C 304.390625 258.84375 304.449219 258.933594 304.503906 259.023438 C 304.617188 259.195312 304.726562 259.367188 304.839844 259.535156 C 304.949219 259.707031 305.066406 259.878906 305.183594 260.050781 C 305.253906 260.152344 305.324219 260.253906 305.394531 260.355469 C 305.542969 260.570312 305.699219 260.789062 305.859375 261.007812 C 305.921875 261.09375 305.984375 261.175781 306.046875 261.261719 C 306.203125 261.472656 306.367188 261.6875 306.535156 261.902344 C 306.621094 262.011719 306.703125 262.121094 306.789062 262.226562 C 306.917969 262.390625 307.054688 262.558594 307.191406 262.722656 C 309.707031 265.761719 312.492188 268.054688 315.335938 269.441406 C 315.402344 269.472656 315.46875 269.503906 315.53125 269.535156 C 315.730469 269.628906 315.933594 269.71875 316.132812 269.804688 C 316.453125 269.941406 316.777344 270.070312 317.105469 270.183594 C 317.1875 270.214844 317.269531 270.238281 317.355469 270.265625 C 317.75 270.398438 318.148438 270.515625 318.558594 270.617188 C 318.585938 270.621094 318.609375 270.625 318.632812 270.632812 C 321.675781 271.355469 324.800781 270.890625 327.414062 269.371094 C 327.460938 269.34375 327.511719 269.320312 327.5625 269.292969 C 327.570312 269.285156 327.578125 269.28125 327.589844 269.273438 C 325.371094 265.234375 323.601562 260.714844 322.382812 255.902344 C 321.070312 250.726562 320.472656 245.558594 320.609375 240.539062 C 320.632812 239.753906 321.273438 239.132812 322.050781 239.132812 C 322.066406 239.132812 322.078125 239.132812 322.089844 239.132812 C 322.886719 239.15625 323.515625 239.820312 323.496094 240.617188 C 323.363281 245.371094 323.929688 250.273438 325.179688 255.191406 C 326.449219 260.199219 328.339844 264.859375 330.71875 268.941406 C 330.726562 268.957031 330.738281 268.96875 330.75 268.984375 C 331.726562 270.664062 332.773438 272.21875 333.875 273.644531 C 333.914062 273.695312 333.957031 273.75 333.996094 273.800781 C 334.558594 274.519531 335.132812 275.203125 335.714844 275.855469 C 335.871094 276.027344 336.023438 276.195312 336.179688 276.363281 C 336.316406 276.503906 336.449219 276.648438 336.582031 276.785156 C 336.800781 277.011719 337.023438 277.234375 337.246094 277.453125 C 337.433594 277.632812 337.621094 277.8125 337.808594 277.988281 C 337.949219 278.117188 338.089844 278.25 338.230469 278.375 C 338.421875 278.546875 338.609375 278.710938 338.800781 278.875 C 338.859375 278.925781 338.921875 278.976562 338.980469 279.027344 C 343.078125 282.457031 347.503906 284.242188 351.6875 284.011719 C 351.769531 284.007812 351.847656 284.007812 351.929688 284 C 352.082031 283.992188 352.230469 283.972656 352.382812 283.957031 C 352.558594 283.9375 352.730469 283.914062 352.902344 283.890625 C 353.015625 283.871094 353.132812 283.855469 353.246094 283.835938 C 353.539062 283.78125 353.832031 283.722656 354.125 283.648438 C 361.542969 281.765625 366.699219 273.320312 367.582031 261.609375 C 367.582031 261.605469 367.582031 261.597656 367.582031 261.59375 L 367.601562 261.300781 C 367.601562 261.296875 367.605469 261.296875 367.605469 261.292969 C 367.75 259.160156 367.746094 256.949219 367.597656 254.71875 C 366.753906 237.148438 359.089844 195.578125 306.234375 188.546875 Z M 344.585938 231.3125 C 342.636719 232.800781 340.5 233.429688 338.371094 233.429688 C 334.671875 233.429688 330.980469 231.527344 328.265625 228.910156 C 326.480469 227.183594 324.894531 225.078125 323.546875 222.714844 C 321.964844 223.929688 320.152344 224.449219 318.292969 224.449219 C 315.308594 224.449219 312.210938 223.109375 309.777344 221.171875 C 307.242188 219.152344 305.15625 216.320312 303.632812 212.871094 C 301.917969 214.453125 299.742188 215.300781 297.472656 215.300781 C 295.769531 215.300781 294.019531 214.828125 292.386719 213.84375 C 287.414062 210.84375 284.921875 205.378906 283.707031 201.320312 C 283.480469 200.554688 283.914062 199.75 284.679688 199.523438 C 285.441406 199.289062 286.246094 199.726562 286.472656 200.492188 C 287.984375 205.539062 290.613281 209.402344 293.875 211.371094 C 296.945312 213.222656 300.460938 212.5625 302.503906 209.847656 C 302.417969 209.578125 302.324219 209.320312 302.242188 209.042969 C 302.023438 208.277344 302.460938 207.476562 303.226562 207.253906 C 303.992188 207.035156 304.792969 207.472656 305.015625 208.238281 C 305.101562 208.535156 305.203125 208.816406 305.296875 209.109375 C 305.496094 209.367188 305.59375 209.683594 305.589844 210.007812 C 306.964844 213.8125 309.011719 216.871094 311.578125 218.914062 C 314.027344 220.863281 318.851562 223.140625 322.191406 220.085938 C 321.28125 218.089844 320.53125 215.960938 319.976562 213.730469 C 319.78125 212.957031 320.253906 212.175781 321.027344 211.980469 C 321.800781 211.785156 322.582031 212.261719 322.777344 213.03125 C 323.355469 215.363281 324.171875 217.566406 325.164062 219.597656 C 325.203125 219.660156 325.234375 219.730469 325.261719 219.796875 C 326.625 222.535156 328.316406 224.941406 330.269531 226.832031 C 333.660156 230.101562 338.859375 232.046875 342.839844 229.015625 C 343.472656 228.527344 344.378906 228.652344 344.859375 229.289062 C 345.34375 229.921875 345.222656 230.828125 344.585938 231.3125 Z M 344.585938 231.3125 " fill-opacity="1" fill-rule="nonzero"/><g clip-path="url(#10ae1c9ece)"><path fill="#000000" d="M 56.53125 87.683594 C 56.464844 86.890625 57.054688 86.191406 57.847656 86.125 C 58.644531 86.046875 59.339844 86.648438 59.40625 87.441406 C 59.832031 92.425781 64.761719 94.980469 69.460938 95.296875 C 72.175781 95.480469 75.097656 95.117188 78.042969 94.289062 C 78.105469 94.265625 78.171875 94.246094 78.242188 94.230469 C 80.414062 93.601562 82.59375 92.730469 84.714844 91.59375 C 85.417969 91.214844 86.292969 91.484375 86.667969 92.183594 C 87.046875 92.886719 86.78125 93.761719 86.078125 94.140625 C 84.054688 95.222656 81.972656 96.089844 79.882812 96.753906 C 79.855469 101.285156 84.78125 103.339844 87.875 103.84375 C 91.109375 104.378906 94.75 103.84375 98.492188 102.308594 C 98.730469 102.085938 99.03125 101.949219 99.359375 101.921875 C 99.636719 101.796875 99.910156 101.683594 100.1875 101.546875 C 100.90625 101.199219 101.769531 101.496094 102.117188 102.214844 C 102.46875 102.929688 102.171875 103.796875 101.453125 104.144531 C 101.195312 104.269531 100.9375 104.382812 100.679688 104.5 C 100.042969 107.828125 101.914062 110.875 105.34375 111.910156 C 108.996094 113.011719 113.621094 112.367188 118.375 110.097656 C 119.09375 109.757812 119.953125 110.0625 120.296875 110.78125 C 120.640625 111.5 120.335938 112.363281 119.617188 112.703125 C 116.859375 114.019531 113.109375 115.335938 109.148438 115.335938 C 107.621094 115.335938 106.058594 115.140625 104.511719 114.675781 C 100.253906 113.390625 97.636719 109.765625 97.675781 105.679688 C 95.179688 106.503906 92.726562 106.933594 90.382812 106.933594 C 89.367188 106.933594 88.375 106.851562 87.40625 106.695312 C 82.429688 105.878906 77.457031 102.703125 77.03125 97.519531 C 74.949219 97.984375 72.882812 98.230469 70.890625 98.230469 C 70.34375 98.230469 69.800781 98.214844 69.265625 98.175781 C 63.335938 97.773438 57.101562 94.375 56.53125 87.683594 Z M 227.269531 85.417969 C 227.050781 81.492188 228.429688 77.871094 231.148438 75.226562 C 237.089844 69.445312 247.179688 69.027344 254.125 74.273438 C 257.054688 76.488281 258.792969 79.707031 259.019531 83.332031 C 259.269531 87.316406 257.691406 91.277344 254.6875 94.199219 C 251.269531 97.53125 246.820312 99.242188 242.453125 99.242188 C 238.996094 99.242188 235.589844 98.171875 232.777344 95.984375 C 229.511719 93.449219 227.503906 89.597656 227.269531 85.417969 Z M 233.164062 77.296875 C 231.050781 79.351562 229.980469 82.179688 230.152344 85.257812 C 230.339844 88.601562 231.941406 91.679688 234.550781 93.707031 C 239.785156 97.773438 247.578125 97.097656 252.675781 92.132812 C 255.074219 89.796875 256.335938 86.65625 256.140625 83.511719 C 255.964844 80.738281 254.632812 78.277344 252.382812 76.578125 C 249.679688 74.535156 246.335938 73.523438 243.042969 73.523438 C 239.351562 73.523438 235.730469 74.792969 233.164062 77.296875 Z M 149.867188 242.050781 C 153.136719 244.585938 155.140625 248.4375 155.375 252.617188 C 155.59375 256.542969 154.214844 260.164062 151.496094 262.808594 C 148.34375 265.878906 144.015625 267.4375 139.613281 267.4375 C 135.726562 267.4375 131.777344 266.222656 128.523438 263.761719 C 125.59375 261.546875 123.855469 258.332031 123.628906 254.703125 C 123.378906 250.71875 124.957031 246.757812 127.957031 243.835938 C 134.082031 237.871094 143.5 237.105469 149.867188 242.050781 Z M 148.097656 244.328125 C 145.804688 242.546875 143.023438 241.675781 140.191406 241.675781 C 136.554688 241.675781 132.835938 243.113281 129.96875 245.902344 C 127.574219 248.238281 126.3125 251.382812 126.507812 254.523438 C 126.679688 257.296875 128.015625 259.757812 130.261719 261.457031 C 136 265.792969 144.621094 265.472656 149.484375 260.738281 C 151.597656 258.683594 152.664062 255.855469 152.492188 252.777344 C 152.304688 249.433594 150.703125 246.355469 148.097656 244.328125 Z M 271.171875 86.320312 C 270.65625 85.710938 269.746094 85.632812 269.136719 86.148438 C 261.511719 92.597656 254.539062 99.503906 247.824219 107.261719 C 247.304688 107.863281 247.367188 108.773438 247.972656 109.296875 C 248.242188 109.535156 248.582031 109.648438 248.914062 109.648438 C 249.320312 109.648438 249.722656 109.480469 250.007812 109.148438 C 256.621094 101.507812 263.488281 94.707031 271.003906 88.351562 C 271.609375 87.839844 271.6875 86.925781 271.171875 86.320312 Z M 144.46875 277.273438 C 144.796875 277.273438 145.128906 277.160156 145.398438 276.929688 C 153.027344 270.480469 159.996094 263.574219 166.710938 255.820312 C 167.234375 255.21875 167.167969 254.304688 166.566406 253.78125 C 165.964844 253.261719 165.050781 253.328125 164.53125 253.929688 C 157.914062 261.570312 151.046875 268.375 143.535156 274.726562 C 142.925781 275.242188 142.851562 276.152344 143.367188 276.761719 C 143.652344 277.097656 144.058594 277.273438 144.46875 277.273438 Z M 370.484375 261.484375 C 370.46875 261.71875 370.460938 261.839844 370.460938 261.839844 C 369.484375 274.820312 363.496094 284.25 354.835938 286.449219 C 353.546875 286.777344 352.234375 286.9375 350.910156 286.9375 C 345.734375 286.9375 340.367188 284.464844 335.453125 279.742188 C 333.09375 277.476562 330.945312 274.78125 329.054688 271.765625 C 327.8125 272.527344 326.484375 273.085938 325.101562 273.4375 C 323.625 273.8125 322.117188 273.9375 320.597656 273.832031 C 320.585938 273.832031 320.574219 273.832031 320.5625 273.828125 C 320.355469 273.816406 320.144531 273.796875 319.933594 273.773438 C 319.742188 273.753906 319.546875 273.730469 319.355469 273.703125 C 319.339844 273.699219 319.324219 273.695312 319.308594 273.695312 C 318.839844 273.625 318.375 273.542969 317.90625 273.429688 C 309.878906 271.496094 304.371094 264.570312 301.164062 259.097656 C 300.929688 258.703125 300.707031 258.300781 300.484375 257.894531 C 298.195312 259.847656 295.253906 260.929688 292.210938 260.929688 C 291.097656 260.929688 289.972656 260.789062 288.867188 260.496094 C 288.839844 260.488281 288.816406 260.484375 288.792969 260.472656 C 287.988281 260.214844 287.199219 259.917969 286.433594 259.582031 C 285.828125 259.324219 285.226562 259.027344 284.628906 258.695312 C 278.996094 255.664062 274.589844 250.457031 271.707031 243.597656 C 269.996094 245.527344 267.933594 246.835938 265.632812 247.417969 C 263.335938 248 260.960938 247.8125 258.636719 246.988281 C 257.640625 246.65625 256.648438 246.210938 255.675781 245.628906 C 253.46875 244.3125 251.609375 242.628906 250.050781 240.800781 C 249.042969 242.863281 248.046875 244.925781 247.054688 246.96875 C 246.042969 249.050781 245.035156 251.136719 244.019531 253.21875 C 224.550781 293.226562 205.53125 328.230469 169.84375 351.449219 C 167.742188 352.707031 165.140625 353.320312 162.542969 353.320312 C 159.359375 353.320312 156.171875 352.398438 153.890625 350.609375 L 125.742188 328.503906 C 106.25 313.195312 86.753906 297.886719 67.261719 282.574219 C 65.308594 281.042969 64.308594 279.046875 64.445312 276.949219 C 64.574219 274.917969 65.78125 272.96875 67.796875 271.472656 L 65.707031 269.832031 C 63.757812 268.300781 62.753906 266.300781 62.886719 264.207031 C 63.019531 262.171875 64.226562 260.222656 66.242188 258.726562 L 64.152344 257.085938 C 62.199219 255.554688 61.199219 253.554688 61.332031 251.460938 C 61.460938 249.425781 62.671875 247.476562 64.6875 245.980469 L 62.597656 244.339844 C 60.644531 242.808594 59.644531 240.808594 59.78125 238.710938 C 59.929688 236.371094 61.507812 234.140625 64.105469 232.589844 C 93.535156 213.445312 110.847656 186.117188 123.886719 161.871094 C 120.785156 163.039062 116.621094 164.175781 112.1875 164.175781 C 110.886719 164.175781 109.5625 164.0625 108.234375 163.835938 C 108.09375 163.8125 107.957031 163.789062 107.816406 163.761719 C 107.589844 163.71875 107.359375 163.683594 107.128906 163.632812 C 106.609375 163.519531 106.105469 163.382812 105.617188 163.234375 C 105.605469 163.234375 105.597656 163.230469 105.585938 163.226562 C 105.578125 163.226562 105.570312 163.222656 105.558594 163.21875 C 101.902344 162.101562 99.136719 159.988281 97.578125 157.046875 C 96.464844 154.945312 96.050781 152.535156 96.332031 149.972656 C 92.527344 151.308594 88.78125 151.996094 85.191406 151.996094 C 82.1875 151.996094 79.296875 151.515625 76.5625 150.558594 C 75.773438 150.292969 75.019531 149.984375 74.300781 149.632812 C 73.644531 149.324219 72.992188 149 72.355469 148.632812 C 72.335938 148.621094 72.316406 148.605469 72.292969 148.59375 C 68.699219 146.257812 66.53125 142.34375 66.410156 138.234375 C 65.96875 138.339844 65.523438 138.445312 65.078125 138.539062 C 64.824219 138.589844 64.554688 138.632812 64.292969 138.683594 C 64.179688 138.707031 64.0625 138.726562 63.945312 138.75 C 61.738281 139.152344 59.277344 139.449219 56.710938 139.449219 C 52.160156 139.449219 47.324219 138.539062 43.21875 135.738281 C 42.613281 135.324219 42.046875 134.867188 41.515625 134.382812 C 41.460938 134.335938 41.410156 134.289062 41.359375 134.242188 C 41.078125 133.976562 40.808594 133.703125 40.546875 133.417969 C 39.703125 132.507812 38.96875 131.511719 38.382812 130.40625 C 37.714844 129.144531 37.242188 127.789062 36.972656 126.355469 C 34.386719 126.8125 31.84375 127.050781 29.375 127.050781 C 28.492188 127.050781 27.625 127.019531 26.765625 126.960938 C 19.039062 126.421875 13.085938 123.488281 9.757812 118.660156 C 9.699219 118.582031 9.648438 118.503906 9.59375 118.421875 C 9.304688 117.992188 9.03125 117.550781 8.789062 117.085938 C 4.605469 109.191406 7.578125 98.417969 16.550781 88.976562 L 16.554688 88.984375 C 16.636719 88.886719 16.71875 88.800781 16.789062 88.730469 C 18.359375 87.101562 20.09375 85.53125 21.949219 84.0625 C 36.058594 72.472656 73.488281 49.339844 115.832031 85.226562 C 129.703125 96.984375 139.234375 108.96875 144.292969 120.972656 C 162.011719 84.6875 181.429688 48.265625 217.46875 24.824219 C 222.148438 22.027344 229.28125 22.421875 233.414062 25.667969 L 320.046875 93.695312 C 321.996094 95.226562 322.996094 97.222656 322.863281 99.320312 C 322.734375 101.355469 321.527344 103.304688 319.507812 104.800781 L 321.601562 106.441406 C 323.550781 107.972656 324.550781 109.972656 324.417969 112.066406 C 324.289062 114.101562 323.082031 116.050781 321.0625 117.546875 L 323.152344 119.1875 C 325.105469 120.71875 326.105469 122.71875 325.972656 124.8125 C 325.84375 126.847656 324.632812 128.796875 322.617188 130.292969 L 324.707031 131.933594 C 326.65625 133.460938 327.660156 135.460938 327.527344 137.554688 C 327.378906 139.890625 325.8125 142.117188 323.226562 143.671875 C 305.460938 155.230469 292.160156 169.703125 281.554688 184.632812 C 289.199219 184.140625 297.554688 184.480469 306.613281 185.6875 C 361.625 193.003906 369.601562 236.285156 370.476562 254.554688 C 370.636719 256.886719 370.636719 259.226562 370.484375 261.484375 Z M 367.597656 254.71875 C 366.753906 237.148438 359.089844 195.578125 306.234375 188.546875 C 284.210938 185.617188 266.484375 187.8125 253.546875 195.0625 C 242.972656 200.992188 237.886719 209.046875 235.480469 214.765625 C 234.386719 217.371094 235.609375 220.417969 238.210938 221.554688 L 242.152344 223.277344 C 241.671875 220.632812 241.460938 217.988281 241.53125 215.371094 C 241.554688 214.589844 242.195312 213.96875 242.972656 213.96875 C 242.984375 213.96875 243 213.96875 243.011719 213.96875 C 243.808594 213.992188 244.4375 214.65625 244.417969 215.453125 C 244.324219 218.855469 244.746094 222.316406 245.664062 225.765625 C 245.722656 225.984375 245.78125 226.207031 245.84375 226.421875 C 245.96875 226.863281 246.101562 227.300781 246.242188 227.742188 C 246.34375 228.054688 246.449219 228.367188 246.554688 228.671875 C 246.601562 228.808594 246.65625 228.953125 246.707031 229.09375 C 246.777344 229.28125 246.84375 229.46875 246.914062 229.652344 C 246.972656 229.808594 247.035156 229.964844 247.097656 230.125 C 247.175781 230.320312 247.257812 230.515625 247.335938 230.710938 C 247.386719 230.832031 247.441406 230.957031 247.492188 231.078125 C 247.613281 231.355469 247.730469 231.628906 247.855469 231.894531 C 247.871094 231.929688 247.886719 231.960938 247.898438 231.992188 C 249.414062 235.261719 251.320312 238.054688 253.425781 240.203125 C 253.53125 240.308594 253.636719 240.417969 253.746094 240.523438 C 253.828125 240.601562 253.910156 240.679688 253.992188 240.757812 C 254.949219 241.648438 255.996094 242.460938 257.15625 243.148438 C 261.996094 246.039062 267.378906 244.898438 270.523438 240.429688 C 268.957031 235.679688 268.046875 230.277344 267.878906 224.355469 C 267.859375 223.558594 268.484375 222.894531 269.28125 222.871094 C 270.085938 222.820312 270.742188 223.476562 270.765625 224.273438 C 270.847656 227.230469 271.296875 233.332031 273.347656 239.601562 C 273.359375 239.617188 273.371094 239.632812 273.382812 239.648438 C 273.449219 239.738281 273.5 239.835938 273.539062 239.9375 C 273.546875 239.953125 273.558594 239.964844 273.566406 239.980469 C 276.230469 247.089844 280.367188 252.578125 284.875 255.527344 C 286.085938 256.265625 287.402344 256.902344 288.828125 257.421875 C 290.789062 258.015625 292.761719 258.113281 294.65625 257.628906 C 296.277344 257.21875 297.769531 256.394531 299.105469 255.179688 C 295.785156 248.109375 294.070312 240.15625 294.246094 232.351562 C 294.261719 231.566406 294.90625 230.941406 295.6875 230.941406 C 295.699219 230.941406 295.710938 230.941406 295.722656 230.941406 C 296.519531 230.960938 297.148438 231.621094 297.132812 232.417969 C 296.957031 240.082031 298.710938 247.898438 302.101562 254.761719 C 302.117188 254.789062 302.140625 254.816406 302.15625 254.84375 C 302.488281 255.515625 302.828125 256.164062 303.179688 256.796875 C 303.238281 256.898438 303.292969 257 303.347656 257.097656 C 303.667969 257.664062 304 258.21875 304.335938 258.753906 C 304.390625 258.84375 304.449219 258.933594 304.503906 259.023438 C 304.617188 259.195312 304.726562 259.367188 304.839844 259.535156 C 304.949219 259.707031 305.066406 259.878906 305.183594 260.050781 C 305.253906 260.15625 305.324219 260.253906 305.394531 260.355469 C 305.542969 260.570312 305.699219 260.789062 305.859375 261.007812 C 305.921875 261.09375 305.984375 261.175781 306.046875 261.261719 C 306.203125 261.472656 306.367188 261.6875 306.535156 261.902344 C 306.621094 262.011719 306.703125 262.121094 306.789062 262.226562 C 306.917969 262.390625 307.054688 262.558594 307.191406 262.722656 C 309.707031 265.761719 312.492188 268.054688 315.335938 269.441406 C 315.402344 269.472656 315.46875 269.503906 315.53125 269.535156 C 315.730469 269.632812 315.933594 269.71875 316.132812 269.804688 C 316.453125 269.941406 316.777344 270.070312 317.105469 270.183594 C 317.1875 270.214844 317.269531 270.238281 317.355469 270.265625 C 317.75 270.398438 318.148438 270.515625 318.558594 270.617188 C 318.585938 270.621094 318.609375 270.625 318.632812 270.632812 C 321.675781 271.355469 324.800781 270.890625 327.414062 269.371094 C 327.464844 269.34375 327.511719 269.320312 327.5625 269.292969 C 327.570312 269.285156 327.578125 269.28125 327.589844 269.273438 C 325.371094 265.234375 323.601562 260.714844 322.382812 255.902344 C 321.070312 250.726562 320.472656 245.558594 320.609375 240.539062 C 320.632812 239.753906 321.273438 239.132812 322.050781 239.132812 C 322.066406 239.132812 322.078125 239.132812 322.089844 239.132812 C 322.886719 239.15625 323.515625 239.820312 323.496094 240.617188 C 323.363281 245.371094 323.929688 250.273438 325.179688 255.191406 C 326.449219 260.199219 328.339844 264.859375 330.71875 268.941406 C 330.726562 268.957031 330.738281 268.96875 330.75 268.984375 C 331.726562 270.664062 332.777344 272.21875 333.875 273.644531 C 333.914062 273.695312 333.957031 273.75 333.996094 273.800781 C 334.558594 274.519531 335.132812 275.203125 335.714844 275.855469 C 335.871094 276.027344 336.023438 276.195312 336.179688 276.363281 C 336.316406 276.503906 336.449219 276.648438 336.582031 276.785156 C 336.800781 277.011719 337.023438 277.234375 337.246094 277.453125 C 337.433594 277.632812 337.621094 277.8125 337.808594 277.988281 C 337.949219 278.117188 338.089844 278.25 338.230469 278.375 C 338.421875 278.546875 338.609375 278.710938 338.800781 278.875 C 338.859375 278.925781 338.921875 278.976562 338.980469 279.027344 C 343.078125 282.457031 347.503906 284.242188 351.6875 284.011719 C 351.769531 284.007812 351.847656 284.007812 351.929688 284 C 352.082031 283.992188 352.230469 283.972656 352.382812 283.957031 C 352.558594 283.9375 352.730469 283.914062 352.902344 283.890625 C 353.015625 283.871094 353.132812 283.855469 353.246094 283.835938 C 353.539062 283.78125 353.832031 283.722656 354.125 283.648438 C 361.542969 281.765625 366.699219 273.320312 367.582031 261.609375 C 367.582031 261.605469 367.582031 261.597656 367.582031 261.59375 L 367.601562 261.300781 C 367.601562 261.296875 367.605469 261.296875 367.605469 261.292969 C 367.75 259.164062 367.746094 256.949219 367.597656 254.71875 Z M 248.09375 238.226562 C 245.753906 234.769531 244.3125 231.160156 243.511719 228.675781 C 243.472656 228.566406 243.445312 228.457031 243.410156 228.34375 C 243.320312 228.058594 243.234375 227.769531 243.148438 227.480469 C 243.085938 227.265625 243.019531 227.050781 242.960938 226.832031 C 242.957031 226.8125 242.949219 226.792969 242.945312 226.773438 L 237.058594 224.203125 C 233.015625 222.433594 231.117188 217.699219 232.820312 213.644531 C 234.917969 208.660156 238.90625 202.019531 246.386719 196.3125 C 246.371094 196.292969 246.355469 196.277344 246.335938 196.257812 C 244.277344 194.160156 242.144531 192.074219 239.996094 190.058594 L 239.78125 189.859375 C 238.125 188.304688 236.4375 186.769531 234.761719 185.296875 C 234.609375 185.15625 234.484375 185.046875 234.359375 184.9375 C 232.476562 183.28125 230.578125 181.671875 228.53125 179.984375 C 222.878906 175.34375 216.871094 170.863281 210.679688 166.671875 C 207.195312 164.308594 203.558594 161.972656 199.867188 159.734375 C 195.5625 157.121094 191.117188 154.589844 186.652344 152.214844 C 184.785156 151.222656 182.976562 150.289062 181.277344 149.433594 C 179.835938 148.703125 178.410156 148 176.992188 147.3125 C 174.058594 145.898438 171.132812 144.546875 168.296875 143.296875 C 166.128906 142.335938 163.894531 141.382812 161.464844 140.378906 C 161.25 140.289062 161.046875 140.207031 160.847656 140.125 L 160.410156 139.945312 C 156.589844 138.390625 152.640625 136.882812 148.675781 135.46875 C 146.378906 134.644531 144.011719 133.835938 141.628906 133.058594 C 137.519531 141.539062 132.542969 151.765625 127.367188 161.492188 C 129.679688 162.203125 132.003906 162.953125 134.296875 163.734375 C 134.316406 163.738281 134.339844 163.746094 134.359375 163.753906 C 138.195312 165.054688 142.15625 166.507812 146.132812 168.078125 C 147.4375 168.589844 148.769531 169.128906 150.117188 169.691406 C 151.148438 170.121094 152.191406 170.558594 153.25 171.011719 C 153.566406 171.148438 153.886719 171.289062 154.210938 171.429688 C 158.359375 173.234375 162.539062 175.191406 166.628906 177.242188 C 171.542969 179.71875 176.386719 182.363281 181.03125 185.101562 C 182.171875 185.777344 183.324219 186.464844 184.476562 187.175781 C 190.328125 190.769531 195.984375 194.597656 201.28125 198.550781 C 202.460938 199.4375 203.644531 200.339844 204.824219 201.257812 C 208.097656 203.8125 211.296875 206.472656 214.34375 209.160156 L 214.605469 209.390625 C 214.878906 209.632812 215.152344 209.875 215.425781 210.125 C 216.484375 211.070312 217.566406 212.0625 218.628906 213.058594 C 219.195312 213.585938 219.761719 214.128906 220.328125 214.675781 C 220.472656 214.808594 220.632812 214.964844 220.789062 215.117188 L 220.84375 215.171875 C 222.597656 216.863281 224.347656 218.632812 226.054688 220.429688 C 227.804688 222.257812 229.574219 224.195312 231.3125 226.175781 L 231.496094 226.390625 C 231.761719 226.699219 232.03125 227.007812 232.296875 227.320312 C 232.375 227.410156 232.410156 227.453125 232.449219 227.496094 C 233.601562 228.84375 234.777344 230.492188 235.910156 232.359375 C 235.9375 232.398438 235.980469 232.460938 236.019531 232.535156 C 237.433594 234.886719 238.78125 237.546875 240.023438 240.449219 C 241.128906 243.03125 242.15625 245.804688 243.046875 248.613281 C 243.519531 247.648438 243.988281 246.679688 244.457031 245.710938 C 245.660156 243.230469 246.871094 240.734375 248.09375 238.226562 Z M 168.316406 349 C 203.191406 326.3125 221.988281 291.859375 241.179688 252.457031 C 240.644531 250.550781 240.042969 248.644531 239.382812 246.773438 C 222.207031 281.640625 202.929688 316.171875 168.289062 338.707031 C 166.183594 339.960938 163.585938 340.574219 160.988281 340.574219 C 157.800781 340.574219 154.613281 339.652344 152.339844 337.863281 L 70.183594 273.347656 C 68.4375 274.425781 67.410156 275.789062 67.324219 277.136719 C 67.234375 278.570312 68.207031 279.652344 69.042969 280.308594 C 88.535156 295.617188 108.03125 310.929688 127.523438 326.234375 L 155.671875 348.339844 C 158.839844 350.824219 164.746094 351.132812 168.316406 349 Z M 11.339844 115.734375 C 11.554688 116.140625 11.796875 116.53125 12.054688 116.910156 C 12.105469 116.984375 12.15625 117.058594 12.210938 117.132812 C 14.800781 120.78125 19.335938 123.105469 25.015625 123.875 C 25.046875 123.882812 25.078125 123.886719 25.109375 123.890625 C 26.339844 124.054688 27.621094 124.140625 28.949219 124.15625 C 29.035156 124.15625 29.125 124.15625 29.210938 124.15625 C 31.945312 124.167969 34.859375 123.871094 37.894531 123.230469 C 37.914062 123.230469 37.933594 123.230469 37.949219 123.226562 C 37.960938 123.222656 37.972656 123.222656 37.984375 123.21875 C 42.59375 122.242188 47.308594 120.519531 51.855469 118.105469 C 56.339844 115.730469 60.355469 112.859375 63.789062 109.574219 C 64.367188 109.019531 65.277344 109.042969 65.828125 109.621094 C 66.378906 110.195312 66.359375 111.109375 65.785156 111.660156 C 62.15625 115.128906 57.925781 118.15625 53.207031 120.65625 C 48.824219 122.980469 44.285156 124.699219 39.804688 125.769531 C 39.804688 125.78125 39.808594 125.792969 39.808594 125.804688 C 39.816406 125.855469 39.832031 125.902344 39.84375 125.949219 C 40.417969 128.667969 41.949219 131.09375 44.183594 132.847656 C 44.414062 133.027344 44.640625 133.210938 44.886719 133.378906 C 45.035156 133.480469 45.191406 133.566406 45.339844 133.660156 C 45.625 133.835938 45.90625 134.015625 46.207031 134.175781 C 46.316406 134.234375 46.433594 134.289062 46.546875 134.347656 C 46.929688 134.539062 47.316406 134.726562 47.722656 134.894531 C 47.761719 134.910156 47.800781 134.925781 47.839844 134.941406 C 50.851562 136.164062 54.527344 136.695312 58.59375 136.484375 C 58.695312 136.480469 58.800781 136.476562 58.902344 136.46875 C 59.488281 136.433594 60.085938 136.378906 60.691406 136.3125 C 60.828125 136.296875 60.964844 136.28125 61.101562 136.265625 C 61.71875 136.191406 62.34375 136.101562 62.976562 135.992188 C 63.03125 135.984375 63.089844 135.972656 63.148438 135.964844 C 63.824219 135.84375 64.507812 135.707031 65.195312 135.550781 C 65.257812 135.539062 65.316406 135.523438 65.375 135.511719 C 66.097656 135.339844 66.828125 135.15625 67.566406 134.945312 C 67.597656 134.9375 67.628906 134.9375 67.660156 134.929688 C 75.027344 132.839844 81.996094 128.894531 87.558594 123.621094 C 88.136719 123.074219 89.050781 123.097656 89.597656 123.675781 C 90.148438 124.253906 90.121094 125.167969 89.542969 125.71875 C 83.878906 131.085938 76.835938 135.152344 69.363281 137.429688 C 69.363281 139.238281 69.75 140.898438 70.53125 142.375 C 71.449219 144.109375 72.84375 145.503906 74.601562 146.558594 C 75.949219 147.269531 77.304688 147.820312 78.667969 148.222656 C 83.875 149.582031 90.714844 148.96875 97.769531 146.171875 C 97.789062 146.164062 97.8125 146.164062 97.832031 146.15625 C 97.859375 146.144531 97.886719 146.140625 97.914062 146.132812 C 97.980469 146.113281 98.042969 146.097656 98.113281 146.089844 C 98.132812 146.085938 98.152344 146.085938 98.171875 146.085938 C 98.179688 146.082031 98.183594 146.082031 98.191406 146.082031 C 104.21875 143.398438 109.039062 139.632812 111.289062 137.710938 C 111.894531 137.191406 112.804688 137.261719 113.324219 137.867188 C 113.84375 138.472656 113.773438 139.386719 113.164062 139.902344 C 108.664062 143.753906 104.050781 146.699219 99.480469 148.726562 C 98.277344 154.058594 101.042969 158.816406 106.433594 160.472656 C 106.808594 160.585938 107.183594 160.679688 107.558594 160.769531 C 108.484375 160.976562 109.46875 161.125 110.511719 161.199219 C 114.101562 161.449219 118.035156 160.855469 121.964844 159.5 C 122.023438 159.480469 122.082031 159.460938 122.140625 159.4375 C 122.40625 159.347656 122.667969 159.25 122.929688 159.152344 C 123.042969 159.109375 123.15625 159.066406 123.265625 159.023438 C 123.503906 158.933594 123.742188 158.835938 123.980469 158.738281 C 124.070312 158.699219 124.167969 158.660156 124.257812 158.625 C 124.574219 158.492188 124.886719 158.355469 125.199219 158.210938 C 125.484375 158.082031 125.765625 157.945312 126.046875 157.808594 C 127.824219 154.425781 129.574219 150.996094 131.265625 147.625 C 131.597656 146.957031 131.929688 146.292969 132.261719 145.628906 C 132.921875 144.308594 133.570312 142.996094 134.207031 141.699219 C 136.117188 137.816406 137.925781 134.085938 139.582031 130.667969 L 140.242188 129.304688 C 141.019531 127.707031 141.796875 126.105469 142.574219 124.503906 C 138.011719 112.132812 128.429688 99.691406 113.964844 87.429688 C 73.285156 52.945312 37.332031 75.160156 23.761719 86.3125 C 21.984375 87.71875 20.34375 89.199219 18.863281 90.738281 L 18.859375 90.742188 L 18.648438 90.960938 C 10.554688 99.480469 7.753906 108.96875 11.339844 115.734375 Z M 224.730469 25.855469 C 222.65625 25.855469 220.589844 26.320312 218.996094 27.269531 C 180.953125 52.015625 161.597656 91.878906 142.898438 130.441406 C 144.757812 131.054688 146.601562 131.679688 148.417969 132.320312 C 163.835938 100.121094 180.042969 67.085938 207.796875 42.152344 C 208.125 41.855469 208.578125 41.726562 209.015625 41.804688 C 209.453125 41.886719 209.832031 42.164062 210.039062 42.558594 C 210.769531 43.957031 211.820312 45.199219 213.082031 46.15625 C 218.886719 50.558594 227.703125 50.5 234.519531 46.011719 C 235.984375 45.046875 237.25 43.863281 238.179688 42.59375 C 238.410156 42.277344 238.757812 42.070312 239.148438 42.015625 C 239.535156 41.960938 239.925781 42.070312 240.234375 42.3125 L 296.371094 86.394531 C 296.808594 86.738281 297.007812 87.296875 296.890625 87.839844 C 296.773438 88.378906 296.359375 88.804688 295.820312 88.933594 C 293.898438 89.398438 292.074219 90.175781 290.546875 91.179688 C 287.902344 92.917969 286.316406 95.625 286.199219 98.609375 C 286.078125 101.691406 287.496094 104.613281 290.089844 106.628906 C 291.460938 107.695312 293.035156 108.507812 294.765625 109.050781 C 295.261719 109.207031 295.636719 109.613281 295.746094 110.121094 C 295.855469 110.628906 295.6875 111.15625 295.300781 111.503906 C 271.464844 132.914062 256.195312 160.574219 242.53125 188.484375 C 244.015625 189.890625 245.5 191.335938 246.960938 192.800781 C 258.746094 168.988281 273.144531 142.140625 294.527344 121.121094 C 296.664062 119.011719 298.90625 116.9375 301.191406 114.949219 C 306.199219 110.589844 311.523438 106.566406 317.015625 102.996094 C 317.03125 102.984375 317.046875 102.976562 317.0625 102.964844 C 318.832031 101.910156 319.898438 100.515625 319.984375 99.136719 C 320.078125 97.703125 319.101562 96.621094 318.265625 95.964844 L 231.632812 27.9375 C 229.882812 26.566406 227.296875 25.855469 224.730469 25.855469 Z M 321.722656 141.207031 C 323.496094 140.148438 324.5625 138.75 324.648438 137.375 C 324.738281 135.941406 323.761719 134.859375 322.925781 134.207031 L 320.097656 131.984375 C 298.875 146.222656 283.542969 165.195312 270.859375 185.964844 C 273.121094 185.53125 275.460938 185.191406 277.875 184.941406 C 288.8125 169.242188 302.890625 153.453125 321.675781 141.234375 C 321.691406 141.226562 321.707031 141.214844 321.722656 141.207031 Z M 134.582031 166.882812 C 123.0625 188.757812 109.691406 209.789062 91.003906 227.101562 C 92.191406 227.65625 93.304688 228.332031 94.328125 229.125 C 97.667969 231.71875 99.492188 235.511719 99.335938 239.539062 C 99.179688 243.46875 97.121094 247.015625 93.683594 249.273438 C 92.625 249.96875 91.449219 250.570312 90.207031 251.058594 L 143.078125 292.574219 C 144.054688 291.480469 145.214844 290.484375 146.539062 289.613281 C 154.359375 284.460938 164.546875 284.449219 171.308594 289.578125 C 172.417969 290.421875 173.398438 291.4375 174.203125 292.570312 C 195.917969 272.601562 210.445312 247.402344 223.253906 221.6875 C 221.796875 220.171875 220.320312 218.675781 218.835938 217.242188 L 218.78125 217.1875 C 218.632812 217.046875 218.484375 216.902344 218.339844 216.765625 C 217.769531 216.21875 217.214844 215.6875 216.65625 215.167969 C 215.648438 214.21875 214.625 213.28125 213.609375 212.371094 C 205.273438 223.523438 193.707031 234.8125 180.8125 237.792969 C 178.683594 238.285156 176.582031 238.53125 174.519531 238.53125 C 168.453125 238.53125 162.6875 236.40625 157.320312 232.175781 C 141.207031 219.480469 142.183594 194.042969 147.832031 171.878906 C 146.90625 171.5 145.980469 171.117188 145.074219 170.761719 C 141.535156 169.367188 138.015625 168.066406 134.582031 166.882812 Z M 153.054688 174.074219 C 152.738281 173.933594 152.421875 173.796875 152.113281 173.664062 C 151.585938 173.4375 151.074219 173.226562 150.554688 173.007812 C 149.265625 178.117188 148.226562 183.386719 147.613281 188.585938 C 146.019531 202.050781 146.722656 220.148438 159.105469 229.90625 C 165.578125 235.007812 172.664062 236.714844 180.164062 234.980469 C 191.863281 232.273438 203.097656 221.570312 211.425781 210.445312 C 208.726562 208.097656 205.917969 205.773438 203.050781 203.53125 C 201.886719 202.625 200.714844 201.734375 199.550781 200.863281 C 194.328125 196.960938 188.746094 193.183594 182.964844 189.632812 C 181.824219 188.933594 180.683594 188.25 179.558594 187.585938 C 174.976562 184.878906 170.1875 182.265625 165.332031 179.820312 C 161.292969 177.792969 157.160156 175.863281 153.054688 174.074219 Z M 240.324219 186.425781 C 253.679688 159.207031 268.632812 132.25 291.640625 110.933594 C 290.453125 110.378906 289.339844 109.703125 288.320312 108.910156 C 284.976562 106.316406 283.152344 102.519531 283.3125 98.496094 C 283.46875 94.566406 285.527344 91.019531 288.960938 88.765625 C 290.019531 88.070312 291.195312 87.46875 292.441406 86.980469 L 239.570312 45.460938 C 238.589844 46.558594 237.429688 47.550781 236.105469 48.421875 C 228.285156 53.570312 218.101562 53.585938 211.335938 48.457031 C 210.230469 47.617188 209.25 46.601562 208.441406 45.464844 C 181.964844 69.8125 166.167969 101.9375 151.152344 133.292969 C 154.609375 134.550781 158.046875 135.867188 161.394531 137.230469 C 169.226562 123.679688 184.300781 104.265625 201.789062 100.21875 C 210.191406 98.277344 218.109375 100.175781 225.324219 105.859375 C 244.519531 120.984375 239.464844 154.191406 231.148438 178.402344 C 232.925781 179.875 234.601562 181.304688 236.234375 182.742188 C 236.402344 182.886719 236.550781 183.015625 236.699219 183.15625 C 237.898438 184.207031 239.113281 185.3125 240.324219 186.425781 Z M 209.550781 162.441406 C 210.476562 163.050781 211.394531 163.664062 212.300781 164.28125 C 217.980469 168.128906 223.492188 172.21875 228.738281 176.449219 C 231.539062 168.085938 233.945312 158.65625 235.035156 149.449219 C 236.625 135.984375 235.921875 117.886719 223.539062 108.128906 C 218.683594 104.300781 213.484375 102.375 208.035156 102.375 C 206.195312 102.375 204.332031 102.59375 202.441406 103.03125 C 186.960938 106.613281 172.273438 124.285156 164.082031 138.339844 C 165.957031 139.121094 167.734375 139.886719 169.46875 140.652344 C 172.328125 141.917969 175.285156 143.285156 178.246094 144.710938 C 178.441406 144.808594 178.640625 144.910156 178.839844 145.003906 C 180.292969 143.925781 181.820312 143.21875 183.429688 142.902344 C 184.148438 142.722656 184.792969 142.855469 185.359375 143.300781 C 185.753906 143.609375 186.027344 144.011719 186.179688 144.507812 C 186.335938 145.003906 186.332031 145.417969 186.175781 145.753906 C 185.941406 146.253906 185.53125 146.597656 184.960938 146.78125 C 184.46875 146.960938 184.003906 147.152344 183.550781 147.347656 C 184.980469 148.074219 186.472656 148.851562 188.007812 149.664062 C 192.523438 152.066406 197.015625 154.621094 201.367188 157.261719 C 201.941406 157.613281 202.515625 157.96875 203.089844 158.324219 C 204.484375 158.519531 205.941406 159.207031 207.472656 160.410156 C 208.25 161.019531 208.933594 161.703125 209.550781 162.441406 Z M 323.09375 124.628906 C 323.183594 123.195312 322.207031 122.113281 321.375 121.457031 L 318.546875 119.238281 C 292.109375 136.972656 274.816406 162.050781 260.386719 188.789062 C 262.488281 188.027344 264.6875 187.371094 266.96875 186.808594 C 280.417969 164.300781 296.78125 143.671875 320.125 128.488281 C 320.136719 128.476562 320.15625 128.46875 320.171875 128.457031 C 321.9375 127.402344 323.003906 126.003906 323.09375 124.628906 Z M 321.539062 111.882812 C 321.628906 110.449219 320.652344 109.367188 319.820312 108.710938 L 316.980469 106.480469 C 312.167969 109.707031 307.5 113.28125 303.082031 117.128906 C 300.84375 119.078125 298.644531 121.109375 296.550781 123.175781 C 275.472656 143.898438 261.210938 170.511719 249.527344 194.125 C 250.363281 193.585938 251.222656 193.054688 252.136719 192.542969 C 253.4375 191.8125 254.800781 191.148438 256.191406 190.515625 C 271.417969 161.75 289.632812 134.5625 318.570312 115.742188 C 318.585938 115.730469 318.601562 115.722656 318.617188 115.710938 C 320.386719 114.65625 321.453125 113.261719 321.539062 111.882812 Z M 65.632812 235.039062 C 63.816406 236.125 62.75 237.519531 62.660156 238.898438 C 62.570312 240.332031 63.546875 241.414062 64.378906 242.070312 L 86.0625 259.097656 C 88.578125 261.074219 91.097656 263.050781 93.613281 265.03125 L 94.4375 265.675781 C 97.175781 267.824219 99.914062 269.972656 102.65625 272.128906 L 131.167969 294.519531 C 134.628906 297.238281 138.09375 299.957031 141.554688 302.679688 C 144.707031 305.152344 147.859375 307.625 151.011719 310.105469 C 151.296875 310.332031 151.613281 310.539062 151.945312 310.726562 C 151.972656 310.738281 152.089844 310.804688 152.121094 310.820312 C 155.527344 312.679688 160.488281 312.65625 163.652344 310.765625 C 193.417969 291.402344 211.554688 263.84375 229.472656 228.460938 C 229.421875 228.402344 229.367188 228.339844 229.316406 228.28125 L 229.132812 228.070312 C 227.890625 226.652344 226.628906 225.269531 225.367188 223.917969 C 212.300781 250.058594 197.382812 275.640625 174.851562 295.882812 C 174.582031 296.121094 174.238281 296.25 173.886719 296.25 C 173.800781 296.25 173.714844 296.242188 173.628906 296.226562 C 173.191406 296.148438 172.8125 295.871094 172.605469 295.476562 C 171.878906 294.082031 170.824219 292.835938 169.5625 291.878906 C 163.757812 287.476562 154.945312 287.535156 148.128906 292.023438 C 146.660156 292.992188 145.394531 294.171875 144.464844 295.441406 C 144.234375 295.757812 143.886719 295.964844 143.496094 296.019531 C 143.109375 296.074219 142.71875 295.964844 142.410156 295.722656 L 86.273438 251.640625 C 85.835938 251.296875 85.636719 250.738281 85.753906 250.195312 C 85.871094 249.65625 86.285156 249.230469 86.824219 249.101562 C 88.746094 248.636719 90.570312 247.859375 92.097656 246.855469 C 94.746094 245.117188 96.332031 242.410156 96.449219 239.425781 C 96.570312 236.34375 95.152344 233.417969 92.554688 231.40625 C 91.183594 230.339844 89.609375 229.523438 87.878906 228.984375 C 87.382812 228.828125 87.007812 228.421875 86.898438 227.914062 C 86.789062 227.40625 86.960938 226.878906 87.34375 226.53125 C 106.488281 209.335938 120.109375 188.105469 131.808594 165.949219 C 129.867188 165.304688 127.914062 164.679688 125.96875 164.089844 C 112.8125 188.441406 95.3125 215.734375 65.632812 235.039062 Z M 67.074219 247.859375 C 65.328125 248.933594 64.300781 250.296875 64.214844 251.644531 C 64.125 253.078125 65.097656 254.160156 65.933594 254.816406 L 152.566406 322.847656 C 155.730469 325.332031 161.636719 325.640625 165.207031 323.511719 C 198.429688 301.898438 217.394531 268.757812 234.121094 235.019531 C 233.925781 234.671875 233.730469 234.320312 233.527344 233.992188 C 233.511719 233.960938 233.492188 233.929688 233.476562 233.898438 C 232.808594 232.800781 232.136719 231.8125 231.46875 230.910156 C 213.523438 266.15625 195.207031 293.683594 165.179688 313.214844 C 163.097656 314.460938 160.503906 315.082031 157.890625 315.082031 C 155.390625 315.082031 152.878906 314.515625 150.777344 313.378906 C 150.675781 313.328125 150.574219 313.273438 150.472656 313.210938 C 150.070312 312.984375 149.632812 312.691406 149.226562 312.375 C 146.074219 309.898438 142.921875 307.425781 139.769531 304.953125 C 136.308594 302.230469 132.84375 299.507812 129.382812 296.792969 L 100.871094 274.398438 C 98.132812 272.246094 95.394531 270.097656 92.65625 267.949219 L 91.828125 267.300781 C 89.3125 265.320312 86.792969 263.34375 84.277344 261.367188 Z M 68.628906 260.601562 C 66.882812 261.679688 65.855469 263.042969 65.769531 264.390625 C 65.675781 265.824219 66.652344 266.90625 67.488281 267.5625 L 154.121094 335.59375 C 157.285156 338.078125 163.191406 338.386719 166.761719 336.253906 C 201.519531 313.644531 220.671875 278.414062 237.980469 243.085938 C 237.777344 242.582031 237.578125 242.070312 237.371094 241.582031 C 236.859375 240.390625 236.328125 239.25 235.785156 238.152344 C 219.109375 271.601562 200.007812 304.316406 166.734375 325.960938 C 164.628906 327.214844 162.03125 327.828125 159.433594 327.828125 C 156.246094 327.828125 153.0625 326.90625 150.785156 325.121094 Z M 342.839844 229.015625 C 338.859375 232.046875 333.660156 230.105469 330.269531 226.832031 C 328.316406 224.945312 326.625 222.535156 325.261719 219.796875 C 325.234375 219.730469 325.203125 219.664062 325.164062 219.597656 C 324.171875 217.570312 323.355469 215.367188 322.777344 213.035156 C 322.585938 212.261719 321.800781 211.785156 321.027344 211.984375 C 320.253906 212.175781 319.78125 212.957031 319.976562 213.734375 C 320.53125 215.960938 321.28125 218.09375 322.191406 220.085938 C 318.851562 223.140625 314.027344 220.867188 311.578125 218.914062 C 309.011719 216.871094 306.964844 213.8125 305.589844 210.007812 C 305.59375 209.683594 305.496094 209.367188 305.296875 209.109375 C 305.203125 208.820312 305.101562 208.539062 305.015625 208.242188 C 304.792969 207.476562 303.992188 207.035156 303.226562 207.257812 C 302.460938 207.480469 302.023438 208.28125 302.242188 209.046875 C 302.324219 209.320312 302.417969 209.582031 302.503906 209.851562 C 300.464844 212.5625 296.945312 213.222656 293.875 211.371094 C 290.613281 209.402344 287.984375 205.539062 286.472656 200.492188 C 286.246094 199.730469 285.441406 199.292969 284.679688 199.523438 C 283.914062 199.753906 283.480469 200.554688 283.707031 201.320312 C 284.921875 205.378906 287.414062 210.84375 292.386719 213.84375 C 294.019531 214.828125 295.769531 215.300781 297.472656 215.300781 C 299.742188 215.300781 301.917969 214.453125 303.632812 212.871094 C 305.160156 216.324219 307.242188 219.152344 309.777344 221.171875 C 312.210938 223.113281 315.308594 224.449219 318.292969 224.449219 C 320.152344 224.449219 321.964844 223.933594 323.546875 222.71875 C 324.894531 225.078125 326.480469 227.183594 328.265625 228.910156 C 330.980469 231.53125 334.671875 233.429688 338.371094 233.429688 C 340.5 233.429688 342.636719 232.800781 344.585938 231.3125 C 345.222656 230.832031 345.34375 229.925781 344.859375 229.289062 C 344.378906 228.65625 343.472656 228.53125 342.839844 229.015625 Z M 342.839844 229.015625 " fill-opacity="1" fill-rule="nonzero"/></g></svg>