<svg xmlns="http://www.w3.org/2000/svg" xmlns:xlink="http://www.w3.org/1999/xlink" width="500" zoomAndPan="magnify" viewBox="0 0 375 374.999991" height="500" preserveAspectRatio="xMidYMid meet" version="1.0"><defs><clipPath id="593957cb68"><path d="M 17.3125 30.246094 L 324.859375 30.246094 L 324.859375 336.972656 L 17.3125 336.972656 Z M 17.3125 30.246094 " clip-rule="nonzero"/></clipPath><clipPath id="4f59680ae2"><path d="M 184 163 L 357.8125 163 L 357.8125 336.972656 L 184 336.972656 Z M 184 163 " clip-rule="nonzero"/></clipPath></defs><path fill="#100f0d" d="M 130.089844 234.566406 C 123.652344 234.492188 118.183594 229.667969 117.636719 223.613281 C 117.316406 220.171875 118.429688 216.882812 120.746094 214.339844 C 123.03125 211.84375 126.292969 210.40625 129.671875 210.40625 C 134.886719 210.40625 139.496094 213.730469 141.148438 218.671875 C 142.222656 221.886719 145.128906 224.050781 148.378906 224.050781 L 148.882812 224.050781 C 151.5 224.050781 153.96875 222.785156 155.5 220.652344 C 157.023438 218.53125 157.433594 215.894531 156.59375 213.441406 C 153.632812 204.683594 146.683594 197.996094 137.835938 195.335938 L 137.835938 193.054688 C 137.835938 188.5625 134.175781 184.90625 129.683594 184.90625 C 125.175781 184.90625 121.519531 188.5625 121.519531 193.054688 L 121.519531 195.324219 C 109.539062 198.917969 101.269531 209.914062 101.269531 222.488281 C 101.269531 237.953125 113.859375 250.6875 129.339844 250.871094 C 137.546875 250.957031 144.269531 257.214844 144.679688 265.105469 C 144.882812 269.253906 143.421875 273.195312 140.558594 276.207031 C 137.683594 279.222656 133.824219 280.882812 129.671875 280.882812 C 123.03125 280.882812 117.109375 276.433594 115.246094 270.066406 C 114.257812 266.679688 111.050781 264.3125 107.457031 264.3125 C 104.851562 264.3125 102.457031 265.511719 100.882812 267.601562 C 99.359375 269.628906 98.875 272.191406 99.585938 274.601562 C 102.640625 285.105469 110.988281 293.242188 121.519531 296.082031 L 121.519531 298.226562 C 121.519531 302.726562 125.175781 306.382812 129.683594 306.382812 C 134.175781 306.382812 137.835938 302.726562 137.835938 298.226562 L 137.835938 296.082031 C 151.328125 292.425781 161.003906 279.917969 161.003906 265.875 C 161.003906 248.832031 147.132812 234.792969 130.089844 234.566406 " fill-opacity="1" fill-rule="nonzero"/><g clip-path="url(#593957cb68)"><path fill="#100f0d" d="M 295.71875 30.234375 L 93.296875 30.234375 C 76.769531 30.234375 63.371094 43.625 63.371094 60.140625 L 63.371094 279.726562 L 24.210938 279.851562 C 20.421875 279.851562 17.3125 282.949219 17.3125 286.746094 L 17.3125 307.066406 C 17.3125 323.574219 30.710938 336.972656 47.238281 336.972656 L 196.914062 336.972656 C 203.09375 336.972656 206.109375 329.40625 201.582031 325.195312 C 201.527344 325.152344 201.472656 325.097656 201.421875 325.042969 C 200.144531 323.863281 198.492188 323.179688 196.753906 323.179688 L 72.433594 323.179688 C 75.417969 318.539062 77.175781 313.015625 77.175781 307.066406 L 77.175781 60.152344 C 77.175781 50.699219 85.328125 43.152344 94.941406 44.117188 C 103.304688 44.953125 109.421875 52.46875 109.421875 60.871094 L 109.421875 80.464844 C 109.421875 84.269531 112.507812 87.355469 116.328125 87.355469 L 264.4375 87.355469 L 264.4375 141.519531 C 264.4375 145.28125 267.484375 148.324219 271.238281 148.335938 L 271.410156 148.335938 C 275.1875 148.335938 278.242188 145.289062 278.242188 141.519531 L 278.242188 87.355469 L 294.71875 87.355469 C 309.941406 87.355469 323.242188 75.886719 324.226562 60.699219 C 325.3125 44.074219 312.097656 30.234375 295.71875 30.234375 " fill-opacity="1" fill-rule="nonzero"/></g><g clip-path="url(#4f59680ae2)"><path fill="#100f0d" d="M 271.261719 163.878906 C 223.429688 163.878906 184.65625 202.625 184.65625 250.417969 C 184.65625 298.214844 223.429688 336.960938 271.261719 336.960938 C 319.089844 336.960938 357.867188 298.214844 357.867188 250.417969 C 357.867188 202.625 319.089844 163.878906 271.261719 163.878906 Z M 271.261719 179.546875 C 310.359375 179.546875 342.171875 211.339844 342.171875 250.417969 C 342.171875 289.488281 310.359375 321.28125 271.261719 321.28125 C 232.152344 321.28125 200.335938 289.488281 200.335938 250.417969 C 200.335938 211.339844 232.152344 179.546875 271.261719 179.546875 " fill-opacity="1" fill-rule="nonzero"/></g><path fill="#100f0d" d="M 235.390625 124.164062 L 106.234375 124.164062 C 101.910156 124.164062 98.394531 120.660156 98.394531 116.328125 C 98.394531 112 101.910156 108.492188 106.234375 108.492188 L 235.390625 108.492188 C 239.726562 108.492188 243.234375 112 243.234375 116.328125 C 243.234375 120.660156 239.726562 124.164062 235.390625 124.164062 " fill-opacity="1" fill-rule="nonzero"/><path fill="#100f0d" d="M 171.601562 162.171875 L 106.234375 162.171875 C 101.910156 162.171875 98.394531 158.667969 98.394531 154.335938 C 98.394531 150.007812 101.910156 146.503906 106.234375 146.503906 L 171.601562 146.503906 C 175.925781 146.503906 179.441406 150.007812 179.441406 154.335938 C 179.441406 158.667969 175.925781 162.171875 171.601562 162.171875 " fill-opacity="1" fill-rule="nonzero"/><path fill="#100f0d" d="M 312.300781 251.363281 L 286.535156 244.566406 C 285.140625 240.933594 282.480469 237.964844 279.101562 236.109375 L 279.101562 198.230469 C 279.101562 193.898438 275.59375 190.394531 271.261719 190.394531 C 266.925781 190.394531 263.417969 193.898438 263.417969 198.230469 L 263.417969 236.109375 C 258.347656 238.898438 254.859375 244.222656 254.859375 250.417969 C 254.859375 259.464844 262.207031 266.796875 271.261719 266.796875 C 275.335938 266.796875 279.015625 265.253906 281.878906 262.800781 L 307.429688 269.53125 C 312.449219 270.871094 317.609375 267.902344 318.949219 262.886719 C 320.300781 257.871094 317.320312 252.714844 312.300781 251.363281 " fill-opacity="1" fill-rule="nonzero"/></svg>