<svg xmlns="http://www.w3.org/2000/svg" xmlns:xlink="http://www.w3.org/1999/xlink" width="500" zoomAndPan="magnify" viewBox="0 0 375 374.999991" height="500" preserveAspectRatio="xMidYMid meet" version="1.0"><defs><clipPath id="be2ee70531"><path d="M 74.628906 11.140625 L 300.378906 11.140625 L 300.378906 361 L 74.628906 361 Z M 74.628906 11.140625 " clip-rule="nonzero"/></clipPath><clipPath id="55e6dc292f"><path d="M 91 11.140625 L 284 11.140625 L 284 352 L 91 352 Z M 91 11.140625 " clip-rule="nonzero"/></clipPath><clipPath id="924d386a14"><path d="M 74.628906 64 L 300.378906 64 L 300.378906 361 L 74.628906 361 Z M 74.628906 64 " clip-rule="nonzero"/></clipPath></defs><g clip-path="url(#be2ee70531)"><path fill="#ffffff" d="M 300.164062 164.683594 C 300.089844 157.308594 298.992188 149.9375 298.628906 142.632812 C 298.554688 139.128906 296.949219 135.84375 296.726562 132.339844 C 295.414062 121.097656 288.910156 111.09375 281.3125 103.0625 C 276.273438 97.585938 270.207031 92.839844 262.976562 90.722656 C 262.757812 86.707031 262.316406 82.765625 261.878906 78.75 C 261.292969 73.929688 262.171875 69.039062 260.855469 64.367188 C 262.902344 62.832031 264.582031 61.007812 266.117188 58.964844 C 270.136719 53.851562 270.0625 46.84375 269.257812 40.710938 C 268.089844 35.453125 266.410156 29.6875 261.660156 26.472656 C 258.152344 23.332031 253.40625 22.53125 249.53125 20.121094 C 231.925781 13.039062 212.785156 12.089844 194.007812 11.652344 C 183.777344 11.214844 173.550781 12.382812 163.394531 12.453125 C 157.625 12.453125 152.070312 13.914062 146.300781 13.695312 C 133.296875 15.230469 120 18.078125 109.113281 25.523438 C 100.492188 31.363281 97.058594 42.902344 99.25 52.832031 C 99.90625 58.453125 103.339844 63.5625 108.164062 66.554688 C 110.207031 69.695312 109.40625 73.566406 109.550781 77.070312 C 109.332031 80.941406 109.84375 84.808594 109.113281 88.605469 C 106.261719 92.769531 101.660156 95.324219 97.863281 98.535156 C 90.554688 104.230469 83.613281 110.800781 79.523438 119.269531 C 76.601562 124.894531 76.382812 131.390625 74.921875 137.449219 C 74.773438 142.5625 75.359375 147.671875 75.140625 152.785156 C 75.578125 197.320312 78.792969 241.785156 79.011719 286.320312 C 79.597656 294.570312 78.28125 302.820312 79.230469 311.074219 C 79.597656 314.578125 78.9375 318.59375 81.496094 321.441406 C 85.878906 326.40625 91.214844 330.421875 95.523438 335.457031 C 104.070312 341.882812 112.984375 348.015625 123.285156 351.449219 C 157.40625 363.277344 194.882812 363.640625 229.804688 355.097656 C 242.152344 352.25 253.84375 347.140625 265.019531 341.226562 C 272.179688 337.355469 278.390625 331.953125 284.089844 326.1875 C 287.742188 322.535156 290.226562 317.933594 292.199219 313.261719 C 293.222656 312.679688 294.976562 312.53125 294.976562 311 C 295.925781 305.667969 295.632812 300.265625 296.363281 294.863281 C 297.53125 276.027344 299.140625 257.191406 299.285156 238.28125 C 299.503906 213.746094 300.308594 189.214844 300.164062 164.683594 Z M 300.164062 164.683594 " fill-opacity="1" fill-rule="nonzero"/></g><g clip-path="url(#55e6dc292f)"><path fill="#fdbe6b" d="M 163.324219 12.382812 C 173.550781 12.308594 183.777344 11.140625 194.007812 11.578125 C 212.710938 12.089844 231.925781 13.039062 249.53125 20.046875 C 253.40625 22.457031 258.152344 23.261719 261.660156 26.398438 C 266.335938 29.613281 268.015625 35.378906 269.257812 40.636719 C 270.0625 46.769531 270.136719 53.78125 266.117188 58.890625 C 264.582031 60.863281 262.902344 62.761719 260.855469 64.292969 C 256.617188 67.140625 251.941406 69.402344 246.976562 70.5 C 225.421875 75.390625 203.285156 76.996094 181.296875 77.070312 C 177.570312 77.070312 173.917969 76.414062 170.191406 76.414062 C 156.894531 76.707031 143.523438 76.339844 130.445312 73.636719 C 122.847656 72.03125 114.957031 70.644531 108.234375 66.628906 C 103.414062 63.636719 99.980469 58.597656 99.324219 52.902344 C 97.058594 42.902344 100.492188 31.363281 109.113281 25.523438 C 120 18.078125 133.296875 15.300781 146.226562 13.625 C 152 13.84375 157.625 12.382812 163.324219 12.382812 Z M 263.265625 41.003906 C 261.367188 42.460938 259.761719 44.289062 257.789062 45.527344 C 252.382812 49.035156 245.953125 50.640625 239.816406 52.390625 C 231.195312 54.582031 222.355469 55.898438 213.660156 57.429688 C 204.675781 59.183594 195.46875 59.621094 186.335938 60.351562 C 169.3125 61.738281 152.144531 60.714844 135.339844 57.941406 C 124.453125 56.042969 113.351562 53.339844 104.070312 47.0625 C 102.976562 45.894531 100.566406 46.1875 101.003906 48.15625 C 102.609375 51.152344 105.605469 52.976562 108.527344 54.4375 C 116.492188 58.304688 125.257812 60.496094 133.953125 62.03125 C 150.390625 64.730469 167.195312 65.753906 183.777344 64.292969 C 194.519531 63.5625 205.257812 62.613281 215.925781 60.644531 C 231.121094 58.304688 247.046875 56.261719 260.5625 48.304688 C 263.121094 46.699219 266.773438 43.996094 265.53125 40.5625 C 264.949219 40.710938 263.851562 40.929688 263.265625 41.003906 Z M 259.101562 219.441406 C 259.542969 220.902344 259.90625 223.019531 258.300781 223.96875 C 255.304688 226.453125 250.992188 227.253906 248.730469 230.539062 C 247.632812 232.4375 250.117188 233.898438 251.796875 233.023438 C 256.765625 231.636719 263.195312 229.882812 264.65625 224.261719 C 265.75 217.835938 260.929688 212.652344 258.589844 207.175781 C 257.496094 204.839844 258.738281 202.429688 259.320312 200.167969 C 260.273438 200.605469 261.222656 201.042969 262.171875 201.480469 C 263.265625 199.363281 263.121094 196.152344 260.273438 195.714844 C 255.886719 195.277344 253.625 200.3125 253.113281 203.890625 C 252.234375 209.878906 257.347656 214.1875 259.101562 219.441406 Z M 218.335938 223.96875 C 214.902344 219.882812 212.929688 214.476562 208.253906 211.558594 C 205.988281 209.953125 202.480469 211.339844 202.117188 214.113281 C 201.605469 218.054688 202.410156 222.070312 202.703125 226.015625 C 203.285156 229.957031 202.703125 234.117188 204.234375 237.914062 C 205.550781 238.71875 206.867188 238.0625 207.085938 236.601562 C 207.960938 230.6875 207.15625 224.699219 207.230469 218.710938 C 209.933594 222.21875 212.34375 225.941406 215.121094 229.371094 C 216.144531 230.539062 217.53125 232 219.285156 231.636719 C 221.695312 231.125 222.207031 228.351562 222.574219 226.304688 C 223.523438 219.734375 223.523438 213.019531 222.9375 206.445312 C 222.648438 203.671875 222.648438 200.679688 221.183594 198.195312 C 219.941406 198.78125 219.140625 199.949219 218.992188 201.410156 C 218.261719 208.855469 219.359375 216.449219 218.335938 223.96875 Z M 231.707031 219.003906 C 232.144531 222.289062 233.96875 225.792969 237.40625 226.816406 C 243.761719 228.714844 250.628906 221.269531 247.925781 215.207031 C 246.246094 211.996094 242.007812 213.089844 239.378906 214.476562 C 237.476562 217.105469 241.714844 217.617188 243.394531 218.128906 C 242.664062 219.371094 242.226562 221.195312 240.617188 221.558594 C 238.5 222.582031 237.40625 219.953125 237.113281 218.347656 C 236.527344 213.746094 237.695312 208.855469 240.109375 204.914062 C 243.613281 203.964844 247.414062 203.816406 250.773438 202.285156 C 249.3125 199.4375 245.953125 199.292969 243.175781 199.4375 C 240.328125 199.65625 237.113281 200.605469 235.503906 203.160156 C 232.507812 207.6875 230.976562 213.457031 231.707031 219.003906 Z M 133.878906 238.71875 C 134.246094 240.46875 132.855469 242.367188 131.03125 242.296875 C 127.742188 242.296875 124.234375 241.710938 121.605469 239.449219 C 120.800781 240.324219 119.488281 241.273438 120.21875 242.660156 C 121.167969 244.339844 122.992188 245.144531 124.675781 245.945312 C 127.742188 247.1875 131.394531 248.210938 134.609375 246.601562 C 137.972656 244.851562 139.433594 240.617188 138.480469 237.039062 C 137.167969 230.539062 132.492188 225.574219 129.714844 219.734375 C 128.253906 216.742188 128.253906 212.214844 131.46875 210.460938 C 133.660156 209.003906 136.144531 210.535156 138.335938 210.972656 C 138.117188 209.003906 137.75 206.664062 135.558594 206.082031 C 129.640625 204.257812 123.652344 209.878906 123.945312 215.792969 C 123.945312 224.699219 132.929688 230.101562 133.878906 238.71875 Z M 194.664062 233.605469 C 194.882812 235.722656 195.613281 237.769531 196.5625 239.667969 C 198.757812 237.332031 198.171875 233.972656 198.316406 231.050781 C 198.316406 223.238281 199.488281 215.207031 197.734375 207.46875 C 197.148438 205.425781 194.300781 206.226562 194.152344 208.125 C 192.621094 216.59375 193.789062 225.210938 194.664062 233.605469 Z M 175.886719 233.460938 C 174.28125 226.890625 173.039062 220.246094 171.210938 213.746094 C 170.628906 211.996094 169.898438 209.660156 167.707031 209.585938 C 165.585938 210.316406 166.171875 212.726562 166.464844 214.40625 C 167.851562 221.707031 169.3125 228.933594 170.992188 236.164062 C 171.578125 238.0625 172.164062 240.761719 174.574219 241.128906 C 177.128906 241.566406 178.664062 239.011719 179.613281 237.039062 C 181.953125 231.5625 183.488281 225.792969 185.09375 220.101562 C 186.042969 216.230469 187.503906 212.359375 186.992188 208.273438 C 185.019531 207.613281 184.4375 210.097656 183.707031 211.410156 C 180.710938 218.640625 178.957031 226.304688 175.886719 233.460938 Z M 152.507812 210.902344 C 153.019531 209.660156 153.898438 207.832031 155.503906 208.929688 C 157.695312 210.460938 159.816406 212.359375 160.546875 214.988281 C 162.082031 220.246094 162.8125 225.648438 163.324219 231.125 C 163.761719 235.796875 164.710938 240.617188 163.324219 245.214844 C 161.351562 242.660156 160.621094 239.449219 159.816406 236.382812 C 156.527344 236.890625 153.167969 237.039062 149.804688 236.964844 C 148.785156 239.667969 148.34375 242.804688 146.371094 244.996094 C 146.007812 244.921875 145.203125 244.777344 144.839844 244.703125 C 144.253906 240.90625 145.933594 237.332031 146.519531 233.605469 C 147.6875 225.792969 149.660156 218.203125 152.507812 210.902344 Z M 155.578125 217.253906 C 154.042969 222.21875 152.875 227.253906 151.414062 232.21875 C 153.898438 232.148438 156.382812 232.074219 158.867188 232.074219 C 157.476562 227.183594 156.527344 222.21875 155.578125 217.253906 Z M 108.382812 254.414062 C 107.722656 248.210938 106.703125 242.078125 106.484375 235.871094 C 104.4375 241.855469 104 249.304688 108.382812 254.414062 Z M 269.695312 238.28125 C 273.570312 241.347656 277.222656 245.144531 278.609375 250.109375 C 279.996094 255.4375 280.144531 261.207031 278.535156 266.460938 C 277.222656 270.914062 274.300781 274.640625 271.15625 278.070312 C 275.542969 278.800781 280.4375 280.1875 282.554688 284.496094 C 285.988281 290.847656 282.628906 298.515625 277.585938 302.894531 C 279.414062 305.960938 280.582031 309.683594 279.339844 313.261719 C 277.367188 318.882812 272.691406 323.339844 267.433594 325.894531 C 261.148438 328.742188 254.355469 330.273438 247.488281 330.054688 C 244.785156 332.027344 242.957031 335.09375 239.816406 336.554688 C 232.070312 340.570312 222.867188 341.808594 214.316406 339.910156 C 213.074219 341.445312 211.832031 343.125 210.007812 344.148438 C 199.558594 350.207031 187.140625 352.617188 175.230469 351.375 C 168.21875 350.644531 160.910156 346.042969 160.253906 338.378906 C 156.015625 337.792969 151.488281 337.285156 147.90625 334.800781 C 145.277344 333.050781 143.667969 330.347656 142.136719 327.71875 C 138.410156 327.863281 134.683594 328.230469 131.03125 327.5 C 126.792969 326.550781 123.140625 324.140625 119.78125 321.585938 C 121.898438 318.375 123.285156 314.648438 124.015625 310.851562 C 125.332031 304.9375 122.410156 298.734375 118.027344 294.863281 C 114.371094 291.722656 108.964844 290.554688 104.511719 292.308594 C 104.511719 292.746094 104.582031 293.695312 104.65625 294.207031 C 107.945312 295.300781 111.816406 295.15625 114.664062 297.492188 C 118.757812 300.921875 120.800781 306.617188 119.851562 311.875 C 119.269531 315.453125 118.246094 318.957031 117.734375 322.535156 C 114.226562 322.898438 110.71875 323.777344 107.214844 323.191406 C 99.980469 322.171875 93.1875 316.914062 91.578125 309.613281 C 89.605469 303.332031 93.257812 295.886719 99.613281 293.914062 C 97.203125 287.707031 96.109375 280.84375 97.640625 274.273438 C 99.324219 267.558594 103.558594 261.644531 108.675781 257.042969 C 109.40625 262.15625 108.089844 267.410156 108.964844 272.449219 C 111.304688 274.128906 114.226562 275.003906 117.003906 275.808594 C 124.089844 277.707031 131.175781 279.3125 138.261719 281.136719 C 136.730469 283.621094 135.269531 286.320312 133.003906 288.21875 C 131.101562 289.824219 129.277344 291.503906 127.890625 293.550781 C 134.828125 293.695312 138.628906 287.050781 141.625 281.792969 C 144.179688 282.304688 146.8125 282.816406 149.441406 283.253906 C 151.339844 288.292969 153.972656 295.15625 160.398438 295.230469 C 158.0625 291.503906 155.652344 287.855469 153.898438 283.910156 C 165.148438 285.371094 176.546875 285.371094 187.871094 284.714844 C 187.871094 285.226562 187.871094 286.175781 187.871094 286.6875 C 185.3125 289.460938 182.683594 292.308594 181.585938 295.957031 C 180.125 300.484375 181.585938 305.667969 185.09375 308.882812 C 185.460938 304.9375 184.582031 300.921875 185.460938 297.128906 C 187.433594 291.941406 191.597656 286.757812 197.515625 286.175781 C 197.515625 285.664062 197.441406 284.570312 197.367188 284.058594 C 199.558594 283.839844 201.824219 283.546875 204.015625 283.253906 C 205.550781 286.25 207.523438 289.097656 210.300781 291.140625 C 210.007812 288.21875 209.351562 285.371094 208.398438 282.597656 C 213.222656 281.867188 218.042969 280.992188 222.792969 279.96875 C 220.964844 284.640625 219.140625 289.753906 220.453125 294.789062 C 221.40625 298.367188 222.71875 302.601562 226.445312 304.136719 C 225.789062 299.828125 224.179688 295.738281 223.886719 291.433594 C 223.667969 286.90625 225.640625 282.816406 227.394531 278.800781 C 234.992188 276.609375 242.371094 273.691406 249.679688 270.84375 C 253.476562 273.105469 257.496094 275.222656 262.097656 275.152344 C 259.980469 272.886719 257.570312 270.988281 255.085938 269.308594 C 258.738281 267.921875 262.316406 266.460938 265.679688 264.492188 C 268.164062 263.03125 268.382812 259.890625 268.746094 257.410156 C 269.332031 250.984375 269.332031 244.632812 269.695312 238.28125 Z M 260.34375 285.445312 C 258.007812 288.292969 258.519531 292.527344 260.417969 295.449219 C 262.609375 298.804688 265.3125 302.238281 269.550781 302.96875 C 268.671875 298.585938 264.800781 295.667969 263.632812 291.359375 C 262.757812 289.242188 264.363281 286.90625 263.488281 284.859375 C 262.390625 284.570312 261.074219 284.496094 260.34375 285.445312 Z M 194.445312 315.890625 C 194.664062 315.890625 195.175781 315.890625 195.46875 315.890625 C 198.464844 309.539062 200.949219 301.871094 207.816406 298.585938 C 210.519531 296.90625 213.515625 298.367188 216.21875 299.027344 C 216.21875 295.59375 212.273438 293.769531 209.277344 294.71875 C 200.144531 297.128906 193.570312 306.546875 194.445312 315.890625 Z M 242.371094 299.902344 C 238.207031 305.597656 238.71875 313.773438 242.371094 319.613281 C 243.980469 322.390625 246.976562 323.777344 250.042969 323.847656 C 247.777344 321 244.710938 318.519531 243.761719 314.867188 C 242.445312 310.488281 242.371094 305.011719 245.734375 301.507812 C 247.488281 299.390625 250.335938 299.027344 252.746094 298.222656 C 253.695312 298.078125 254.207031 297.492188 254.355469 296.46875 C 250.335938 294.132812 245.003906 296.25 242.371094 299.902344 Z M 159.011719 298.953125 C 151.488281 302.820312 145.277344 309.613281 142.792969 317.789062 C 142.136719 320.273438 141.332031 324.507812 144.910156 324.871094 C 144.691406 313.191406 154.191406 304.355469 163.542969 299.027344 C 162.082031 298.660156 160.398438 298.003906 159.011719 298.953125 Z M 169.605469 324.871094 C 167.632812 326.332031 165.660156 327.863281 164.34375 329.980469 C 163.46875 331.003906 163.46875 334.070312 165.441406 332.902344 C 171.066406 327.574219 177.859375 323.265625 185.460938 321.511719 C 193.421875 319.980469 201.75 320.492188 209.570312 322.828125 C 207.378906 317.863281 201.167969 317.351562 196.492188 316.839844 C 186.847656 315.597656 177.277344 319.25 169.605469 324.871094 Z M 169.605469 324.871094 " fill-opacity="1" fill-rule="nonzero"/></g><path fill="#a2742a" d="M 263.265625 41.003906 C 263.777344 40.929688 264.875 40.710938 265.460938 40.636719 C 266.699219 44.070312 263.121094 46.769531 260.492188 48.375 C 246.976562 56.40625 231.121094 58.378906 215.851562 60.714844 C 205.257812 62.6875 194.445312 63.636719 183.707031 64.367188 C 167.046875 65.828125 150.316406 64.804688 133.878906 62.101562 C 125.113281 60.570312 116.417969 58.453125 108.457031 54.507812 C 105.53125 52.976562 102.539062 51.152344 100.929688 48.230469 C 100.492188 46.257812 102.902344 45.96875 104 47.136719 C 113.277344 53.414062 124.382812 56.117188 135.269531 58.015625 C 152.070312 60.789062 169.242188 61.8125 186.261719 60.421875 C 195.394531 59.695312 204.601562 59.253906 213.585938 57.503906 C 222.355469 55.96875 231.121094 54.65625 239.742188 52.464844 C 245.878906 50.714844 252.308594 49.179688 257.714844 45.601562 C 259.761719 44.289062 261.367188 42.460938 263.265625 41.003906 Z M 262.097656 275.152344 C 259.980469 272.886719 257.570312 270.988281 255.085938 269.308594 C 253.332031 269.894531 251.503906 270.332031 249.75 270.914062 C 253.550781 273.105469 257.570312 275.222656 262.097656 275.152344 Z M 220.382812 294.789062 C 221.332031 298.367188 222.648438 302.601562 226.371094 304.136719 C 225.714844 299.828125 224.109375 295.738281 223.816406 291.433594 C 223.597656 286.90625 225.570312 282.816406 227.324219 278.800781 C 225.789062 279.238281 224.179688 279.605469 222.648438 279.96875 C 220.964844 284.640625 219.066406 289.753906 220.382812 294.789062 Z M 132.929688 288.21875 C 131.03125 289.824219 129.203125 291.503906 127.816406 293.550781 C 134.757812 293.695312 138.554688 287.050781 141.550781 281.792969 C 140.453125 281.574219 139.359375 281.355469 138.261719 281.066406 C 136.730469 283.621094 135.269531 286.25 132.929688 288.21875 Z M 210.226562 291.140625 C 209.933594 288.21875 209.277344 285.371094 208.328125 282.597656 C 206.867188 282.816406 205.332031 283.035156 203.871094 283.253906 C 205.40625 286.320312 207.378906 289.167969 210.226562 291.140625 Z M 160.253906 295.300781 C 157.917969 291.578125 155.503906 287.925781 153.75 283.984375 C 152.289062 283.765625 150.828125 283.546875 149.367188 283.328125 C 151.195312 288.367188 153.824219 295.15625 160.253906 295.300781 Z M 187.722656 286.757812 C 185.167969 289.535156 182.535156 292.382812 181.441406 296.03125 C 179.980469 300.558594 181.441406 305.742188 184.949219 308.953125 C 185.3125 305.011719 184.4375 300.996094 185.3125 297.199219 C 187.285156 292.015625 191.449219 286.832031 197.367188 286.25 C 197.367188 285.738281 197.296875 284.640625 197.222656 284.132812 C 194.082031 284.421875 190.9375 284.640625 187.722656 284.859375 C 187.722656 285.300781 187.722656 286.25 187.722656 286.757812 Z M 260.417969 295.519531 C 262.609375 298.878906 265.3125 302.3125 269.550781 303.042969 C 268.671875 298.660156 264.800781 295.738281 263.632812 291.433594 C 262.757812 289.316406 264.363281 286.980469 263.488281 284.933594 C 262.464844 284.570312 261.148438 284.496094 260.417969 285.445312 C 258.007812 288.292969 258.519531 292.601562 260.417969 295.519531 Z M 104.730469 294.207031 C 108.015625 295.300781 111.890625 295.15625 114.738281 297.492188 C 118.828125 300.921875 120.875 306.617188 119.925781 311.875 C 119.339844 315.453125 118.316406 318.957031 117.808594 322.535156 C 118.316406 322.316406 119.414062 321.878906 119.925781 321.730469 C 122.042969 318.519531 123.433594 314.796875 124.164062 311 C 125.476562 305.085938 122.554688 298.878906 118.171875 295.011719 C 114.519531 291.871094 109.113281 290.703125 104.65625 292.453125 C 104.582031 292.820312 104.65625 293.769531 104.730469 294.207031 Z M 195.46875 315.890625 C 198.464844 309.539062 200.949219 301.871094 207.816406 298.585938 C 210.519531 296.90625 213.515625 298.367188 216.21875 299.027344 C 216.21875 295.59375 212.273438 293.769531 209.277344 294.71875 C 200.144531 297.054688 193.570312 306.472656 194.445312 315.890625 C 194.738281 315.890625 195.25 315.890625 195.46875 315.890625 Z M 242.371094 319.613281 C 243.980469 322.390625 246.976562 323.777344 250.042969 323.847656 C 247.777344 321 244.710938 318.519531 243.761719 314.867188 C 242.445312 310.488281 242.371094 305.011719 245.734375 301.507812 C 247.488281 299.390625 250.335938 299.027344 252.746094 298.222656 C 253.695312 298.078125 254.207031 297.492188 254.355469 296.46875 C 250.261719 294.0625 244.929688 296.25 242.300781 299.828125 C 238.207031 305.597656 238.792969 313.773438 242.371094 319.613281 Z M 142.792969 317.789062 C 142.136719 320.273438 141.332031 324.507812 144.910156 324.871094 C 144.691406 313.191406 154.191406 304.355469 163.542969 299.027344 C 162.007812 298.585938 160.398438 298.003906 159.011719 298.953125 C 151.488281 302.820312 145.203125 309.613281 142.792969 317.789062 Z M 164.34375 329.980469 C 163.46875 331.003906 163.46875 334.070312 165.441406 332.902344 C 171.066406 327.574219 177.859375 323.265625 185.460938 321.511719 C 193.421875 319.980469 201.75 320.492188 209.570312 322.828125 C 207.378906 317.863281 201.167969 317.351562 196.492188 316.839844 C 186.847656 315.597656 177.277344 319.25 169.605469 324.871094 C 167.632812 326.40625 165.660156 327.9375 164.34375 329.980469 Z M 164.34375 329.980469 " fill-opacity="1" fill-rule="nonzero"/><g clip-path="url(#924d386a14)"><path fill="#64a8ae" d="M 246.902344 70.5 C 251.871094 69.402344 256.546875 67.140625 260.785156 64.292969 C 262.023438 68.964844 261.222656 73.859375 261.804688 78.675781 C 262.316406 82.691406 262.683594 86.632812 262.902344 90.648438 C 270.136719 92.769531 276.199219 97.585938 281.238281 102.988281 C 288.910156 111.09375 295.339844 121.023438 296.65625 132.265625 C 296.875 135.773438 298.480469 139.058594 298.554688 142.5625 C 298.921875 149.9375 300.015625 157.238281 300.089844 164.609375 C 300.234375 189.144531 299.359375 213.675781 299.140625 238.207031 C 299.066406 257.117188 297.386719 275.953125 296.21875 294.789062 C 295.488281 300.121094 295.777344 305.597656 294.828125 310.925781 C 294.828125 312.460938 293.074219 312.605469 292.050781 313.191406 C 290.078125 317.863281 287.597656 322.460938 283.941406 326.113281 C 278.246094 331.878906 272.035156 337.285156 264.875 341.152344 C 253.695312 347.066406 242.007812 352.179688 229.660156 355.023438 C 194.738281 363.496094 157.257812 363.203125 123.140625 351.375 C 112.910156 348.015625 103.925781 341.808594 95.378906 335.386719 C 91.140625 330.347656 85.734375 326.332031 81.351562 321.367188 C 78.792969 318.519531 79.523438 314.503906 79.085938 311 C 78.136719 302.75 79.449219 294.5 78.867188 286.25 C 78.648438 241.710938 75.433594 197.246094 74.992188 152.710938 C 75.285156 147.597656 74.703125 142.488281 74.773438 137.378906 C 76.234375 131.316406 76.382812 124.820312 79.378906 119.199219 C 83.46875 110.730469 90.335938 104.085938 97.714844 98.460938 C 101.515625 95.25 106.117188 92.695312 108.964844 88.53125 C 109.695312 84.738281 109.113281 80.867188 109.40625 76.996094 C 109.257812 73.492188 109.988281 69.621094 108.015625 66.484375 C 114.738281 70.570312 122.628906 71.886719 130.226562 73.492188 C 143.304688 76.195312 156.675781 76.558594 169.972656 76.265625 C 173.695312 76.265625 177.351562 76.925781 181.074219 76.925781 C 203.285156 76.996094 225.421875 75.464844 246.902344 70.5 Z M 240.691406 78.019531 C 240.765625 79.1875 241.347656 79.917969 242.445312 80.210938 C 244.636719 79.40625 246.535156 77.945312 248.4375 76.558594 C 245.878906 75.246094 242.152344 75.246094 240.691406 78.019531 Z M 115.980469 76.707031 C 114.152344 78.824219 114.738281 82.179688 114.738281 84.882812 C 114.957031 86.78125 115.25 90.429688 118.027344 89.847656 C 120.289062 87 119.707031 82.984375 119.632812 79.550781 C 119.851562 77.652344 117.953125 75.316406 115.980469 76.707031 Z M 217.96875 80.136719 C 213.367188 80.722656 208.765625 81.011719 204.164062 81.378906 C 202.554688 81.667969 200.4375 81.523438 199.488281 83.203125 C 199.046875 84.445312 200.289062 85.613281 201.53125 85.464844 C 210.082031 85.832031 218.628906 84.371094 227.03125 82.691406 C 229.660156 82.109375 232.730469 81.667969 234.335938 79.261719 C 228.855469 78.382812 223.378906 79.625 217.96875 80.136719 Z M 106.554688 103.792969 C 100.785156 106.933594 97.058594 112.773438 94.207031 118.539062 C 89.460938 128.980469 88.070312 140.589844 87.707031 151.90625 C 87.339844 162.128906 86.683594 172.351562 87.414062 182.570312 C 87.339844 184.03125 88.4375 185.859375 90.042969 184.835938 C 90.773438 182.71875 90.628906 180.453125 90.703125 178.265625 C 90.554688 167.675781 90.992188 157.019531 91.722656 146.429688 C 92.964844 134.96875 95.378906 123.214844 102.097656 113.574219 C 103.925781 110.800781 106.484375 108.609375 108.234375 105.835938 C 109.1875 104.667969 107.945312 103.0625 106.554688 103.792969 Z M 259.613281 110.289062 C 260.855469 112.117188 262.535156 113.574219 263.925781 115.253906 C 268.015625 120 270.644531 125.695312 273.496094 131.246094 C 274.371094 133.070312 275.761719 134.457031 277.367188 135.625 C 277.367188 131.027344 275.175781 126.863281 273.421875 122.777344 C 271.085938 117.589844 267.871094 112.554688 263.195312 109.269531 C 262.023438 108.171875 259.320312 108.246094 259.613281 110.289062 Z M 282.921875 170.671875 C 284.234375 186.222656 284.820312 201.847656 285.695312 217.398438 C 286.207031 226.453125 285.695312 235.578125 285.695312 244.632812 C 285.695312 257.042969 284.234375 269.382812 284.746094 281.792969 C 285.257812 281.429688 286.28125 280.625 286.71875 280.261719 C 288.109375 276.539062 287.886719 272.375 288.109375 268.433594 C 289.128906 247.480469 289.789062 226.453125 288.328125 205.496094 C 287.816406 193.742188 287.15625 181.914062 286.0625 170.160156 C 285.476562 164.683594 285.402344 159.0625 283.210938 153.953125 C 281.679688 159.425781 282.699219 165.121094 282.921875 170.671875 Z M 249.238281 166.363281 C 241.640625 167.96875 234.335938 170.964844 226.738281 172.714844 C 211.613281 176.804688 195.980469 178.191406 180.34375 178.265625 C 169.242188 178.484375 158.207031 178.703125 147.101562 177.898438 C 137.09375 177.167969 126.867188 176.730469 117.148438 173.664062 C 116.636719 173.8125 115.542969 174.175781 114.957031 174.394531 C 113.058594 174.175781 110.5 172.496094 109.113281 174.46875 C 107.214844 178.046875 107.285156 182.28125 106.703125 186.148438 C 105.242188 202.648438 105.167969 219.296875 106.410156 235.871094 C 104.289062 241.855469 103.925781 249.304688 108.308594 254.414062 C 108.382812 255.292969 108.527344 256.09375 108.601562 256.972656 C 103.488281 261.570312 99.25 267.484375 97.570312 274.203125 C 96.035156 280.773438 97.132812 287.636719 99.542969 293.839844 C 93.257812 295.886719 89.53125 303.261719 91.503906 309.539062 C 93.113281 316.839844 99.90625 322.097656 107.140625 323.121094 C 110.648438 323.703125 114.226562 322.828125 117.660156 322.460938 C 118.171875 322.242188 119.269531 321.804688 119.777344 321.660156 C 123.140625 324.214844 126.792969 326.625 131.03125 327.574219 C 134.683594 328.304688 138.410156 327.9375 142.136719 327.792969 C 143.667969 330.421875 145.277344 333.121094 147.90625 334.875 C 151.558594 337.355469 156.015625 337.867188 160.253906 338.453125 C 160.839844 346.042969 168.21875 350.644531 175.230469 351.449219 C 187.210938 352.6875 199.558594 350.28125 210.007812 344.21875 C 211.832031 343.269531 213.074219 341.589844 214.316406 339.984375 C 222.867188 341.882812 232.070312 340.640625 239.816406 336.625 C 242.957031 335.167969 244.785156 332.101562 247.488281 330.128906 C 254.355469 330.347656 261.222656 328.8125 267.433594 325.964844 C 272.691406 323.339844 277.292969 318.957031 279.339844 313.335938 C 280.582031 309.757812 279.414062 306.035156 277.585938 302.96875 C 282.628906 298.585938 285.914062 290.847656 282.554688 284.570312 C 280.4375 280.261719 275.46875 278.875 271.15625 278.144531 C 274.226562 274.710938 277.148438 270.988281 278.535156 266.535156 C 280.070312 261.207031 279.996094 255.511719 278.609375 250.179688 C 277.222656 245.289062 273.570312 241.417969 269.695312 238.351562 C 269.84375 225.722656 269.988281 213.164062 269.914062 200.53125 C 269.476562 190.53125 268.382812 180.527344 266.699219 170.671875 C 266.117188 167.53125 265.238281 163.660156 261.953125 162.347656 C 257.277344 161.691406 253.550781 165.269531 249.238281 166.363281 Z M 84.417969 207.324219 C 84.417969 232 84.855469 256.605469 85.296875 281.285156 C 85.441406 284.277344 84.855469 287.636719 86.683594 290.265625 C 87.488281 289.097656 88.511719 287.925781 88.511719 286.394531 C 88.949219 281.574219 88.582031 276.683594 88.582031 271.863281 C 88.363281 248.867188 88.730469 225.941406 87.488281 202.941406 C 87.339844 200.460938 86.828125 198.050781 86.246094 195.714844 C 84.054688 199.144531 84.492188 203.378906 84.417969 207.324219 Z M 85.585938 316.109375 C 86.757812 318.082031 88.65625 319.394531 90.484375 320.855469 C 94.0625 323.484375 97.496094 326.625 101.953125 327.425781 C 98.445312 322.898438 93.550781 319.832031 89.386719 315.964844 C 88.363281 314.722656 85.585938 313.410156 85.585938 316.109375 Z M 116.417969 334.800781 C 116.566406 336.773438 118.464844 337.503906 119.925781 338.378906 C 128.691406 343.125 138.042969 346.484375 147.46875 349.621094 C 150.246094 350.570312 153.09375 351.007812 156.015625 350.9375 C 145.714844 344.804688 133.953125 341.808594 123.140625 336.699219 C 121.019531 335.96875 118.757812 334.144531 116.417969 334.800781 Z M 116.417969 334.800781 " fill-opacity="1" fill-rule="nonzero"/></g><path fill="#ffffff" d="M 240.691406 78.019531 C 242.152344 75.246094 245.953125 75.246094 248.363281 76.632812 C 246.464844 78.019531 244.636719 79.480469 242.371094 80.28125 C 241.277344 79.917969 240.691406 79.1875 240.691406 78.019531 Z M 114.738281 84.882812 C 114.957031 86.78125 115.25 90.429688 118.027344 89.847656 C 120.289062 87 119.707031 82.984375 119.632812 79.550781 C 119.777344 77.652344 117.878906 75.316406 115.90625 76.707031 C 114.152344 78.824219 114.738281 82.179688 114.738281 84.882812 Z M 204.164062 81.378906 C 202.554688 81.667969 200.4375 81.523438 199.488281 83.203125 C 199.046875 84.445312 200.289062 85.613281 201.53125 85.464844 C 210.082031 85.832031 218.628906 84.371094 227.03125 82.691406 C 229.660156 82.109375 232.730469 81.667969 234.335938 79.261719 C 228.855469 78.457031 223.378906 79.699219 217.972656 80.210938 C 213.367188 80.722656 208.765625 81.011719 204.164062 81.378906 Z M 94.207031 118.539062 C 89.460938 128.980469 88.070312 140.589844 87.707031 151.90625 C 87.339844 162.128906 86.683594 172.351562 87.414062 182.570312 C 87.339844 184.03125 88.4375 185.859375 90.042969 184.835938 C 90.773438 182.71875 90.628906 180.453125 90.703125 178.265625 C 90.554688 167.675781 90.992188 157.019531 91.722656 146.429688 C 92.964844 134.96875 95.378906 123.214844 102.097656 113.574219 C 103.925781 110.800781 106.484375 108.609375 108.234375 105.835938 C 109.257812 104.59375 108.015625 102.988281 106.628906 103.71875 C 100.785156 106.933594 97.058594 112.847656 94.207031 118.539062 Z M 263.925781 115.253906 C 268.015625 120 270.644531 125.695312 273.496094 131.246094 C 274.371094 133.070312 275.761719 134.457031 277.367188 135.625 C 277.367188 131.027344 275.175781 126.863281 273.421875 122.777344 C 271.085938 117.589844 267.871094 112.554688 263.195312 109.269531 C 262.023438 108.246094 259.320312 108.246094 259.613281 110.289062 C 260.855469 112.117188 262.535156 113.574219 263.925781 115.253906 Z M 285.695312 217.472656 C 286.207031 226.523438 285.695312 235.652344 285.695312 244.703125 C 285.695312 257.117188 284.234375 269.457031 284.746094 281.867188 C 285.257812 281.503906 286.28125 280.699219 286.71875 280.335938 C 288.109375 276.609375 287.886719 272.449219 288.109375 268.507812 C 289.128906 247.550781 289.789062 226.523438 288.328125 205.570312 C 287.816406 193.816406 287.15625 181.988281 286.0625 170.234375 C 285.476562 164.757812 285.402344 159.136719 283.210938 154.023438 C 281.605469 159.425781 282.628906 165.121094 282.847656 170.671875 C 284.234375 186.222656 284.894531 201.847656 285.695312 217.472656 Z M 226.738281 172.714844 C 211.613281 176.804688 195.980469 178.191406 180.34375 178.265625 C 169.242188 178.484375 158.207031 178.703125 147.101562 177.898438 C 137.09375 177.167969 126.867188 176.730469 117.148438 173.664062 C 116.636719 173.8125 115.542969 174.175781 114.957031 174.394531 C 113.058594 174.175781 110.5 172.496094 109.113281 174.46875 C 107.214844 178.046875 107.285156 182.28125 106.703125 186.148438 C 105.242188 202.648438 105.167969 219.296875 106.410156 235.871094 C 106.554688 242.078125 107.652344 248.210938 108.308594 254.414062 C 108.382812 255.292969 108.527344 256.09375 108.601562 256.972656 C 109.332031 262.082031 108.015625 267.339844 108.894531 272.375 C 111.230469 274.054688 114.152344 274.929688 116.929688 275.734375 C 124.015625 277.632812 131.101562 279.238281 138.191406 281.066406 C 139.285156 281.285156 140.382812 281.574219 141.476562 281.792969 C 144.035156 282.304688 146.664062 282.816406 149.296875 283.253906 C 150.757812 283.472656 152.21875 283.691406 153.679688 283.910156 C 164.929688 285.371094 176.328125 285.371094 187.652344 284.714844 C 190.792969 284.496094 193.933594 284.277344 197.148438 283.984375 C 199.339844 283.765625 201.605469 283.472656 203.796875 283.183594 C 205.257812 282.964844 206.792969 282.742188 208.253906 282.523438 C 213.074219 281.792969 217.898438 280.917969 222.648438 279.894531 C 224.179688 279.53125 225.789062 279.167969 227.324219 278.726562 C 234.921875 276.539062 242.300781 273.617188 249.605469 270.769531 C 251.359375 270.1875 253.183594 269.746094 254.9375 269.164062 C 258.589844 267.777344 262.171875 266.316406 265.53125 264.34375 C 268.015625 262.882812 268.234375 259.746094 268.601562 257.261719 C 269.183594 250.910156 269.183594 244.558594 269.550781 238.207031 C 269.695312 225.574219 269.84375 213.019531 269.769531 200.386719 C 269.332031 190.382812 268.234375 180.382812 266.554688 170.523438 C 265.96875 167.386719 265.09375 163.515625 261.804688 162.203125 C 257.128906 161.542969 253.40625 165.121094 249.09375 166.289062 C 241.570312 168.042969 234.335938 171.035156 226.738281 172.714844 Z M 260.273438 195.714844 C 263.121094 196.152344 263.265625 199.4375 262.171875 201.480469 C 261.222656 201.042969 260.273438 200.605469 259.320312 200.167969 C 258.664062 202.429688 257.421875 204.839844 258.589844 207.175781 C 260.929688 212.652344 265.75 217.835938 264.65625 224.261719 C 263.195312 229.882812 256.691406 231.636719 251.796875 233.023438 C 250.117188 233.898438 247.707031 232.367188 248.730469 230.539062 C 250.992188 227.253906 255.304688 226.453125 258.300781 223.96875 C 259.832031 223.019531 259.46875 220.902344 259.101562 219.441406 C 257.347656 214.1875 252.308594 209.878906 253.183594 203.890625 C 253.625 200.3125 255.886719 195.277344 260.273438 195.714844 Z M 221.183594 198.195312 C 222.644531 200.679688 222.644531 203.671875 222.9375 206.445312 C 223.523438 213.089844 223.523438 219.734375 222.574219 226.304688 C 222.207031 228.351562 221.695312 231.125 219.285156 231.636719 C 217.53125 232.074219 216.144531 230.613281 215.121094 229.371094 C 212.273438 225.941406 209.933594 222.21875 207.230469 218.710938 C 207.15625 224.625 207.960938 230.6875 207.085938 236.601562 C 206.792969 238.0625 205.476562 238.71875 204.234375 237.914062 C 202.703125 234.191406 203.285156 229.957031 202.703125 226.015625 C 202.410156 222.070312 201.605469 218.054688 202.117188 214.113281 C 202.480469 211.339844 205.988281 209.953125 208.253906 211.558594 C 212.929688 214.476562 214.976562 219.882812 218.335938 223.96875 C 219.359375 216.449219 218.261719 208.855469 219.066406 201.410156 C 219.140625 199.949219 219.941406 198.78125 221.183594 198.195312 Z M 243.25 199.363281 C 246.023438 199.21875 249.386719 199.363281 250.847656 202.210938 C 247.414062 203.746094 243.6875 203.816406 240.179688 204.839844 C 237.695312 208.78125 236.527344 213.675781 237.183594 218.273438 C 237.40625 219.953125 238.574219 222.582031 240.691406 221.488281 C 242.371094 221.121094 242.738281 219.371094 243.46875 218.054688 C 241.789062 217.542969 237.625 217.035156 239.449219 214.40625 C 242.007812 213.019531 246.316406 211.921875 247.996094 215.136719 C 250.628906 221.269531 243.761719 228.640625 237.476562 226.742188 C 234.117188 225.722656 232.289062 222.21875 231.777344 218.933594 C 231.046875 213.382812 232.507812 207.542969 235.652344 202.941406 C 237.257812 200.460938 240.398438 199.511719 243.25 199.363281 Z M 135.558594 206.007812 C 137.75 206.664062 138.117188 209.003906 138.335938 210.902344 C 136.070312 210.460938 133.660156 208.929688 131.46875 210.390625 C 128.179688 212.214844 128.253906 216.667969 129.714844 219.660156 C 132.492188 225.503906 137.09375 230.46875 138.480469 236.964844 C 139.433594 240.542969 137.972656 244.777344 134.609375 246.53125 C 131.46875 248.136719 127.816406 247.1875 124.675781 245.871094 C 122.992188 245.144531 121.09375 244.265625 120.21875 242.585938 C 119.558594 241.273438 120.875 240.25 121.605469 239.375 C 124.164062 241.636719 127.667969 242.222656 131.03125 242.222656 C 132.855469 242.296875 134.316406 240.46875 133.878906 238.644531 C 132.855469 230.03125 123.871094 224.625 124.015625 215.71875 C 123.722656 209.804688 129.714844 204.183594 135.558594 206.007812 Z M 197.734375 207.542969 C 199.488281 215.28125 198.316406 223.238281 198.316406 231.125 C 198.171875 234.046875 198.757812 237.402344 196.5625 239.738281 C 195.613281 237.839844 194.882812 235.796875 194.664062 233.679688 C 193.789062 225.210938 192.621094 216.667969 194.152344 208.199219 C 194.300781 206.300781 197.148438 205.496094 197.734375 207.542969 Z M 186.847656 208.273438 C 187.359375 212.359375 185.898438 216.230469 184.949219 220.101562 C 183.339844 225.792969 181.804688 231.5625 179.46875 237.039062 C 178.59375 239.011719 176.984375 241.566406 174.425781 241.128906 C 172.015625 240.835938 171.433594 238.132812 170.847656 236.164062 C 169.09375 228.933594 167.632812 221.707031 166.316406 214.40625 C 166.097656 212.726562 165.515625 210.316406 167.558594 209.585938 C 169.75 209.660156 170.480469 211.996094 171.066406 213.746094 C 172.894531 220.246094 174.207031 226.890625 175.742188 233.460938 C 178.882812 226.304688 180.566406 218.640625 183.488281 211.410156 C 184.289062 210.097656 184.949219 207.613281 186.847656 208.273438 Z M 155.503906 208.929688 C 157.695312 210.460938 159.816406 212.359375 160.546875 214.988281 C 162.082031 220.246094 162.8125 225.648438 163.324219 231.125 C 163.761719 235.796875 164.710938 240.617188 163.324219 245.214844 C 161.351562 242.660156 160.621094 239.449219 159.816406 236.382812 C 156.527344 236.890625 153.167969 237.039062 149.804688 236.964844 C 148.785156 239.667969 148.34375 242.804688 146.371094 244.996094 C 146.007812 244.921875 145.203125 244.777344 144.839844 244.703125 C 144.253906 240.90625 145.933594 237.332031 146.519531 233.605469 C 147.761719 225.867188 149.804688 218.273438 152.582031 210.972656 C 152.949219 209.730469 153.898438 207.832031 155.503906 208.929688 Z M 85.222656 281.210938 C 85.367188 284.203125 84.785156 287.5625 86.609375 290.191406 C 87.414062 289.023438 88.4375 287.855469 88.4375 286.320312 C 88.875 281.503906 88.511719 276.609375 88.511719 271.792969 C 88.289062 248.792969 88.65625 225.867188 87.414062 202.871094 C 87.269531 200.386719 86.757812 197.976562 86.171875 195.640625 C 83.980469 199.074219 84.417969 203.308594 84.34375 207.25 C 84.417969 231.929688 84.785156 256.605469 85.222656 281.210938 Z M 151.414062 232.148438 C 153.898438 232.074219 156.382812 232 158.867188 232 C 157.550781 227.109375 156.527344 222.144531 155.652344 217.179688 C 154.117188 222.21875 152.875 227.183594 151.414062 232.148438 Z M 90.484375 320.78125 C 94.0625 323.410156 97.496094 326.550781 101.953125 327.355469 C 98.445312 322.828125 93.550781 319.761719 89.386719 315.890625 C 88.363281 314.648438 85.515625 313.410156 85.585938 316.039062 C 86.757812 318.082031 88.730469 319.394531 90.484375 320.78125 Z M 119.925781 338.378906 C 128.691406 343.125 138.042969 346.484375 147.46875 349.621094 C 150.246094 350.570312 153.09375 351.007812 156.015625 350.9375 C 145.714844 344.804688 133.953125 341.808594 123.140625 336.699219 C 120.949219 335.96875 118.757812 334.144531 116.34375 334.800781 C 116.566406 336.699219 118.464844 337.503906 119.925781 338.378906 Z M 119.925781 338.378906 " fill-opacity="1" fill-rule="nonzero"/></svg>