<svg xmlns="http://www.w3.org/2000/svg" xmlns:xlink="http://www.w3.org/1999/xlink" width="500" zoomAndPan="magnify" viewBox="0 0 375 374.999991" height="500" preserveAspectRatio="xMidYMid meet" version="1.0"><defs><clipPath id="5c25ab1db8"><path d="M 277 290 L 329 290 L 329 311.855469 L 277 311.855469 Z M 277 290 " clip-rule="nonzero"/></clipPath><clipPath id="a380a01bc9"><path d="M 325 274 L 329.601562 274 L 329.601562 280 L 325 280 Z M 325 274 " clip-rule="nonzero"/></clipPath><clipPath id="e0649dadfc"><path d="M 287 255.605469 L 319 255.605469 L 319 269 L 287 269 Z M 287 255.605469 " clip-rule="nonzero"/></clipPath><clipPath id="6cd4e01423"><path d="M 307 278 L 329.601562 278 L 329.601562 311.855469 L 307 311.855469 Z M 307 278 " clip-rule="nonzero"/></clipPath><clipPath id="96c66c5968"><path d="M 276.351562 273 L 281 273 L 281 280 L 276.351562 280 Z M 276.351562 273 " clip-rule="nonzero"/></clipPath><clipPath id="c75a3e95aa"><path d="M 276.351562 278 L 299 278 L 299 311.855469 L 276.351562 311.855469 Z M 276.351562 278 " clip-rule="nonzero"/></clipPath><clipPath id="28ac0f4825"><path d="M 22 8.769531 L 366.917969 8.769531 L 366.917969 353 L 22 353 Z M 22 8.769531 " clip-rule="nonzero"/></clipPath></defs><g clip-path="url(#5c25ab1db8)"><path fill="#000000" d="M 277.449219 311.894531 L 328.566406 311.894531 L 324.898438 308.878906 L 305.90625 293.285156 L 303.003906 290.902344 L 300.105469 293.285156 L 281.109375 308.878906 Z M 277.449219 311.894531 " fill-opacity="1" fill-rule="nonzero"/></g><g clip-path="url(#a380a01bc9)"><path fill="#000000" d="M 325.257812 279.882812 L 329.222656 277.328125 L 325.257812 274.058594 Z M 325.257812 279.882812 " fill-opacity="1" fill-rule="nonzero"/></g><g clip-path="url(#e0649dadfc)"><path fill="#000000" d="M 318.8125 268.734375 L 305.785156 257.992188 L 302.867188 255.632812 L 287.113281 268.734375 Z M 318.8125 268.734375 " fill-opacity="1" fill-rule="nonzero"/></g><g clip-path="url(#6cd4e01423)"><path fill="#000000" d="M 324.984375 281.492188 L 307.304688 292.875 L 329.640625 311.222656 L 329.640625 278.492188 Z M 324.984375 281.492188 " fill-opacity="1" fill-rule="nonzero"/></g><g clip-path="url(#96c66c5968)"><path fill="#000000" d="M 280.894531 273.90625 L 276.78125 277.328125 L 280.894531 279.972656 Z M 280.894531 273.90625 " fill-opacity="1" fill-rule="nonzero"/></g><g clip-path="url(#c75a3e95aa)"><path fill="#000000" d="M 276.367188 311.222656 L 298.707031 292.875 L 286.152344 284.792969 L 276.859375 278.792969 L 276.375 278.480469 Z M 276.367188 311.222656 " fill-opacity="1" fill-rule="nonzero"/></g><path fill="#000000" d="M 282.09375 269.957031 L 282.09375 280.761719 L 285.878906 283.160156 L 285.878906 278.523438 C 285.878906 278.355469 285.9375 278.214844 286.054688 278.097656 C 286.171875 277.980469 286.3125 277.921875 286.476562 277.921875 C 286.957031 277.921875 287.414062 277.832031 287.855469 277.648438 C 288.296875 277.464844 288.6875 277.203125 289.023438 276.867188 C 289.363281 276.53125 289.621094 276.140625 289.804688 275.699219 C 289.988281 275.257812 290.078125 274.800781 290.078125 274.320312 C 290.078125 274.15625 290.136719 274.015625 290.253906 273.898438 C 290.371094 273.78125 290.515625 273.722656 290.679688 273.722656 L 315.460938 273.722656 C 315.628906 273.722656 315.769531 273.78125 315.886719 273.898438 C 316.003906 274.015625 316.0625 274.15625 316.0625 274.320312 C 316.0625 274.800781 316.152344 275.257812 316.335938 275.699219 C 316.519531 276.140625 316.78125 276.53125 317.117188 276.867188 C 317.457031 277.203125 317.84375 277.464844 318.285156 277.648438 C 318.726562 277.832031 319.1875 277.921875 319.664062 277.921875 C 319.832031 277.921875 319.972656 277.980469 320.089844 278.097656 C 320.207031 278.214844 320.265625 278.355469 320.265625 278.523438 L 320.265625 283.09375 L 324.046875 280.660156 L 324.046875 269.957031 Z M 282.09375 269.957031 " fill-opacity="1" fill-rule="nonzero"/><path fill="#000000" d="M 303.382812 289.660156 L 306.332031 292.058594 L 319.078125 283.867188 L 319.078125 279.066406 C 318.542969 279.003906 318.035156 278.859375 317.554688 278.625 C 317.070312 278.390625 316.636719 278.085938 316.257812 277.710938 C 315.875 277.332031 315.566406 276.902344 315.332031 276.421875 C 315.09375 275.941406 314.941406 275.433594 314.875 274.902344 L 291.246094 274.902344 C 291.179688 275.433594 291.027344 275.9375 290.792969 276.414062 C 290.558594 276.894531 290.253906 277.324219 289.875 277.699219 C 289.5 278.078125 289.070312 278.382812 288.589844 278.617188 C 288.113281 278.851562 287.609375 279 287.078125 279.066406 L 287.078125 283.941406 L 298.324219 291.203125 L 299.679688 292.078125 L 302.628906 289.675781 C 302.734375 289.585938 302.859375 289.539062 303.003906 289.535156 C 303.144531 289.53125 303.269531 289.574219 303.382812 289.660156 Z M 300.484375 284.5 C 300.484375 284.332031 300.542969 284.191406 300.660156 284.074219 C 300.777344 283.957031 300.917969 283.898438 301.085938 283.898438 C 301.25 283.898438 301.390625 283.957031 301.507812 284.074219 C 301.625 284.191406 301.683594 284.332031 301.683594 284.5 C 301.65625 284.6875 301.667969 284.875 301.714844 285.0625 C 301.765625 285.25 301.847656 285.417969 301.96875 285.566406 C 302.085938 285.71875 302.230469 285.839844 302.398438 285.933594 C 302.566406 286.027344 302.746094 286.082031 302.9375 286.101562 C 303.128906 286.121094 303.316406 286.101562 303.5 286.042969 C 303.683594 285.984375 303.847656 285.890625 303.992188 285.765625 C 304.136719 285.640625 304.253906 285.492188 304.335938 285.320312 C 304.421875 285.148438 304.46875 284.964844 304.476562 284.773438 C 304.488281 284.582031 304.457031 284.394531 304.390625 284.214844 C 304.324219 284.035156 304.226562 283.875 304.09375 283.734375 C 303.960938 283.597656 303.804688 283.488281 303.628906 283.414062 C 303.453125 283.335938 303.269531 283.300781 303.078125 283.296875 C 302.746094 283.3125 302.425781 283.257812 302.113281 283.144531 C 301.804688 283.027344 301.527344 282.859375 301.285156 282.632812 C 301.042969 282.410156 300.851562 282.144531 300.710938 281.847656 C 300.574219 281.546875 300.496094 281.230469 300.484375 280.898438 C 300.492188 280.621094 300.546875 280.351562 300.648438 280.089844 C 300.746094 279.832031 300.886719 279.59375 301.070312 279.382812 C 301.25 279.171875 301.460938 278.996094 301.703125 278.855469 C 301.945312 278.714844 302.203125 278.621094 302.476562 278.570312 L 302.476562 277.910156 C 302.476562 277.746094 302.535156 277.601562 302.652344 277.484375 C 302.769531 277.367188 302.910156 277.308594 303.078125 277.308594 C 303.242188 277.308594 303.382812 277.367188 303.5 277.484375 C 303.617188 277.601562 303.675781 277.746094 303.675781 277.910156 L 303.675781 278.574219 C 303.953125 278.628906 304.207031 278.722656 304.449219 278.863281 C 304.691406 279 304.902344 279.175781 305.082031 279.390625 C 305.261719 279.601562 305.402344 279.835938 305.503906 280.097656 C 305.601562 280.355469 305.65625 280.625 305.664062 280.90625 C 305.664062 281.070312 305.605469 281.210938 305.488281 281.328125 C 305.371094 281.445312 305.230469 281.503906 305.0625 281.503906 C 304.898438 281.503906 304.757812 281.445312 304.640625 281.328125 C 304.523438 281.210938 304.464844 281.070312 304.464844 280.90625 C 304.492188 280.714844 304.480469 280.527344 304.433594 280.339844 C 304.382812 280.15625 304.296875 279.984375 304.179688 279.835938 C 304.0625 279.683594 303.917969 279.5625 303.75 279.46875 C 303.582031 279.375 303.402344 279.320312 303.210938 279.304688 C 303.019531 279.285156 302.832031 279.304688 302.648438 279.363281 C 302.464844 279.421875 302.300781 279.511719 302.15625 279.640625 C 302.007812 279.765625 301.894531 279.914062 301.808594 280.085938 C 301.726562 280.261719 301.679688 280.441406 301.671875 280.632812 C 301.660156 280.828125 301.691406 281.011719 301.757812 281.191406 C 301.824219 281.371094 301.925781 281.53125 302.058594 281.671875 C 302.191406 281.808594 302.347656 281.917969 302.523438 281.992188 C 302.699219 282.066406 302.886719 282.105469 303.078125 282.105469 C 303.40625 282.09375 303.726562 282.144531 304.039062 282.261719 C 304.347656 282.375 304.625 282.546875 304.867188 282.769531 C 305.109375 282.996094 305.300781 283.257812 305.4375 283.558594 C 305.574219 283.859375 305.652344 284.175781 305.664062 284.503906 C 305.65625 284.78125 305.601562 285.050781 305.503906 285.3125 C 305.402344 285.570312 305.261719 285.808594 305.082031 286.019531 C 304.902344 286.230469 304.691406 286.40625 304.449219 286.546875 C 304.207031 286.6875 303.949219 286.78125 303.675781 286.832031 L 303.675781 287.5 C 303.675781 287.664062 303.617188 287.804688 303.5 287.921875 C 303.382812 288.039062 303.242188 288.097656 303.078125 288.097656 C 302.910156 288.097656 302.769531 288.039062 302.652344 287.921875 C 302.535156 287.804688 302.476562 287.664062 302.476562 287.5 L 302.476562 286.828125 C 302.203125 286.777344 301.945312 286.679688 301.703125 286.539062 C 301.464844 286.402344 301.253906 286.226562 301.070312 286.011719 C 300.890625 285.800781 300.75 285.566406 300.648438 285.304688 C 300.546875 285.046875 300.492188 284.777344 300.484375 284.5 Z M 300.484375 284.5 " fill-opacity="1" fill-rule="nonzero"/><path fill="#2c83ec" d="M 49.949219 233.6875 L 89.613281 233.6875 L 89.613281 304.957031 L 49.949219 304.957031 Z M 247.914062 143.496094 L 287.582031 143.496094 L 287.582031 304.957031 L 247.914062 304.957031 Z M 181.921875 210.75 L 221.589844 210.75 L 221.589844 304.957031 L 181.921875 304.957031 Z M 115.941406 183.046875 L 155.605469 183.046875 L 155.605469 304.957031 L 115.941406 304.957031 Z M 115.941406 183.046875 " fill-opacity="1" fill-rule="evenodd"/><path fill="#94d8ff" d="M 69.78125 233.6875 L 89.613281 233.6875 L 89.613281 304.957031 L 69.78125 304.957031 Z M 267.746094 304.957031 L 267.746094 143.496094 L 287.582031 143.496094 L 287.582031 304.957031 Z M 201.765625 304.957031 L 201.765625 210.75 L 221.597656 210.75 L 221.597656 304.957031 Z M 135.773438 304.957031 L 135.773438 183.046875 L 155.605469 183.046875 L 155.605469 304.957031 Z M 135.773438 304.957031 " fill-opacity="1" fill-rule="evenodd"/><path fill="#ffcc00" d="M 102.019531 13.960938 C 136.382812 13.960938 164.257812 41.847656 164.257812 76.222656 C 164.257812 110.617188 136.382812 138.503906 102.019531 138.503906 C 67.632812 138.503906 39.757812 110.617188 39.757812 76.222656 C 39.757812 41.847656 67.632812 13.960938 102.019531 13.960938 Z M 102.019531 13.960938 " fill-opacity="1" fill-rule="evenodd"/><path fill="#fb8500" d="M 102.019531 34.371094 C 125.121094 34.371094 143.855469 53.121094 143.855469 76.222656 C 143.855469 99.34375 125.113281 118.089844 102.019531 118.089844 C 78.902344 118.089844 60.160156 99.34375 60.160156 76.222656 C 60.160156 53.113281 78.902344 34.371094 102.019531 34.371094 Z M 102.019531 34.371094 " fill-opacity="1" fill-rule="evenodd"/><path fill="#ffff66" d="M 137.917969 65.4375 C 143.058594 65.4375 147.203125 69.609375 147.203125 74.75 C 147.203125 79.890625 143.058594 84.058594 137.917969 84.058594 C 132.777344 84.058594 128.613281 79.890625 128.613281 74.75 C 128.613281 69.609375 132.777344 65.4375 137.917969 65.4375 Z M 137.917969 65.4375 " fill-opacity="1" fill-rule="evenodd"/><path fill="#57c478" d="M 126.109375 109.917969 L 39.757812 203 L 136.65625 142.144531 L 180.476562 160.867188 L 255.15625 106.679688 L 267.605469 118.640625 L 282.34375 64.992188 L 225.347656 66.910156 L 236.964844 83.761719 L 171.800781 130.753906 Z M 126.109375 109.917969 " fill-opacity="1" fill-rule="evenodd"/><path fill="#fb8500" d="M 302.117188 228.902344 C 334.941406 228.902344 361.535156 255.5 361.535156 288.335938 C 361.535156 321.171875 334.941406 347.773438 302.117188 347.773438 C 269.316406 347.773438 242.699219 321.171875 242.699219 288.335938 C 242.691406 255.5 269.308594 228.902344 302.117188 228.902344 Z M 302.117188 228.902344 " fill-opacity="1" fill-rule="evenodd"/><path fill="#ffcc00" d="M 348.207031 250.828125 C 356.550781 261.042969 361.535156 274.101562 361.535156 288.335938 C 361.535156 321.171875 334.941406 347.773438 302.117188 347.773438 C 295.3125 347.773438 288.792969 346.636719 282.699219 344.523438 C 274.359375 334.285156 269.375 321.230469 269.375 306.992188 C 269.375 274.179688 295.96875 247.558594 328.792969 247.558594 C 335.597656 247.566406 342.117188 248.726562 348.207031 250.828125 Z M 348.207031 250.828125 " fill-opacity="1" fill-rule="evenodd"/><path fill="#57c478" d="M 287.164062 328.71875 L 317.0625 328.71875 L 317.0625 281.917969 L 332.140625 281.917969 L 302.117188 247.96875 L 272.109375 281.917969 L 287.164062 281.917969 Z M 287.164062 328.71875 " fill-opacity="1" fill-rule="evenodd"/><g clip-path="url(#28ac0f4825)"><path fill="#000000" d="M 292.363281 323.519531 L 311.863281 323.519531 L 311.863281 281.925781 C 311.863281 279.039062 314.203125 276.722656 317.0625 276.722656 L 320.621094 276.722656 L 302.109375 255.785156 L 283.597656 276.722656 L 287.15625 276.722656 C 290.039062 276.722656 292.355469 279.039062 292.355469 281.925781 L 292.355469 323.519531 Z M 317.0625 333.921875 L 287.164062 333.921875 C 284.304688 333.921875 281.964844 331.582031 281.964844 328.71875 L 281.964844 287.125 L 272.109375 287.125 L 272.109375 287.101562 C 267.6875 287.101562 265.246094 281.835938 268.214844 278.492188 L 298.6875 244.074219 C 300.832031 242.179688 304.117188 242.386719 306.011719 244.519531 L 335.722656 278.15625 C 339.300781 281.863281 336.480469 287.132812 332.140625 287.132812 L 322.269531 287.132812 L 322.269531 328.726562 C 322.261719 331.582031 319.953125 333.921875 317.0625 333.921875 Z M 302.117188 223.699219 C 337.808594 223.699219 366.742188 252.640625 366.742188 288.34375 C 366.742188 324.046875 337.808594 352.988281 302.117188 352.988281 C 274.449219 352.988281 250.359375 335.480469 241.289062 310.167969 L 221.605469 310.167969 C 199.683594 310.292969 177.511719 310.019531 155.613281 310.167969 C 133.691406 310.292969 111.519531 310.019531 89.621094 310.167969 L 27.269531 310.167969 C 24.410156 310.167969 22.070312 307.824219 22.070312 304.964844 C 22.070312 302.082031 24.410156 299.765625 27.269531 299.765625 L 44.75 299.765625 L 44.75 233.6875 C 44.75 230.804688 47.066406 228.484375 49.949219 228.484375 L 89.613281 228.484375 C 92.472656 228.484375 94.8125 230.804688 94.8125 233.6875 L 94.8125 299.757812 L 110.734375 299.757812 L 110.734375 183.046875 C 110.734375 180.179688 113.050781 177.847656 115.933594 177.847656 L 155.597656 177.847656 C 158.464844 177.847656 160.796875 180.1875 160.796875 183.046875 L 160.796875 299.757812 L 176.714844 299.757812 L 176.714844 210.726562 C 176.714844 207.863281 179.035156 205.546875 181.917969 205.546875 L 221.582031 205.546875 C 224.449219 205.546875 226.78125 207.863281 226.78125 210.726562 L 226.78125 299.757812 L 238.488281 299.757812 C 237.835938 296.050781 237.476562 292.238281 237.476562 288.34375 C 237.476562 279.285156 239.351562 270.675781 242.699219 262.859375 L 242.699219 143.496094 C 242.699219 140.636719 245.039062 138.292969 247.898438 138.292969 L 287.566406 138.292969 C 290.425781 138.292969 292.765625 140.636719 292.765625 143.496094 L 292.765625 224.375 C 295.839844 223.929688 298.953125 223.699219 302.117188 223.699219 Z M 253.113281 246.199219 C 260.824219 237.222656 270.925781 230.445312 282.382812 226.777344 L 282.382812 148.695312 L 253.113281 148.695312 Z M 340.460938 249.988281 C 319.296875 228.796875 284.957031 228.796875 263.773438 249.988281 C 242.609375 271.15625 242.609375 305.507812 263.773438 326.699219 C 284.957031 347.867188 319.296875 347.867188 340.460938 326.699219 C 361.640625 305.507812 361.640625 271.15625 340.460938 249.988281 Z M 55.148438 299.757812 L 84.414062 299.757812 L 84.414062 238.863281 L 55.148438 238.863281 Z M 121.140625 299.757812 L 150.40625 299.757812 L 150.40625 188.25 L 121.140625 188.25 Z M 187.128906 299.757812 L 216.398438 299.757812 L 216.398438 215.925781 L 187.128906 215.925781 Z M 127.371094 116.175781 L 70.308594 177.675781 L 133.902344 137.757812 C 135.394531 136.808594 137.183594 136.726562 138.675781 137.359375 L 138.699219 137.359375 L 179.800781 154.945312 L 252.105469 102.457031 C 254.25 100.917969 257.175781 101.238281 258.945312 103.113281 L 264.925781 108.863281 L 275.472656 70.402344 L 234.980469 71.769531 L 241.238281 80.804688 C 242.855469 83.160156 242.269531 86.386719 239.90625 88.003906 L 174.820312 134.949219 C 173.238281 136.066406 171.265625 136.191406 169.621094 135.433594 Z M 35.96875 199.453125 L 88.878906 142.394531 C 57.613281 136.222656 34.558594 108.675781 34.558594 76.222656 C 34.558594 38.964844 64.753906 8.761719 102.019531 8.761719 L 102.019531 8.78125 C 139.285156 8.78125 169.460938 38.988281 169.460938 76.226562 C 169.460938 91.371094 164.40625 105.824219 155.308594 117.554688 L 171.203125 124.800781 L 229.828125 82.53125 L 221.070312 69.867188 C 218.773438 66.515625 221.046875 61.867188 225.175781 61.738281 L 282.171875 59.820312 C 285.628906 59.71875 288.257812 63.003906 287.328125 66.375 L 272.671875 119.769531 C 271.640625 123.984375 266.773438 125.054688 263.996094 122.402344 L 254.6875 113.445312 L 183.519531 165.097656 C 182.085938 166.128906 180.171875 166.402344 178.445312 165.667969 L 137.117188 148 L 42.699219 207.292969 C 37.460938 210.703125 31.839844 203.882812 35.96875 199.453125 Z M 97.472656 133.128906 L 122.296875 106.382812 L 122.320312 106.382812 C 123.792969 104.785156 126.175781 104.234375 128.253906 105.199219 L 145.585938 113.097656 C 164.707031 90.515625 163.375 56.902344 142.339844 35.859375 C 132.023438 25.515625 117.746094 19.132812 102.019531 19.132812 L 102.019531 19.15625 C 70.503906 19.15625 44.957031 44.703125 44.957031 76.214844 C 44.957031 106.105469 67.96875 130.8125 97.472656 133.128906 Z M 79.445312 92.078125 C 79.191406 89.230469 81.28125 86.707031 84.140625 86.453125 C 86.984375 86.175781 89.511719 88.289062 89.761719 91.148438 C 90.460938 98.75 103.558594 102.710938 111.074219 96.566406 C 113.050781 94.96875 114.277344 92.796875 114.277344 90.503906 C 114.277344 75.128906 79.339844 88.6875 79.339844 61.941406 C 79.339844 52.191406 87.339844 44.925781 96.714844 43.007812 L 96.714844 38.164062 C 96.714844 35.292969 99.054688 32.960938 101.914062 32.960938 C 104.773438 32.960938 107.113281 35.300781 107.113281 38.164062 L 107.113281 42.960938 C 116.570312 44.835938 124.675781 52.125 124.675781 61.941406 C 124.675781 64.824219 122.335938 67.140625 119.476562 67.140625 C 116.59375 67.140625 114.277344 64.824219 114.277344 61.941406 C 114.277344 53.9375 100.695312 49.554688 92.964844 55.875 C 90.988281 57.496094 89.742188 59.644531 89.742188 61.941406 C 89.742188 77.335938 124.675781 63.753906 124.675781 90.503906 C 124.675781 100.339844 116.570312 107.628906 107.113281 109.480469 L 107.113281 114.28125 C 107.113281 117.164062 104.773438 119.480469 101.914062 119.480469 C 99.054688 119.480469 96.714844 117.164062 96.714844 114.28125 L 96.714844 109.457031 C 87.949219 107.644531 80.292969 101.179688 79.445312 92.078125 Z M 79.445312 92.078125 " fill-opacity="1" fill-rule="nonzero"/></g></svg>